<svg version="1.1" viewBox="0.0 0.0 720.0 540.0" fill="none" stroke="none" stroke-linecap="square" stroke-miterlimit="10" xmlns:xlink="http://www.w3.org/1999/xlink" xmlns="http://www.w3.org/2000/svg"><clipPath id="p.0"><path d="m0 0l720.0 0l0 540.0l-720.0 0l0 -540.0z" clip-rule="nonzero"/></clipPath><g clip-path="url(#p.0)"><path fill="#000000" fill-opacity="0.0" d="m0 0l720.0 0l0 540.0l-720.0 0z" fill-rule="evenodd"/><path fill="#d9d2e9" d="m77.7684 20.842485l37.543304 0l0 38.645668l-37.543304 0z" fill-rule="evenodd"/><path stroke="#000000" stroke-width="1.0" stroke-linejoin="round" stroke-linecap="butt" d="m77.7684 20.842485l37.543304 0l0 38.645668l-37.543304 0z" fill-rule="evenodd"/><path fill="#000000" d="m98.93618 42.999073l0 0.90625l-5.03125 0q-0.015625 -0.34375 0.109375 -0.65625q0.1875 -0.515625 0.609375 -1.015625q0.421875 -0.5 1.234375 -1.140625q1.234375 -1.03125 1.671875 -1.625q0.4375 -0.59375 0.4375 -1.125q0 -0.5625 -0.40625 -0.9375q-0.390625 -0.390625 -1.03125 -0.390625q-0.671875 0 -1.078125 0.40625q-0.40625 0.40625 -0.40625 1.125l-0.96875 -0.09375q0.09375 -1.078125 0.734375 -1.640625q0.65625 -0.5625 1.734375 -0.5625q1.109375 0 1.75 0.609375q0.640625 0.609375 0.640625 1.5q0 0.46875 -0.1875 0.90625q-0.1875 0.4375 -0.625 0.9375q-0.4375 0.484375 -1.453125 1.328125q-0.828125 0.71875 -1.078125 0.96875q-0.234375 0.25 -0.390625 0.5l3.734375 0z" fill-rule="nonzero"/><path fill="#d9d2e9" d="m121.688736 20.842485l37.543304 0l0 38.645668l-37.543304 0z" fill-rule="evenodd"/><path stroke="#000000" stroke-width="1.0" stroke-linejoin="round" stroke-linecap="butt" d="m121.688736 20.842485l37.543304 0l0 38.645668l-37.543304 0z" fill-rule="evenodd"/><path fill="#000000" d="m137.95026 41.889698l0.9375 -0.125q0.15625 0.796875 0.546875 1.15625q0.390625 0.34375 0.9375 0.34375q0.65625 0 1.109375 -0.453125q0.46875 -0.46875 0.46875 -1.140625q0 -0.640625 -0.421875 -1.0625q-0.421875 -0.421875 -1.078125 -0.421875q-0.265625 0 -0.65625 0.109375l0.109375 -0.828125q0.09375 0.015625 0.140625 0.015625q0.59375 0 1.078125 -0.3125q0.484375 -0.3125 0.484375 -0.96875q0 -0.515625 -0.359375 -0.84375q-0.34375 -0.34375 -0.890625 -0.34375q-0.546875 0 -0.921875 0.34375q-0.359375 0.34375 -0.453125 1.03125l-0.9375 -0.171875q0.171875 -0.9375 0.78125 -1.453125q0.609375 -0.515625 1.5 -0.515625q0.625 0 1.15625 0.265625q0.53125 0.265625 0.796875 0.734375q0.28125 0.453125 0.28125 0.984375q0 0.484375 -0.265625 0.890625q-0.265625 0.40625 -0.78125 0.65625q0.671875 0.15625 1.046875 0.65625q0.375 0.484375 0.375 1.21875q0 1.0 -0.734375 1.703125q-0.71875 0.6875 -1.828125 0.6875q-1.0 0 -1.671875 -0.59375q-0.65625 -0.609375 -0.75 -1.5625z" fill-rule="nonzero"/><path fill="#d9d2e9" d="m165.60455 20.842485l37.543304 0l0 38.645668l-37.543304 0z" fill-rule="evenodd"/><path stroke="#000000" stroke-width="1.0" stroke-linejoin="round" stroke-linecap="butt" d="m165.60455 20.842485l37.543304 0l0 38.645668l-37.543304 0z" fill-rule="evenodd"/><path fill="#000000" d="m180.90399 43.905323l0 -1.0625l1.0625 0l0 1.0625l-1.0625 0zm2.9606476 0l0 -1.0625l1.0625 0l0 1.0625l-1.0625 0zm2.9606476 0l0 -1.0625l1.0625 0l0 1.0625l-1.0625 0z" fill-rule="nonzero"/><path fill="#d9d2e9" d="m209.52489 20.842485l37.543304 0l0 38.645668l-37.543304 0z" fill-rule="evenodd"/><path stroke="#000000" stroke-width="1.0" stroke-linejoin="round" stroke-linecap="butt" d="m209.52489 20.842485l37.543304 0l0 38.645668l-37.543304 0z" fill-rule="evenodd"/><path fill="#000000" d="m222.82317 41.889698l0.9375 -0.125q0.15625 0.796875 0.546875 1.15625q0.390625 0.34375 0.9375 0.34375q0.65625 0 1.109375 -0.453125q0.46875 -0.46875 0.46875 -1.140625q0 -0.640625 -0.421875 -1.0625q-0.421875 -0.421875 -1.078125 -0.421875q-0.265625 0 -0.65625 0.109375l0.109375 -0.828125q0.09375 0.015625 0.140625 0.015625q0.59375 0 1.078125 -0.3125q0.484375 -0.3125 0.484375 -0.96875q0 -0.515625 -0.359375 -0.84375q-0.34375 -0.34375 -0.890625 -0.34375q-0.546875 0 -0.921875 0.34375q-0.359375 0.34375 -0.453125 1.03125l-0.9375 -0.171875q0.171875 -0.9375 0.78125 -1.453125q0.609375 -0.515625 1.5 -0.515625q0.625 0 1.15625 0.265625q0.53125 0.265625 0.796875 0.734375q0.28125 0.453125 0.28125 0.984375q0 0.484375 -0.265625 0.890625q-0.265625 0.40625 -0.78125 0.65625q0.671875 0.15625 1.046875 0.65625q0.375 0.484375 0.375 1.21875q0 1.0 -0.734375 1.703125q-0.71875 0.6875 -1.828125 0.6875q-1.0 0 -1.671875 -0.59375q-0.65625 -0.609375 -0.75 -1.5625zm5.9108734 -1.75q0 -1.34375 0.28125 -2.171875q0.28125 -0.828125 0.828125 -1.265625q0.546875 -0.453125 1.375 -0.453125q0.625 0 1.078125 0.25q0.46875 0.234375 0.765625 0.703125q0.3125 0.46875 0.484375 1.140625q0.171875 0.671875 0.171875 1.796875q0 1.34375 -0.28125 2.171875q-0.28125 0.828125 -0.828125 1.28125q-0.546875 0.4375 -1.390625 0.4375q-1.09375 0 -1.71875 -0.78125q-0.765625 -0.953125 -0.765625 -3.109375zm0.96875 0q0 1.875 0.4375 2.5q0.4375 0.625 1.078125 0.625q0.65625 0 1.09375 -0.625q0.4375 -0.625 0.4375 -2.5q0 -1.875 -0.4375 -2.5q-0.4375 -0.625 -1.09375 -0.625q-0.640625 0 -1.03125 0.546875q-0.484375 0.703125 -0.484375 2.578125z" fill-rule="nonzero"/><path fill="#d9d2e9" d="m253.44522 20.842485l37.543304 0l0 38.645668l-37.543304 0z" fill-rule="evenodd"/><path stroke="#000000" stroke-width="1.0" stroke-linejoin="round" stroke-linecap="butt" d="m253.44522 20.842485l37.543304 0l0 38.645668l-37.543304 0z" fill-rule="evenodd"/><path fill="#000000" d="m266.7435 41.889698l0.9375 -0.125q0.15625 0.796875 0.546875 1.15625q0.390625 0.34375 0.9375 0.34375q0.65625 0 1.109375 -0.453125q0.46875 -0.46875 0.46875 -1.140625q0 -0.640625 -0.421875 -1.0625q-0.421875 -0.421875 -1.078125 -0.421875q-0.265625 0 -0.65625 0.109375l0.109375 -0.828125q0.09375 0.015625 0.140625 0.015625q0.59375 0 1.078125 -0.3125q0.484375 -0.3125 0.484375 -0.96875q0 -0.515625 -0.359375 -0.84375q-0.34375 -0.34375 -0.890625 -0.34375q-0.546875 0 -0.921875 0.34375q-0.359375 0.34375 -0.453125 1.03125l-0.9375 -0.171875q0.171875 -0.9375 0.78125 -1.453125q0.609375 -0.515625 1.5 -0.515625q0.625 0 1.15625 0.265625q0.53125 0.265625 0.796875 0.734375q0.28125 0.453125 0.28125 0.984375q0 0.484375 -0.265625 0.890625q-0.265625 0.40625 -0.78125 0.65625q0.671875 0.15625 1.046875 0.65625q0.375 0.484375 0.375 1.21875q0 1.0 -0.734375 1.703125q-0.71875 0.6875 -1.828125 0.6875q-1.0 0 -1.671875 -0.59375q-0.65625 -0.609375 -0.75 -1.5625zm9.442139 2.015625l-0.9375 0l0 -5.96875q-0.34375 0.328125 -0.890625 0.65625q-0.546875 0.3125 -0.984375 0.46875l0 -0.90625q0.796875 -0.359375 1.375 -0.890625q0.59375 -0.53125 0.828125 -1.015625l0.609375 0l0 7.65625z" fill-rule="nonzero"/><path fill="#d9d2e9" d="m297.36105 20.842485l37.543304 0l0 38.645668l-37.543304 0z" fill-rule="evenodd"/><path stroke="#000000" stroke-width="1.0" stroke-linejoin="round" stroke-linecap="butt" d="m297.36105 20.842485l37.543304 0l0 38.645668l-37.543304 0z" fill-rule="evenodd"/><path fill="#000000" d="m310.65933 41.889698l0.9375 -0.125q0.15625 0.796875 0.546875 1.15625q0.390625 0.34375 0.9375 0.34375q0.65625 0 1.109375 -0.453125q0.46875 -0.46875 0.46875 -1.140625q0 -0.640625 -0.421875 -1.0625q-0.421875 -0.421875 -1.078125 -0.421875q-0.265625 0 -0.65625 0.109375l0.109375 -0.828125q0.09375 0.015625 0.140625 0.015625q0.59375 0 1.078125 -0.3125q0.484375 -0.3125 0.484375 -0.96875q0 -0.515625 -0.359375 -0.84375q-0.34375 -0.34375 -0.890625 -0.34375q-0.546875 0 -0.921875 0.34375q-0.359375 0.34375 -0.453125 1.03125l-0.9375 -0.171875q0.171875 -0.9375 0.78125 -1.453125q0.609375 -0.515625 1.5 -0.515625q0.625 0 1.15625 0.265625q0.53125 0.265625 0.796875 0.734375q0.28125 0.453125 0.28125 0.984375q0 0.484375 -0.265625 0.890625q-0.265625 0.40625 -0.78125 0.65625q0.671875 0.15625 1.046875 0.65625q0.375 0.484375 0.375 1.21875q0 1.0 -0.734375 1.703125q-0.71875 0.6875 -1.828125 0.6875q-1.0 0 -1.671875 -0.59375q-0.65625 -0.609375 -0.75 -1.5625zm10.832733 1.109375l0 0.90625l-5.03125 0q-0.015625 -0.34375 0.109375 -0.65625q0.1875 -0.515625 0.609375 -1.015625q0.421875 -0.5 1.234375 -1.140625q1.234375 -1.03125 1.671875 -1.625q0.4375 -0.59375 0.4375 -1.125q0 -0.5625 -0.40625 -0.9375q-0.390625 -0.390625 -1.03125 -0.390625q-0.671875 0 -1.078125 0.40625q-0.40625 0.40625 -0.40625 1.125l-0.96875 -0.09375q0.09375 -1.078125 0.734375 -1.640625q0.65625 -0.5625 1.734375 -0.5625q1.109375 0 1.75 0.609375q0.640625 0.609375 0.640625 1.5q0 0.46875 -0.1875 0.90625q-0.1875 0.4375 -0.625 0.9375q-0.4375 0.484375 -1.453125 1.328125q-0.828125 0.71875 -1.078125 0.96875q-0.234375 0.25 -0.390625 0.5l3.734375 0z" fill-rule="nonzero"/><path fill="#c9daf8" d="m165.60269 117.23681l37.54332 0l0 38.645668l-37.54332 0z" fill-rule="evenodd"/><path stroke="#000000" stroke-width="1.0" stroke-linejoin="round" stroke-linecap="butt" d="m165.60269 117.23681l37.54332 0l0 38.645668l-37.54332 0z" fill-rule="evenodd"/><path fill="#000000" d="m182.76035 139.61214q-0.53125 0.453125 -1.015625 0.640625q-0.46873474 0.171875 -1.0156097 0.171875q-0.921875 0 -1.40625 -0.4375q-0.484375 -0.453125 -0.484375 -1.140625q0 -0.40625 0.171875 -0.734375q0.1875 -0.34375 0.484375 -0.546875q0.3125 -0.203125 0.6875 -0.3125q0.265625 -0.0625 0.828125 -0.140625q1.1249847 -0.125 1.6718597 -0.3125q0 -0.203125 0 -0.25q0 -0.578125 -0.265625 -0.8125q-0.359375 -0.3125 -1.0624847 -0.3125q-0.65625 0 -0.984375 0.234375q-0.3125 0.234375 -0.453125 0.8125l-0.921875 -0.125q0.125 -0.578125 0.40625 -0.9375q0.296875 -0.375 0.828125 -0.5625q0.546875 -0.203125 1.25 -0.203125q0.71873474 0 1.1562347 0.171875q0.4375 0.171875 0.640625 0.421875q0.21875 0.25 0.296875 0.640625q0.046875 0.234375 0.046875 0.859375l0 1.25q0 1.296875 0.0625 1.65625q0.0625 0.34375 0.234375 0.65625l-0.96875 0q-0.15625 -0.296875 -0.1875 -0.6875zm-0.078125 -2.078125q-0.515625 0.203125 -1.5312347 0.34375q-0.578125 0.078125 -0.828125 0.1875q-0.234375 0.109375 -0.359375 0.3125q-0.125 0.1875 -0.125 0.4375q0 0.375 0.28125 0.625q0.28125 0.25 0.828125 0.25q0.53125 0 0.95310974 -0.234375q0.421875 -0.234375 0.625 -0.65625q0.15625 -0.3125 0.15625 -0.9375l0 -0.328125zm5.6608734 2.765625l-0.9375 0l0 -5.96875q-0.34375 0.328125 -0.890625 0.65625q-0.546875 0.3125 -0.984375 0.46875l0 -0.90625q0.796875 -0.359375 1.375 -0.890625q0.59375 -0.53125 0.828125 -1.015625l0.609375 0l0 7.65625z" fill-rule="nonzero"/><path fill="#000000" fill-opacity="0.0" d="m21.33859 78.386154l0 16.661423" fill-rule="evenodd"/><path stroke="#000000" stroke-width="1.0" stroke-linejoin="round" stroke-linecap="butt" d="m21.33859 78.386154l0 16.661423" fill-rule="evenodd"/><path fill="#000000" fill-opacity="0.0" d="m21.338583 95.065445l326.07874 0" fill-rule="evenodd"/><path stroke="#000000" stroke-width="1.0" stroke-linejoin="round" stroke-linecap="butt" d="m21.338583 95.065445l326.07874 0" fill-rule="evenodd"/><path fill="#000000" fill-opacity="0.0" d="m184.37436 117.23681l0 -22.173233" fill-rule="evenodd"/><path stroke="#000000" stroke-width="1.0" stroke-linejoin="round" stroke-linecap="butt" d="m184.37434 113.80972l0 -18.746147" fill-rule="evenodd"/><path fill="#000000" stroke="#000000" stroke-width="1.0" stroke-linecap="butt" d="m184.37434 113.809715l-1.124588 -1.1245804l1.124588 3.0897675l1.124588 -3.0897675z" fill-rule="evenodd"/><path fill="#000000" fill-opacity="0.0" d="m110.84499 66.18333l147.62204 0l0 37.16535l-147.62204 0z" fill-rule="evenodd"/><path fill="#000000" d="m157.94852 89.4977q-1.09375 0 -1.953125 -0.515625q-0.859375 -0.53125 -1.34375 -1.421875q-0.484375 -0.90625 -0.484375 -2.03125q0 -1.125 0.484375 -2.03125q0.484375 -0.921875 1.34375 -1.421875q0.859375 -0.515625 1.953125 -0.515625q1.21875 0 2.046875 0.5625q0.828125 0.5625 1.171875 1.5l-1.125 0.46875q-0.28125 -0.6875 -0.828125 -1.046875q-0.546875 -0.359375 -1.328125 -0.359375q-0.65625 0 -1.234375 0.359375q-0.5625 0.359375 -0.90625 1.0q-0.34375 0.640625 -0.34375 1.484375q0 0.828125 0.34375 1.484375q0.34375 0.640625 0.90625 1.0q0.578125 0.359375 1.234375 0.359375q0.796875 0 1.359375 -0.359375q0.578125 -0.375 0.859375 -1.046875l1.109375 0.46875q-0.375 0.921875 -1.21875 1.5q-0.84375 0.5625 -2.046875 0.5625zm7.991516 0q-1.109375 0 -1.984375 -0.53125q-0.875 -0.53125 -1.375 -1.4375q-0.484375 -0.90625 -0.484375 -2.0q0 -1.109375 0.484375 -2.015625q0.5 -0.90625 1.375 -1.421875q0.875 -0.53125 1.984375 -0.53125q1.09375 0 1.96875 0.53125q0.875 0.515625 1.359375 1.421875q0.5 0.90625 0.5 2.015625q0 1.09375 -0.5 2.0q-0.484375 0.90625 -1.359375 1.4375q-0.875 0.53125 -1.96875 0.53125zm0 -1.125q0.6875 0 1.28125 -0.34375q0.59375 -0.34375 0.953125 -0.984375q0.359375 -0.65625 0.359375 -1.515625q0 -0.875 -0.359375 -1.515625q-0.359375 -0.640625 -0.953125 -0.984375q-0.59375 -0.34375 -1.28125 -0.34375q-0.703125 0 -1.296875 0.34375q-0.59375 0.34375 -0.953125 0.984375q-0.359375 0.640625 -0.359375 1.515625q0 0.859375 0.359375 1.515625q0.359375 0.640625 0.953125 0.984375q0.59375 0.34375 1.296875 0.34375zm5.1353607 -6.578125l1.1875 0l0 1.09375l0.0625 0q0.3125 -0.578125 0.953125 -0.953125q0.65625 -0.375 1.375 -0.375q0.8125 0 1.421875 0.390625q0.609375 0.390625 0.875 1.046875q0.40625 -0.65625 1.046875 -1.046875q0.65625 -0.390625 1.515625 -0.390625q1.296875 0 1.9375 0.78125q0.65625 0.78125 0.65625 2.125l0 4.796875l-1.21875 0l0 -4.609375q0 -1.03125 -0.4375 -1.5q-0.421875 -0.46875 -1.25 -0.46875q-0.5625 0 -1.015625 0.328125q-0.453125 0.3125 -0.71875 0.859375q-0.25 0.546875 -0.25 1.171875l0 4.21875l-1.25 0l0 -4.59375q0 -1.046875 -0.421875 -1.515625q-0.421875 -0.46875 -1.25 -0.46875q-0.546875 0 -1.0 0.328125q-0.453125 0.328125 -0.71875 0.875q-0.25 0.546875 -0.25 1.1875l0 4.1875l-1.25 0l0 -7.46875zm12.776428 0l1.1875 0l0 1.109375l0.0625 0q0.34375 -0.578125 1.015625 -0.953125q0.6875 -0.390625 1.53125 -0.390625q1.015625 0 1.828125 0.515625q0.8125 0.5 1.28125 1.421875q0.46875 0.90625 0.46875 2.03125q0 1.140625 -0.46875 2.046875q-0.46875 0.890625 -1.28125 1.40625q-0.8125 0.515625 -1.828125 0.515625q-0.84375 0 -1.53125 -0.390625q-0.671875 -0.390625 -1.015625 -0.9375l-0.0625 0l0.0625 1.015625l0 3.25l-1.25 0l0 -10.640625zm3.671875 6.578125q0.640625 0 1.203125 -0.34375q0.578125 -0.359375 0.90625 -1.0q0.34375 -0.65625 0.34375 -1.5q0 -0.859375 -0.34375 -1.5q-0.328125 -0.640625 -0.90625 -0.984375q-0.5625 -0.359375 -1.203125 -0.359375q-0.65625 0 -1.234375 0.359375q-0.5625 0.34375 -0.90625 0.984375q-0.34375 0.640625 -0.34375 1.5q0 0.84375 0.34375 1.5q0.34375 0.640625 0.90625 1.0q0.578125 0.34375 1.234375 0.34375zm8.608215 1.125q-1.109375 0 -1.984375 -0.53125q-0.875 -0.53125 -1.375 -1.4375q-0.484375 -0.90625 -0.484375 -2.0q0 -1.109375 0.484375 -2.015625q0.5 -0.90625 1.375 -1.421875q0.875 -0.53125 1.984375 -0.53125q1.09375 0 1.96875 0.53125q0.875 0.515625 1.359375 1.421875q0.5 0.90625 0.5 2.015625q0 1.09375 -0.5 2.0q-0.484375 0.90625 -1.359375 1.4375q-0.875 0.53125 -1.96875 0.53125zm0 -1.125q0.6875 0 1.28125 -0.34375q0.59375 -0.34375 0.953125 -0.984375q0.359375 -0.65625 0.359375 -1.515625q0 -0.875 -0.359375 -1.515625q-0.359375 -0.640625 -0.953125 -0.984375q-0.59375 -0.34375 -1.28125 -0.34375q-0.703125 0 -1.296875 0.34375q-0.59375 0.34375 -0.953125 0.984375q-0.359375 0.640625 -0.359375 1.515625q0 0.859375 0.359375 1.515625q0.359375 0.640625 0.953125 0.984375q0.59375 0.34375 1.296875 0.34375zm7.8180695 1.125q-1.203125 0 -2.015625 -0.5625q-0.796875 -0.5625 -1.140625 -1.4375l1.125 -0.5q0.265625 0.671875 0.8125 1.046875q0.5625 0.359375 1.21875 0.359375q0.703125 0 1.203125 -0.28125q0.5 -0.296875 0.5 -0.828125q0 -0.46875 -0.40625 -0.75q-0.390625 -0.28125 -1.234375 -0.484375l-0.90625 -0.234375q-0.90625 -0.234375 -1.484375 -0.75q-0.5625 -0.53125 -0.5625 -1.375q0 -0.640625 0.390625 -1.125q0.390625 -0.5 1.03125 -0.75q0.65625 -0.265625 1.390625 -0.265625q0.984375 0 1.75 0.421875q0.78125 0.421875 1.09375 1.1875l-1.078125 0.5q-0.5 -1.0 -1.78125 -1.0q-0.609375 0 -1.078125 0.28125q-0.453125 0.28125 -0.453125 0.734375q0 0.40625 0.3125 0.671875q0.328125 0.25 0.96875 0.40625l1.09375 0.28125q1.09375 0.28125 1.65625 0.828125q0.5625 0.546875 0.5625 1.34375q0 0.6875 -0.40625 1.203125q-0.390625 0.515625 -1.0625 0.796875q-0.671875 0.28125 -1.5 0.28125zm7.724518 0q-1.0625 0 -1.921875 -0.515625q-0.84375 -0.515625 -1.328125 -1.40625q-0.46875 -0.90625 -0.46875 -2.03125q0 -1.078125 0.4375 -1.984375q0.453125 -0.921875 1.28125 -1.453125q0.828125 -0.546875 1.890625 -0.546875q1.109375 0 1.90625 0.484375q0.8125 0.484375 1.234375 1.359375q0.4375 0.859375 0.4375 1.96875q0 0.1875 -0.03125 0.390625l-5.921875 0q0.046875 0.84375 0.40625 1.4375q0.375 0.578125 0.9375 0.875q0.5625 0.296875 1.1875 0.296875q1.46875 0 2.203125 -1.359375l1.0625 0.515625q-0.46875 0.90625 -1.3125 1.4375q-0.828125 0.53125 -2.0 0.53125zm2.15625 -4.765625q-0.03125 -0.46875 -0.265625 -0.9375q-0.234375 -0.46875 -0.734375 -0.78125q-0.5 -0.328125 -1.265625 -0.328125q-0.875 0 -1.5 0.5625q-0.609375 0.5625 -0.796875 1.484375l4.5625 0z" fill-rule="nonzero"/><path fill="#000000" fill-opacity="0.0" d="m346.9729 78.386154l0 16.661423" fill-rule="evenodd"/><path stroke="#000000" stroke-width="1.0" stroke-linejoin="round" stroke-linecap="butt" d="m346.9729 78.386154l0 16.661423" fill-rule="evenodd"/><path fill="#d9d2e9" d="m423.4167 20.842485l37.543304 0l0 38.645668l-37.543304 0z" fill-rule="evenodd"/><path stroke="#000000" stroke-width="1.0" stroke-linejoin="round" stroke-linecap="butt" d="m423.4167 20.842485l37.543304 0l0 38.645668l-37.543304 0z" fill-rule="evenodd"/><path fill="#000000" d="m436.71497 41.889698l0.9375 -0.125q0.15625 0.796875 0.546875 1.15625q0.390625 0.34375 0.9375 0.34375q0.65625 0 1.109375 -0.453125q0.46875 -0.46875 0.46875 -1.140625q0 -0.640625 -0.421875 -1.0625q-0.421875 -0.421875 -1.078125 -0.421875q-0.265625 0 -0.65625 0.109375l0.109375 -0.828125q0.09375 0.015625 0.140625 0.015625q0.59375 0 1.078125 -0.3125q0.484375 -0.3125 0.484375 -0.96875q0 -0.515625 -0.359375 -0.84375q-0.34375 -0.34375 -0.890625 -0.34375q-0.546875 0 -0.921875 0.34375q-0.359375 0.34375 -0.453125 1.03125l-0.9375 -0.171875q0.171875 -0.9375 0.78125 -1.453125q0.609375 -0.515625 1.5 -0.515625q0.625 0 1.15625 0.265625q0.53125 0.265625 0.796875 0.734375q0.28125 0.453125 0.28125 0.984375q0 0.484375 -0.265625 0.890625q-0.265625 0.40625 -0.78125 0.65625q0.671875 0.15625 1.046875 0.65625q0.375 0.484375 0.375 1.21875q0 1.0 -0.734375 1.703125q-0.71875 0.6875 -1.828125 0.6875q-1.0 0 -1.671875 -0.59375q-0.65625 -0.609375 -0.75 -1.5625zm8.910889 2.015625l0 -1.828125l-3.296875 0l0 -0.859375l3.46875 -4.9375l0.765625 0l0 4.9375l1.03125 0l0 0.859375l-1.03125 0l0 1.828125l-0.9375 0zm0 -2.6875l0 -3.4375l-2.375 3.4375l2.375 0z" fill-rule="nonzero"/><path fill="#d9d2e9" d="m467.33704 20.842485l37.543304 0l0 38.645668l-37.543304 0z" fill-rule="evenodd"/><path stroke="#000000" stroke-width="1.0" stroke-linejoin="round" stroke-linecap="butt" d="m467.33704 20.842485l37.543304 0l0 38.645668l-37.543304 0z" fill-rule="evenodd"/><path fill="#000000" d="m480.6353 41.889698l0.9375 -0.125q0.15625 0.796875 0.546875 1.15625q0.390625 0.34375 0.9375 0.34375q0.65625 0 1.109375 -0.453125q0.46875 -0.46875 0.46875 -1.140625q0 -0.640625 -0.421875 -1.0625q-0.421875 -0.421875 -1.078125 -0.421875q-0.265625 0 -0.65625 0.109375l0.109375 -0.828125q0.09375 0.015625 0.140625 0.015625q0.59375 0 1.078125 -0.3125q0.484375 -0.3125 0.484375 -0.96875q0 -0.515625 -0.359375 -0.84375q-0.34375 -0.34375 -0.890625 -0.34375q-0.546875 0 -0.921875 0.34375q-0.359375 0.34375 -0.453125 1.03125l-0.9375 -0.171875q0.171875 -0.9375 0.78125 -1.453125q0.609375 -0.515625 1.5 -0.515625q0.625 0 1.15625 0.265625q0.53125 0.265625 0.796875 0.734375q0.28125 0.453125 0.28125 0.984375q0 0.484375 -0.265625 0.890625q-0.265625 0.40625 -0.78125 0.65625q0.671875 0.15625 1.046875 0.65625q0.375 0.484375 0.375 1.21875q0 1.0 -0.734375 1.703125q-0.71875 0.6875 -1.828125 0.6875q-1.0 0 -1.671875 -0.59375q-0.65625 -0.609375 -0.75 -1.5625zm5.910858 0.015625l0.984375 -0.078125q0.109375 0.71875 0.5 1.078125q0.40625 0.359375 0.96875 0.359375q0.671875 0 1.140625 -0.5q0.46875 -0.515625 0.46875 -1.359375q0 -0.796875 -0.453125 -1.265625q-0.4375 -0.46875 -1.171875 -0.46875q-0.453125 0 -0.8125 0.21875q-0.359375 0.203125 -0.578125 0.53125l-0.875 -0.125l0.734375 -3.921875l3.796875 0l0 0.90625l-3.046875 0l-0.40625 2.046875q0.6875 -0.484375 1.4375 -0.484375q1.0 0 1.6875 0.703125q0.6875 0.6875 0.6875 1.765625q0 1.046875 -0.609375 1.796875q-0.734375 0.921875 -2.0 0.921875q-1.03125 0 -1.703125 -0.578125q-0.65625 -0.578125 -0.75 -1.546875z" fill-rule="nonzero"/><path fill="#d9d2e9" d="m511.25284 20.842485l37.543304 0l0 38.645668l-37.543304 0z" fill-rule="evenodd"/><path stroke="#000000" stroke-width="1.0" stroke-linejoin="round" stroke-linecap="butt" d="m511.25284 20.842485l37.543304 0l0 38.645668l-37.543304 0z" fill-rule="evenodd"/><path fill="#000000" d="m526.5523 43.905323l0 -1.0625l1.0625 0l0 1.0625l-1.0625 0zm2.9606323 0l0 -1.0625l1.0625 0l0 1.0625l-1.0625 0zm2.9606323 0l0 -1.0625l1.0625 0l0 1.0625l-1.0625 0z" fill-rule="nonzero"/><path fill="#d9d2e9" d="m555.17316 20.842485l37.543335 0l0 38.645668l-37.543335 0z" fill-rule="evenodd"/><path stroke="#000000" stroke-width="1.0" stroke-linejoin="round" stroke-linecap="butt" d="m555.17316 20.842485l37.543335 0l0 38.645668l-37.543335 0z" fill-rule="evenodd"/><path fill="#000000" d="m573.3152 38.139698l-0.921875 0.078125q-0.125 -0.546875 -0.359375 -0.796875q-0.375 -0.40625 -0.9375 -0.40625q-0.4375 0 -0.78125 0.25q-0.4375 0.328125 -0.703125 0.953125q-0.25 0.609375 -0.265625 1.75q0.34375 -0.515625 0.828125 -0.765625q0.5 -0.25 1.03125 -0.25q0.9375 0 1.59375 0.703125q0.65625 0.6875 0.65625 1.765625q0 0.71875 -0.3125 1.34375q-0.3125 0.609375 -0.859375 0.9375q-0.53125 0.328125 -1.21875 0.328125q-1.171875 0 -1.90625 -0.859375q-0.734375 -0.859375 -0.734375 -2.828125q0 -2.21875 0.8125 -3.21875q0.71875 -0.875 1.921875 -0.875q0.890625 0 1.46875 0.5q0.578125 0.5 0.6875 1.390625zm-3.8125 3.296875q0 0.484375 0.203125 0.921875q0.203125 0.4375 0.5625 0.671875q0.375 0.234375 0.78125 0.234375q0.59375 0 1.015625 -0.46875q0.4375 -0.484375 0.4375 -1.3125q0 -0.78125 -0.421875 -1.234375q-0.421875 -0.46875 -1.0625 -0.46875q-0.640625 0 -1.078125 0.46875q-0.4375 0.453125 -0.4375 1.1875zm9.801514 1.5625l0 0.90625l-5.03125 0q-0.015625 -0.34375 0.109375 -0.65625q0.1875 -0.515625 0.609375 -1.015625q0.421875 -0.5 1.234375 -1.140625q1.234375 -1.03125 1.671875 -1.625q0.4375 -0.59375 0.4375 -1.125q0 -0.5625 -0.40625 -0.9375q-0.390625 -0.390625 -1.03125 -0.390625q-0.671875 0 -1.078125 0.40625q-0.40625 0.40625 -0.40625 1.125l-0.96875 -0.09375q0.09375 -1.078125 0.734375 -1.640625q0.65625 -0.5625 1.734375 -0.5625q1.109375 0 1.75 0.609375q0.640625 0.609375 0.640625 1.5q0 0.46875 -0.1875 0.90625q-0.1875 0.4375 -0.625 0.9375q-0.4375 0.484375 -1.453125 1.328125q-0.828125 0.71875 -1.078125 0.96875q-0.234375 0.25 -0.390625 0.5l3.734375 0z" fill-rule="nonzero"/><path fill="#d9d2e9" d="m599.0935 20.842485l37.543335 0l0 38.645668l-37.543335 0z" fill-rule="evenodd"/><path stroke="#000000" stroke-width="1.0" stroke-linejoin="round" stroke-linecap="butt" d="m599.0935 20.842485l37.543335 0l0 38.645668l-37.543335 0z" fill-rule="evenodd"/><path fill="#000000" d="m617.23553 38.139698l-0.921875 0.078125q-0.125 -0.546875 -0.359375 -0.796875q-0.375 -0.40625 -0.9375 -0.40625q-0.4375 0 -0.78125 0.25q-0.4375 0.328125 -0.703125 0.953125q-0.25 0.609375 -0.265625 1.75q0.34375 -0.515625 0.828125 -0.765625q0.5 -0.25 1.03125 -0.25q0.9375 0 1.59375 0.703125q0.65625 0.6875 0.65625 1.765625q0 0.71875 -0.3125 1.34375q-0.3125 0.609375 -0.859375 0.9375q-0.53125 0.328125 -1.21875 0.328125q-1.171875 0 -1.90625 -0.859375q-0.734375 -0.859375 -0.734375 -2.828125q0 -2.21875 0.8125 -3.21875q0.71875 -0.875 1.921875 -0.875q0.890625 0 1.46875 0.5q0.578125 0.5 0.6875 1.390625zm-3.8125 3.296875q0 0.484375 0.203125 0.921875q0.203125 0.4375 0.5625 0.671875q0.375 0.234375 0.78125 0.234375q0.59375 0 1.015625 -0.46875q0.4375 -0.484375 0.4375 -1.3125q0 -0.78125 -0.421875 -1.234375q-0.421875 -0.46875 -1.0625 -0.46875q-0.640625 0 -1.078125 0.46875q-0.4375 0.453125 -0.4375 1.1875zm4.8952637 0.453125l0.9375 -0.125q0.15625 0.796875 0.546875 1.15625q0.390625 0.34375 0.9375 0.34375q0.65625 0 1.109375 -0.453125q0.46875 -0.46875 0.46875 -1.140625q0 -0.640625 -0.421875 -1.0625q-0.421875 -0.421875 -1.078125 -0.421875q-0.265625 0 -0.65625 0.109375l0.109375 -0.828125q0.09375 0.015625 0.140625 0.015625q0.59375 0 1.078125 -0.3125q0.484375 -0.3125 0.484375 -0.96875q0 -0.515625 -0.359375 -0.84375q-0.34375 -0.34375 -0.890625 -0.34375q-0.546875 0 -0.921875 0.34375q-0.359375 0.34375 -0.453125 1.03125l-0.9375 -0.171875q0.171875 -0.9375 0.78125 -1.453125q0.609375 -0.515625 1.5 -0.515625q0.625 0 1.15625 0.265625q0.53125 0.265625 0.796875 0.734375q0.28125 0.453125 0.28125 0.984375q0 0.484375 -0.265625 0.890625q-0.265625 0.40625 -0.78125 0.65625q0.671875 0.15625 1.046875 0.65625q0.375 0.484375 0.375 1.21875q0 1.0 -0.734375 1.703125q-0.71875 0.6875 -1.828125 0.6875q-1.0 0 -1.671875 -0.59375q-0.65625 -0.609375 -0.75 -1.5625z" fill-rule="nonzero"/><path fill="#d9d2e9" d="m643.00934 20.842485l37.543335 0l0 38.645668l-37.543335 0z" fill-rule="evenodd"/><path stroke="#000000" stroke-width="1.0" stroke-linejoin="round" stroke-linecap="butt" d="m643.00934 20.842485l37.543335 0l0 38.645668l-37.543335 0z" fill-rule="evenodd"/><path fill="#000000" d="m661.15137 38.139698l-0.921875 0.078125q-0.125 -0.546875 -0.359375 -0.796875q-0.375 -0.40625 -0.9375 -0.40625q-0.4375 0 -0.78125 0.25q-0.4375 0.328125 -0.703125 0.953125q-0.25 0.609375 -0.265625 1.75q0.34375 -0.515625 0.828125 -0.765625q0.5 -0.25 1.03125 -0.25q0.9375 0 1.59375 0.703125q0.65625 0.6875 0.65625 1.765625q0 0.71875 -0.3125 1.34375q-0.3125 0.609375 -0.859375 0.9375q-0.53125 0.328125 -1.21875 0.328125q-1.171875 0 -1.90625 -0.859375q-0.734375 -0.859375 -0.734375 -2.828125q0 -2.21875 0.8125 -3.21875q0.71875 -0.875 1.921875 -0.875q0.890625 0 1.46875 0.5q0.578125 0.5 0.6875 1.390625zm-3.8125 3.296875q0 0.484375 0.203125 0.921875q0.203125 0.4375 0.5625 0.671875q0.375 0.234375 0.78125 0.234375q0.59375 0 1.015625 -0.46875q0.4375 -0.484375 0.4375 -1.3125q0 -0.78125 -0.421875 -1.234375q-0.421875 -0.46875 -1.0625 -0.46875q-0.640625 0 -1.078125 0.46875q-0.4375 0.453125 -0.4375 1.1875zm7.8796387 2.46875l0 -1.828125l-3.296875 0l0 -0.859375l3.46875 -4.9375l0.765625 0l0 4.9375l1.03125 0l0 0.859375l-1.03125 0l0 1.828125l-0.9375 0zm0 -2.6875l0 -3.4375l-2.375 3.4375l2.375 0z" fill-rule="nonzero"/><path fill="#c9daf8" d="m511.251 117.23681l37.543304 0l0 38.645668l-37.543304 0z" fill-rule="evenodd"/><path stroke="#000000" stroke-width="1.0" stroke-linejoin="round" stroke-linecap="butt" d="m511.251 117.23681l37.543304 0l0 38.645668l-37.543304 0z" fill-rule="evenodd"/><path fill="#000000" d="m528.4086 139.61214q-0.53125 0.453125 -1.015625 0.640625q-0.46875 0.171875 -1.015625 0.171875q-0.921875 0 -1.40625 -0.4375q-0.484375 -0.453125 -0.484375 -1.140625q0 -0.40625 0.171875 -0.734375q0.1875 -0.34375 0.484375 -0.546875q0.3125 -0.203125 0.6875 -0.3125q0.265625 -0.0625 0.828125 -0.140625q1.125 -0.125 1.671875 -0.3125q0 -0.203125 0 -0.25q0 -0.578125 -0.265625 -0.8125q-0.359375 -0.3125 -1.0625 -0.3125q-0.65625 0 -0.984375 0.234375q-0.3125 0.234375 -0.453125 0.8125l-0.921875 -0.125q0.125 -0.578125 0.40625 -0.9375q0.296875 -0.375 0.828125 -0.5625q0.546875 -0.203125 1.25 -0.203125q0.71875 0 1.15625 0.171875q0.4375 0.171875 0.640625 0.421875q0.21875 0.25 0.296875 0.640625q0.046875 0.234375 0.046875 0.859375l0 1.25q0 1.296875 0.0625 1.65625q0.0625 0.34375 0.234375 0.65625l-0.96875 0q-0.15625 -0.296875 -0.1875 -0.6875zm-0.078125 -2.078125q-0.515625 0.203125 -1.53125 0.34375q-0.578125 0.078125 -0.828125 0.1875q-0.234375 0.109375 -0.359375 0.3125q-0.125 0.1875 -0.125 0.4375q0 0.375 0.28125 0.625q0.28125 0.25 0.828125 0.25q0.53125 0 0.953125 -0.234375q0.421875 -0.234375 0.625 -0.65625q0.15625 -0.3125 0.15625 -0.9375l0 -0.328125zm7.0515137 1.859375l0 0.90625l-5.03125 0q-0.015625 -0.34375 0.109375 -0.65625q0.1875 -0.515625 0.609375 -1.015625q0.421875 -0.5 1.234375 -1.140625q1.234375 -1.03125 1.671875 -1.625q0.4375 -0.59375 0.4375 -1.125q0 -0.5625 -0.40625 -0.9375q-0.390625 -0.390625 -1.03125 -0.390625q-0.671875 0 -1.078125 0.40625q-0.40625 0.40625 -0.40625 1.125l-0.96875 -0.09375q0.09375 -1.078125 0.734375 -1.640625q0.65625 -0.5625 1.734375 -0.5625q1.109375 0 1.75 0.609375q0.640625 0.609375 0.640625 1.5q0 0.46875 -0.1875 0.90625q-0.1875 0.4375 -0.625 0.9375q-0.4375 0.484375 -1.453125 1.328125q-0.828125 0.71875 -1.078125 0.96875q-0.234375 0.25 -0.390625 0.5l3.734375 0z" fill-rule="nonzero"/><path fill="#000000" fill-opacity="0.0" d="m366.98688 78.386154l0 16.661423" fill-rule="evenodd"/><path stroke="#000000" stroke-width="1.0" stroke-linejoin="round" stroke-linecap="butt" d="m366.98688 78.386154l0 16.661423" fill-rule="evenodd"/><path fill="#000000" fill-opacity="0.0" d="m366.98688 95.065445l326.07874 0" fill-rule="evenodd"/><path stroke="#000000" stroke-width="1.0" stroke-linejoin="round" stroke-linecap="butt" d="m366.98688 95.065445l326.07874 0" fill-rule="evenodd"/><path fill="#000000" fill-opacity="0.0" d="m530.02264 117.23681l0 -22.173233" fill-rule="evenodd"/><path stroke="#000000" stroke-width="1.0" stroke-linejoin="round" stroke-linecap="butt" d="m530.02264 113.80972l0 -18.746147" fill-rule="evenodd"/><path fill="#000000" stroke="#000000" stroke-width="1.0" stroke-linecap="butt" d="m530.02264 113.809715l-1.1245728 -1.1245804l1.1245728 3.0897675l1.1245728 -3.0897675z" fill-rule="evenodd"/><path fill="#000000" fill-opacity="0.0" d="m456.4933 66.18333l147.62207 0l0 37.16535l-147.62207 0z" fill-rule="evenodd"/><path fill="#000000" d="m503.5968 89.4977q-1.09375 0 -1.953125 -0.515625q-0.859375 -0.53125 -1.34375 -1.421875q-0.484375 -0.90625 -0.484375 -2.03125q0 -1.125 0.484375 -2.03125q0.484375 -0.921875 1.34375 -1.421875q0.859375 -0.515625 1.953125 -0.515625q1.21875 0 2.046875 0.5625q0.828125 0.5625 1.171875 1.5l-1.125 0.46875q-0.28125 -0.6875 -0.828125 -1.046875q-0.546875 -0.359375 -1.328125 -0.359375q-0.65625 0 -1.234375 0.359375q-0.5625 0.359375 -0.90625 1.0q-0.34375 0.640625 -0.34375 1.484375q0 0.828125 0.34375 1.484375q0.34375 0.640625 0.90625 1.0q0.578125 0.359375 1.234375 0.359375q0.796875 0 1.359375 -0.359375q0.578125 -0.375 0.859375 -1.046875l1.109375 0.46875q-0.375 0.921875 -1.21875 1.5q-0.84375 0.5625 -2.046875 0.5625zm7.991516 0q-1.109375 0 -1.984375 -0.53125q-0.875 -0.53125 -1.375 -1.4375q-0.484375 -0.90625 -0.484375 -2.0q0 -1.109375 0.484375 -2.015625q0.5 -0.90625 1.375 -1.421875q0.875 -0.53125 1.984375 -0.53125q1.09375 0 1.96875 0.53125q0.875 0.515625 1.359375 1.421875q0.5 0.90625 0.5 2.015625q0 1.09375 -0.5 2.0q-0.484375 0.90625 -1.359375 1.4375q-0.875 0.53125 -1.96875 0.53125zm0 -1.125q0.6875 0 1.28125 -0.34375q0.59375 -0.34375 0.953125 -0.984375q0.359375 -0.65625 0.359375 -1.515625q0 -0.875 -0.359375 -1.515625q-0.359375 -0.640625 -0.953125 -0.984375q-0.59375 -0.34375 -1.28125 -0.34375q-0.703125 0 -1.296875 0.34375q-0.59375 0.34375 -0.953125 0.984375q-0.359375 0.640625 -0.359375 1.515625q0 0.859375 0.359375 1.515625q0.359375 0.640625 0.953125 0.984375q0.59375 0.34375 1.296875 0.34375zm5.135376 -6.578125l1.1875 0l0 1.09375l0.0625 0q0.3125 -0.578125 0.953125 -0.953125q0.65625 -0.375 1.375 -0.375q0.8125 0 1.421875 0.390625q0.609375 0.390625 0.875 1.046875q0.40625 -0.65625 1.046875 -1.046875q0.65625 -0.390625 1.515625 -0.390625q1.296875 0 1.9375 0.78125q0.65625 0.78125 0.65625 2.125l0 4.796875l-1.21875 0l0 -4.609375q0 -1.03125 -0.4375 -1.5q-0.421875 -0.46875 -1.25 -0.46875q-0.5625 0 -1.015625 0.328125q-0.453125 0.3125 -0.71875 0.859375q-0.25 0.546875 -0.25 1.171875l0 4.21875l-1.25 0l0 -4.59375q0 -1.046875 -0.421875 -1.515625q-0.421875 -0.46875 -1.25 -0.46875q-0.546875 0 -1.0 0.328125q-0.453125 0.328125 -0.71875 0.875q-0.25 0.546875 -0.25 1.1875l0 4.1875l-1.25 0l0 -7.46875zm12.776428 0l1.1875 0l0 1.109375l0.0625 0q0.34375 -0.578125 1.015625 -0.953125q0.6875 -0.390625 1.53125 -0.390625q1.015625 0 1.828125 0.515625q0.8125 0.5 1.28125 1.421875q0.46875 0.90625 0.46875 2.03125q0 1.140625 -0.46875 2.046875q-0.46875 0.890625 -1.28125 1.40625q-0.8125 0.515625 -1.828125 0.515625q-0.84375 0 -1.53125 -0.390625q-0.671875 -0.390625 -1.015625 -0.9375l-0.0625 0l0.0625 1.015625l0 3.25l-1.25 0l0 -10.640625zm3.671875 6.578125q0.640625 0 1.203125 -0.34375q0.578125 -0.359375 0.90625 -1.0q0.34375 -0.65625 0.34375 -1.5q0 -0.859375 -0.34375 -1.5q-0.328125 -0.640625 -0.90625 -0.984375q-0.5625 -0.359375 -1.203125 -0.359375q-0.65625 0 -1.234375 0.359375q-0.5625 0.34375 -0.90625 0.984375q-0.34375 0.640625 -0.34375 1.5q0 0.84375 0.34375 1.5q0.34375 0.640625 0.90625 1.0q0.578125 0.34375 1.234375 0.34375zm8.608215 1.125q-1.109375 0 -1.984375 -0.53125q-0.875 -0.53125 -1.375 -1.4375q-0.484375 -0.90625 -0.484375 -2.0q0 -1.109375 0.484375 -2.015625q0.5 -0.90625 1.375 -1.421875q0.875 -0.53125 1.984375 -0.53125q1.09375 0 1.96875 0.53125q0.875 0.515625 1.359375 1.421875q0.5 0.90625 0.5 2.015625q0 1.09375 -0.5 2.0q-0.484375 0.90625 -1.359375 1.4375q-0.875 0.53125 -1.96875 0.53125zm0 -1.125q0.6875 0 1.28125 -0.34375q0.59375 -0.34375 0.953125 -0.984375q0.359375 -0.65625 0.359375 -1.515625q0 -0.875 -0.359375 -1.515625q-0.359375 -0.640625 -0.953125 -0.984375q-0.59375 -0.34375 -1.28125 -0.34375q-0.703125 0 -1.296875 0.34375q-0.59375 0.34375 -0.953125 0.984375q-0.359375 0.640625 -0.359375 1.515625q0 0.859375 0.359375 1.515625q0.359375 0.640625 0.953125 0.984375q0.59375 0.34375 1.296875 0.34375zm7.818054 1.125q-1.203125 0 -2.015625 -0.5625q-0.796875 -0.5625 -1.140625 -1.4375l1.125 -0.5q0.265625 0.671875 0.8125 1.046875q0.5625 0.359375 1.21875 0.359375q0.703125 0 1.203125 -0.28125q0.5 -0.296875 0.5 -0.828125q0 -0.46875 -0.40625 -0.75q-0.390625 -0.28125 -1.234375 -0.484375l-0.90625 -0.234375q-0.90625 -0.234375 -1.484375 -0.75q-0.5625 -0.53125 -0.5625 -1.375q0 -0.640625 0.390625 -1.125q0.390625 -0.5 1.03125 -0.75q0.65625 -0.265625 1.390625 -0.265625q0.984375 0 1.75 0.421875q0.78125 0.421875 1.09375 1.1875l-1.078125 0.5q-0.5 -1.0 -1.78125 -1.0q-0.609375 0 -1.078125 0.28125q-0.453125 0.28125 -0.453125 0.734375q0 0.40625 0.3125 0.671875q0.328125 0.25 0.96875 0.40625l1.09375 0.28125q1.09375 0.28125 1.65625 0.828125q0.5625 0.546875 0.5625 1.34375q0 0.6875 -0.40625 1.203125q-0.390625 0.515625 -1.0625 0.796875q-0.671875 0.28125 -1.5 0.28125zm7.7245483 0q-1.0625 0 -1.921875 -0.515625q-0.84375 -0.515625 -1.328125 -1.40625q-0.46875 -0.90625 -0.46875 -2.03125q0 -1.078125 0.4375 -1.984375q0.453125 -0.921875 1.28125 -1.453125q0.828125 -0.546875 1.890625 -0.546875q1.109375 0 1.90625 0.484375q0.8125 0.484375 1.234375 1.359375q0.4375 0.859375 0.4375 1.96875q0 0.1875 -0.03125 0.390625l-5.921875 0q0.046875 0.84375 0.40625 1.4375q0.375 0.578125 0.9375 0.875q0.5625 0.296875 1.1875 0.296875q1.46875 0 2.203125 -1.359375l1.0625 0.515625q-0.46875 0.90625 -1.3125 1.4375q-0.828125 0.53125 -2.0 0.53125zm2.15625 -4.765625q-0.03125 -0.46875 -0.265625 -0.9375q-0.234375 -0.46875 -0.734375 -0.78125q-0.5 -0.328125 -1.265625 -0.328125q-0.875 0 -1.5 0.5625q-0.609375 0.5625 -0.796875 1.484375l4.5625 0z" fill-rule="nonzero"/><path fill="#000000" fill-opacity="0.0" d="m692.6212 78.386154l0 16.661423" fill-rule="evenodd"/><path stroke="#000000" stroke-width="1.0" stroke-linejoin="round" stroke-linecap="butt" d="m692.6212 78.386154l0 16.661423" fill-rule="evenodd"/><path fill="#d9d2e9" d="m33.849762 20.842485l37.543312 0l0 38.645668l-37.543312 0z" fill-rule="evenodd"/><path stroke="#000000" stroke-width="1.0" stroke-linejoin="round" stroke-linecap="butt" d="m33.849762 20.842485l37.543312 0l0 38.645668l-37.543312 0z" fill-rule="evenodd"/><path fill="#000000" d="m53.626915 43.905323l-0.9375 0l0 -5.96875q-0.34375 0.328125 -0.890625 0.65625q-0.546875 0.3125 -0.984375 0.46875l0 -0.90625q0.796875 -0.359375 1.375 -0.890625q0.59375 -0.53125 0.828125 -1.015625l0.609375 0l0 7.65625z" fill-rule="nonzero"/><path fill="#d9d2e9" d="m379.49805 20.842485l37.543304 0l0 38.645668l-37.543304 0z" fill-rule="evenodd"/><path stroke="#000000" stroke-width="1.0" stroke-linejoin="round" stroke-linecap="butt" d="m379.49805 20.842485l37.543304 0l0 38.645668l-37.543304 0z" fill-rule="evenodd"/><path fill="#000000" d="m392.79633 41.889698l0.9375 -0.125q0.15625 0.796875 0.546875 1.15625q0.390625 0.34375 0.9375 0.34375q0.65625 0 1.109375 -0.453125q0.46875 -0.46875 0.46875 -1.140625q0 -0.640625 -0.421875 -1.0625q-0.421875 -0.421875 -1.078125 -0.421875q-0.265625 0 -0.65625 0.109375l0.109375 -0.828125q0.09375 0.015625 0.140625 0.015625q0.59375 0 1.078125 -0.3125q0.484375 -0.3125 0.484375 -0.96875q0 -0.515625 -0.359375 -0.84375q-0.34375 -0.34375 -0.890625 -0.34375q-0.546875 0 -0.921875 0.34375q-0.359375 0.34375 -0.453125 1.03125l-0.9375 -0.171875q0.171875 -0.9375 0.78125 -1.453125q0.609375 -0.515625 1.5 -0.515625q0.625 0 1.15625 0.265625q0.53125 0.265625 0.796875 0.734375q0.28125 0.453125 0.28125 0.984375q0 0.484375 -0.265625 0.890625q-0.265625 0.40625 -0.78125 0.65625q0.671875 0.15625 1.046875 0.65625q0.375 0.484375 0.375 1.21875q0 1.0 -0.734375 1.703125q-0.71875 0.6875 -1.828125 0.6875q-1.0 0 -1.671875 -0.59375q-0.65625 -0.609375 -0.75 -1.5625zm5.9265137 0l0.9375 -0.125q0.15625 0.796875 0.546875 1.15625q0.390625 0.34375 0.9375 0.34375q0.65625 0 1.109375 -0.453125q0.46875 -0.46875 0.46875 -1.140625q0 -0.640625 -0.421875 -1.0625q-0.421875 -0.421875 -1.078125 -0.421875q-0.265625 0 -0.65625 0.109375l0.109375 -0.828125q0.09375 0.015625 0.140625 0.015625q0.59375 0 1.078125 -0.3125q0.484375 -0.3125 0.484375 -0.96875q0 -0.515625 -0.359375 -0.84375q-0.34375 -0.34375 -0.890625 -0.34375q-0.546875 0 -0.921875 0.34375q-0.359375 0.34375 -0.453125 1.03125l-0.9375 -0.171875q0.171875 -0.9375 0.78125 -1.453125q0.609375 -0.515625 1.5 -0.515625q0.625 0 1.15625 0.265625q0.53125 0.265625 0.796875 0.734375q0.28125 0.453125 0.28125 0.984375q0 0.484375 -0.265625 0.890625q-0.265625 0.40625 -0.78125 0.65625q0.671875 0.15625 1.046875 0.65625q0.375 0.484375 0.375 1.21875q0 1.0 -0.734375 1.703125q-0.71875 0.6875 -1.828125 0.6875q-1.0 0 -1.671875 -0.59375q-0.65625 -0.609375 -0.75 -1.5625z" fill-rule="nonzero"/><path fill="#000000" fill-opacity="0.0" d="m153.90268 174.95378l0 21.061707" fill-rule="evenodd"/><path stroke="#000000" stroke-width="1.0" stroke-linejoin="round" stroke-linecap="butt" d="m153.90268 174.95378l0 21.061707" fill-rule="evenodd"/><path fill="#000000" fill-opacity="0.0" d="m153.90268 196.03807l412.19614 0" fill-rule="evenodd"/><path stroke="#000000" stroke-width="1.0" stroke-linejoin="round" stroke-linecap="butt" d="m153.90268 196.03807l412.19614 0" fill-rule="evenodd"/><path fill="#000000" fill-opacity="0.0" d="m359.995 224.0649l0 -28.029175" fill-rule="evenodd"/><path stroke="#000000" stroke-width="1.0" stroke-linejoin="round" stroke-linecap="butt" d="m359.995 220.63782l0 -24.602097" fill-rule="evenodd"/><path fill="#000000" stroke="#000000" stroke-width="1.0" stroke-linecap="butt" d="m359.995 220.63782l-1.1245728 -1.124588l1.1245728 3.0897675l1.1245728 -3.0897675z" fill-rule="evenodd"/><path fill="#000000" fill-opacity="0.0" d="m267.04773 159.52818l186.60904 0l0 37.146637l-186.60904 0z" fill-rule="evenodd"/><path fill="#000000" d="m333.64474 182.84256q-1.09375 0 -1.953125 -0.515625q-0.859375 -0.53125 -1.34375 -1.421875q-0.484375 -0.90625 -0.484375 -2.03125q0 -1.125 0.484375 -2.03125q0.484375 -0.921875 1.34375 -1.421875q0.859375 -0.515625 1.953125 -0.515625q1.21875 0 2.046875 0.5625q0.828125 0.5625 1.171875 1.5l-1.125 0.46875q-0.28125 -0.6875 -0.828125 -1.046875q-0.546875 -0.359375 -1.328125 -0.359375q-0.65625 0 -1.234375 0.359375q-0.5625 0.359375 -0.90625 1.0q-0.34375 0.640625 -0.34375 1.484375q0 0.828125 0.34375 1.484375q0.34375 0.640625 0.90625 1.0q0.578125 0.359375 1.234375 0.359375q0.796875 0 1.359375 -0.359375q0.578125 -0.375 0.859375 -1.046875l1.109375 0.46875q-0.375 0.921875 -1.21875 1.5q-0.84375 0.5625 -2.046875 0.5625zm7.991516 0q-1.109375 0 -1.984375 -0.53125q-0.875 -0.53125 -1.375 -1.4375q-0.484375 -0.90625 -0.484375 -2.0q0 -1.109375 0.484375 -2.015625q0.5 -0.90625 1.375 -1.421875q0.875 -0.53125 1.984375 -0.53125q1.09375 0 1.96875 0.53125q0.875 0.515625 1.359375 1.421875q0.5 0.90625 0.5 2.015625q0 1.09375 -0.5 2.0q-0.484375 0.90625 -1.359375 1.4375q-0.875 0.53125 -1.96875 0.53125zm0 -1.125q0.6875 0 1.28125 -0.34375q0.59375 -0.34375 0.953125 -0.984375q0.359375 -0.65625 0.359375 -1.515625q0 -0.875 -0.359375 -1.515625q-0.359375 -0.640625 -0.953125 -0.984375q-0.59375 -0.34375 -1.28125 -0.34375q-0.703125 0 -1.296875 0.34375q-0.59375 0.34375 -0.953125 0.984375q-0.359375 0.640625 -0.359375 1.515625q0 0.859375 0.359375 1.515625q0.359375 0.640625 0.953125 0.984375q0.59375 0.34375 1.296875 0.34375zm5.135376 -6.578125l1.1875 0l0 1.09375l0.0625 0q0.3125 -0.578125 0.953125 -0.953125q0.65625 -0.375 1.375 -0.375q0.8125 0 1.421875 0.390625q0.609375 0.390625 0.875 1.046875q0.40625 -0.65625 1.046875 -1.046875q0.65625 -0.390625 1.515625 -0.390625q1.296875 0 1.9375 0.78125q0.65625 0.78125 0.65625 2.125l0 4.796875l-1.21875 0l0 -4.609375q0 -1.03125 -0.4375 -1.5q-0.421875 -0.46875 -1.25 -0.46875q-0.5625 0 -1.015625 0.328125q-0.453125 0.3125 -0.71875 0.859375q-0.25 0.546875 -0.25 1.171875l0 4.21875l-1.25 0l0 -4.59375q0 -1.046875 -0.421875 -1.515625q-0.421875 -0.46875 -1.25 -0.46875q-0.546875 0 -1.0 0.328125q-0.453125 0.328125 -0.71875 0.875q-0.25 0.546875 -0.25 1.1875l0 4.1875l-1.25 0l0 -7.46875zm12.776428 0l1.1875 0l0 1.109375l0.0625 0q0.34375 -0.578125 1.015625 -0.953125q0.6875 -0.390625 1.53125 -0.390625q1.015625 0 1.828125 0.515625q0.8125 0.5 1.28125 1.421875q0.46875 0.90625 0.46875 2.03125q0 1.140625 -0.46875 2.046875q-0.46875 0.890625 -1.28125 1.40625q-0.8125 0.515625 -1.828125 0.515625q-0.84375 0 -1.53125 -0.390625q-0.671875 -0.390625 -1.015625 -0.9375l-0.0625 0l0.0625 1.015625l0 3.25l-1.25 0l0 -10.640625zm3.671875 6.578125q0.640625 0 1.203125 -0.34375q0.578125 -0.359375 0.90625 -1.0q0.34375 -0.65625 0.34375 -1.5q0 -0.859375 -0.34375 -1.5q-0.328125 -0.640625 -0.90625 -0.984375q-0.5625 -0.359375 -1.203125 -0.359375q-0.65625 0 -1.234375 0.359375q-0.5625 0.34375 -0.90625 0.984375q-0.34375 0.640625 -0.34375 1.5q0 0.84375 0.34375 1.5q0.34375 0.640625 0.90625 1.0q0.578125 0.34375 1.234375 0.34375zm8.608215 1.125q-1.109375 0 -1.984375 -0.53125q-0.875 -0.53125 -1.375 -1.4375q-0.484375 -0.90625 -0.484375 -2.0q0 -1.109375 0.484375 -2.015625q0.5 -0.90625 1.375 -1.421875q0.875 -0.53125 1.984375 -0.53125q1.09375 0 1.96875 0.53125q0.875 0.515625 1.359375 1.421875q0.5 0.90625 0.5 2.015625q0 1.09375 -0.5 2.0q-0.484375 0.90625 -1.359375 1.4375q-0.875 0.53125 -1.96875 0.53125zm0 -1.125q0.6875 0 1.28125 -0.34375q0.59375 -0.34375 0.953125 -0.984375q0.359375 -0.65625 0.359375 -1.515625q0 -0.875 -0.359375 -1.515625q-0.359375 -0.640625 -0.953125 -0.984375q-0.59375 -0.34375 -1.28125 -0.34375q-0.703125 0 -1.296875 0.34375q-0.59375 0.34375 -0.953125 0.984375q-0.359375 0.640625 -0.359375 1.515625q0 0.859375 0.359375 1.515625q0.359375 0.640625 0.953125 0.984375q0.59375 0.34375 1.296875 0.34375zm7.818054 1.125q-1.203125 0 -2.015625 -0.5625q-0.796875 -0.5625 -1.140625 -1.4375l1.125 -0.5q0.265625 0.671875 0.8125 1.046875q0.5625 0.359375 1.21875 0.359375q0.703125 0 1.203125 -0.28125q0.5 -0.296875 0.5 -0.828125q0 -0.46875 -0.40625 -0.75q-0.390625 -0.28125 -1.234375 -0.484375l-0.90625 -0.234375q-0.90625 -0.234375 -1.484375 -0.75q-0.5625 -0.53125 -0.5625 -1.375q0 -0.640625 0.390625 -1.125q0.390625 -0.5 1.03125 -0.75q0.65625 -0.265625 1.390625 -0.265625q0.984375 0 1.75 0.421875q0.78125 0.421875 1.09375 1.1875l-1.078125 0.5q-0.5 -1.0 -1.78125 -1.0q-0.609375 0 -1.078125 0.28125q-0.453125 0.28125 -0.453125 0.734375q0 0.40625 0.3125 0.671875q0.328125 0.25 0.96875 0.40625l1.09375 0.28125q1.09375 0.28125 1.65625 0.828125q0.5625 0.546875 0.5625 1.34375q0 0.6875 -0.40625 1.203125q-0.390625 0.515625 -1.0625 0.796875q-0.671875 0.28125 -1.5 0.28125zm7.724518 0q-1.0625 0 -1.921875 -0.515625q-0.84375 -0.515625 -1.328125 -1.40625q-0.46875 -0.90625 -0.46875 -2.03125q0 -1.078125 0.4375 -1.984375q0.453125 -0.921875 1.28125 -1.453125q0.828125 -0.546875 1.890625 -0.546875q1.109375 0 1.90625 0.484375q0.8125 0.484375 1.234375 1.359375q0.4375 0.859375 0.4375 1.96875q0 0.1875 -0.03125 0.390625l-5.921875 0q0.046875 0.84375 0.40625 1.4375q0.375 0.578125 0.9375 0.875q0.5625 0.296875 1.1875 0.296875q1.46875 0 2.203125 -1.359375l1.0625 0.515625q-0.46875 0.90625 -1.3125 1.4375q-0.828125 0.53125 -2.0 0.53125zm2.15625 -4.765625q-0.03125 -0.46875 -0.265625 -0.9375q-0.234375 -0.46875 -0.734375 -0.78125q-0.5 -0.328125 -1.265625 -0.328125q-0.875 0 -1.5 0.5625q-0.609375 0.5625 -0.796875 1.484375l4.5625 0z" fill-rule="nonzero"/><path fill="#000000" fill-opacity="0.0" d="m565.537 174.95378l0 21.061707" fill-rule="evenodd"/><path stroke="#000000" stroke-width="1.0" stroke-linejoin="round" stroke-linecap="butt" d="m565.537 174.95378l0 21.061707" fill-rule="evenodd"/><path fill="#c9daf8" d="m323.9367 224.06561l72.12598 0l0 38.64566l-72.12598 0z" fill-rule="evenodd"/><path stroke="#000000" stroke-width="1.0" stroke-linejoin="round" stroke-linecap="butt" d="m323.9367 224.06561l72.12598 0l0 38.64566l-72.12598 0z" fill-rule="evenodd"/><path fill="#000000" d="m350.70978 247.12845l1.0 -4.796875l-0.84375 0l0.15625 -0.734375l0.84375 0l0.15625 -0.78125q0.125 -0.59375 0.25 -0.84375q0.140625 -0.265625 0.4375 -0.4375q0.296875 -0.171875 0.8125 -0.171875q0.359375 0 1.046875 0.15625l-0.171875 0.828125q-0.484375 -0.125 -0.796875 -0.125q-0.28125 0 -0.421875 0.140625q-0.140625 0.125 -0.25 0.640625l-0.125 0.59375l1.046875 0l-0.140625 0.734375l-1.046875 0l-1.015625 4.796875l-0.9375 0zm4.1637573 -6.5625l0.234375 -1.0625l0.921875 0l-0.21875 1.0625l-0.9375 0zm-1.375 6.5625l1.15625 -5.53125l0.953125 0l-1.15625 5.53125l-0.953125 0zm2.4143677 0l1.15625 -5.53125l0.84375 0l-0.203125 0.96875q0.5625 -0.5625 1.046875 -0.828125q0.484375 -0.265625 0.984375 -0.265625q0.671875 0 1.046875 0.375q0.390625 0.359375 0.390625 0.96875q0 0.3125 -0.140625 0.96875l-0.703125 3.34375l-0.9375 0l0.734375 -3.5q0.109375 -0.515625 0.109375 -0.75q0 -0.28125 -0.1875 -0.453125q-0.1875 -0.171875 -0.546875 -0.171875q-0.734375 0 -1.296875 0.53125q-0.5625 0.515625 -0.828125 1.765625l-0.53125 2.578125l-0.9375 0zm9.645233 -0.6875q-0.484375 0.421875 -0.9375 0.625q-0.453125 0.1875 -0.96875 0.1875q-0.765625 0 -1.234375 -0.453125q-0.46875 -0.453125 -0.46875 -1.15625q0 -0.453125 0.203125 -0.8125q0.21875 -0.359375 0.5625 -0.5625q0.359375 -0.21875 0.859375 -0.3125q0.3125 -0.0625 1.203125 -0.09375q0.890625 -0.046875 1.265625 -0.203125q0.109375 -0.375 0.109375 -0.640625q0 -0.328125 -0.234375 -0.515625q-0.328125 -0.25 -0.953125 -0.25q-0.59375 0 -0.96875 0.265625q-0.375 0.25 -0.546875 0.734375l-0.953125 -0.078125q0.28125 -0.828125 0.90625 -1.265625q0.640625 -0.4375 1.609375 -0.4375q1.015625 0 1.625 0.5q0.453125 0.359375 0.453125 0.9375q0 0.453125 -0.125 1.03125l-0.3125 1.375q-0.140625 0.65625 -0.140625 1.0625q0 0.265625 0.109375 0.75l-0.953125 0q-0.078125 -0.265625 -0.109375 -0.6875zm0.34375 -2.109375q-0.1875 0.078125 -0.421875 0.125q-0.21875 0.03125 -0.75 0.078125q-0.828125 0.078125 -1.171875 0.1875q-0.328125 0.109375 -0.5 0.359375q-0.171875 0.234375 -0.171875 0.53125q0 0.40625 0.265625 0.65625q0.28125 0.25 0.78125 0.25q0.46875 0 0.890625 -0.234375q0.4375 -0.25 0.6875 -0.6875q0.25 -0.453125 0.390625 -1.265625zm1.7858887 2.796875l1.59375 -7.625l0.9375 0l-1.59375 7.625l-0.9375 0z" fill-rule="nonzero"/></g></svg>