<?xml version="1.0" encoding="UTF-8"?>
<svg width="252px" height="127px" viewBox="0 0 252 127" version="1.1" xmlns="http://www.w3.org/2000/svg" xmlns:xlink="http://www.w3.org/1999/xlink">
    <!-- Generator: Sketch 48.2 (47327) - http://www.bohemiancoding.com/sketch -->
    <title>DLP_img_2</title>
    <desc>Created with Sketch.</desc>
    <defs>
        <filter x="-2.4%" y="-2.4%" width="107.6%" height="109.4%" filterUnits="objectBoundingBox" id="filter-1">
            <feOffset dx="3" dy="5" in="SourceAlpha" result="shadowOffsetOuter1"></feOffset>
            <feColorMatrix values="0 0 0 0 0.710166879   0 0 0 0 0.710166879   0 0 0 0 0.710166879  0 0 0 1 0" type="matrix" in="shadowOffsetOuter1" result="shadowMatrixOuter1"></feColorMatrix>
            <feMerge>
                <feMergeNode in="shadowMatrixOuter1"></feMergeNode>
                <feMergeNode in="SourceGraphic"></feMergeNode>
            </feMerge>
        </filter>
        <path d="M67.1634666,9.2797601 C58.9882038,14.6022361 49.2280442,17.6947654 38.7455707,17.6947654 C23.5749759,17.6947654 9.91742854,11.217947 0.387187536,0.878713594 L67.1634666,0.878713594 L67.1634666,9.2797601 L67.1634666,9.2797601 Z" id="path-2"></path>
        <path d="M0.86656548,6.69272691 C8.29873586,2.61757833 16.8317425,0.300246075 25.9061005,0.300246075 C26.1066626,0.300246075 26.3069604,0.301378173 26.5069877,0.303636329 L26.5069877,22.0501112 L0.86656548,22.0501112 L0.86656548,6.69272691 L0.86656548,6.69272691 Z" id="path-4"></path>
        <path d="M0.0362468123,6.32668249 C4.92030482,2.58671593 11.0278626,0.364443426 17.6542717,0.364443426 C33.6720047,0.364443426 46.6586351,13.3510738 46.6586351,29.3707821 L46.6586351,31.5467451 L0.0362468123,31.5467451 L0.0362468123,6.32668249 L0.0362468123,6.32668249 Z" id="path-6"></path>
        <path d="M19.7066116,0.0864017352 C8.50971436,4.10518396 0.500739342,14.8150679 0.500739342,27.395479 L0.500739342,29.5663371 C0.500739342,35.9811071 3.21311307,40.3026067 6.40802781,44.721159 L19.7066116,44.721159 L19.7066116,0.0864017352 L19.7066116,0.0864017352 Z" id="path-8"></path>
        <path d="M19.8649809,10.8721907 C12.708744,8.89185266 6.17032759,5.42446967 0.603223806,0.82355327 L19.8649809,0.82355327 L19.8649809,10.8721907 L19.8649809,10.8721907 Z" id="path-10"></path>
        <path d="M0.479702363,22.2377169 C3.25537786,24.6672365 8.85457614,26.8680731 20.0987093,26.8680731 C20.0987093,26.8680731 17.851802,20.4285849 17.851802,13.6888506 C17.851802,9.392749 20.3372219,7.34862821 23.6332179,5.50197686 L23.6332179,0.811355758 L0.479702363,0.811355758 L0.479702363,22.2377169 L0.479702363,22.2377169 Z" id="path-12"></path>
        <filter x="-2.4%" y="-2.4%" width="107.8%" height="109.6%" filterUnits="objectBoundingBox" id="filter-14">
            <feOffset dx="3" dy="5" in="SourceAlpha" result="shadowOffsetOuter1"></feOffset>
            <feColorMatrix values="0 0 0 0 0.709803922   0 0 0 0 0.709803922   0 0 0 0 0.709803922  0 0 0 1 0" type="matrix" in="shadowOffsetOuter1" result="shadowMatrixOuter1"></feColorMatrix>
            <feMerge>
                <feMergeNode in="shadowMatrixOuter1"></feMergeNode>
                <feMergeNode in="SourceGraphic"></feMergeNode>
            </feMerge>
        </filter>
        <path d="M26.8435738,19.2182371 C17.2054747,19.2182371 8.18654071,16.5603069 0.47637711,11.9357155 L0.47637711,0.528728523 L66.4704476,0.528728523 C57.0369375,11.9454562 42.7876602,19.2182371 26.8435738,19.2182371 Z" id="path-15"></path>
        <path d="M0.627505791,0.195587026 C11.5998121,3.8434715 19.5156931,14.2136924 19.5156931,26.4363039 L19.5156931,28.5051641 C19.5156931,41.9394461 8.45573932,45.7375249 6.31922158,62.0615058 L0.627505791,62.0615058 L0.627505791,0.195587026 L0.627505791,0.195587026 Z" id="path-17"></path>
        <path d="M27.8841808,18.0509378 C21.2099564,21.8421056 12.4900213,21.4924316 12.4900213,21.4924316 C13.1659428,10.9148496 11.0984753,6.5944705 5.94675305,5.29174947 C3.90755783,4.77664166 2.17698627,4.07106629 0.709156332,3.18099081 L0.709156332,0.124848208 L27.8841808,0.124848208 L27.8841808,18.0509378 L27.8841808,18.0509378 Z" id="path-19"></path>
        <filter x="-4.9%" y="-3.4%" width="114.6%" height="113.6%" filterUnits="objectBoundingBox" id="filter-21">
            <feOffset dx="2" dy="4" in="SourceAlpha" result="shadowOffsetOuter1"></feOffset>
            <feColorMatrix values="0 0 0 0 0.709803922   0 0 0 0 0.709803922   0 0 0 0 0.709803922  0 0 0 1 0" type="matrix" in="shadowOffsetOuter1" result="shadowMatrixOuter1"></feColorMatrix>
            <feMerge>
                <feMergeNode in="shadowMatrixOuter1"></feMergeNode>
                <feMergeNode in="SourceGraphic"></feMergeNode>
            </feMerge>
        </filter>
        <polygon id="path-22" points="0.0330492552 0.269304662 25.2128403 0.269304662 25.2128403 35.7257772 0.0330492552 35.7257772 0.0330492552 0.269304662"></polygon>
        <polygon id="path-24" points="40.2390271 0.293078301 40.2390271 38.5834465 20.1195525 38.5834465 7.79463571e-05 38.5834465 7.79463571e-05 0.293078301 40.2390271 0.293078301"></polygon>
        <filter x="-4.9%" y="-3.4%" width="114.6%" height="113.6%" filterUnits="objectBoundingBox" id="filter-26">
            <feOffset dx="2" dy="4" in="SourceAlpha" result="shadowOffsetOuter1"></feOffset>
            <feColorMatrix values="0 0 0 0 0.709803922   0 0 0 0 0.709803922   0 0 0 0 0.709803922  0 0 0 1 0" type="matrix" in="shadowOffsetOuter1" result="shadowMatrixOuter1"></feColorMatrix>
            <feMerge>
                <feMergeNode in="shadowMatrixOuter1"></feMergeNode>
                <feMergeNode in="SourceGraphic"></feMergeNode>
            </feMerge>
        </filter>
        <polygon id="path-27" points="0.0330492552 0.269304662 25.2128403 0.269304662 25.2128403 35.7257772 0.0330492552 35.7257772 0.0330492552 0.269304662"></polygon>
        <polygon id="path-29" points="40.2390271 0.293078301 40.2390271 38.5834465 20.1195525 38.5834465 7.79463571e-05 38.5834465 7.79463571e-05 0.293078301 40.2390271 0.293078301"></polygon>
    </defs>
    <g id="data-loss-prevention-API" stroke="none" stroke-width="1" fill="none" fill-rule="evenodd" transform="translate(-976.000000, -538.000000)">
        <g id="DLP_img_2" transform="translate(976.000000, 538.000000)">
            <g id="Page-1" filter="url(#filter-1)" transform="translate(143.000000, 0.000000)">
                <path d="M104.726127,52.5902728 C104.726127,81.3941429 81.3760689,104.744201 52.5721988,104.744201 C23.7683286,104.744201 0.418270436,81.3941429 0.418270436,52.5902728 C0.418270436,23.7864027 23.7683286,0.43634446 52.5721988,0.43634446 C81.3760689,0.43634446 104.726127,23.7864027 104.726127,52.5902728" id="Fill-1" fill="#EBEFF1"></path>
                <g id="Group-11" transform="translate(13.827122, 0.136296)">
                    <g id="Group-5" transform="translate(0.000000, 86.913337)">
                        <mask id="mask-3" fill="white">
                            <use xlink:href="#path-2"></use>
                        </mask>
                        <g id="Clip-4"></g>
                        <path d="M-4.128186,109.1273 C-4.128186,109.1273 14.4554658,103.997438 32.9265253,109.1273 C52.9936297,114.701605 67.1634666,109.1273 67.1634666,109.1273 C63.5694026,93.5836397 55.3768329,76.8389952 55.3768329,55.1106608 C55.3768329,41.9146483 68.0671678,32.5833164 60.7822499,18.8519967 C52.9946173,4.17549451 49.1566034,0.878713594 34.7240511,0.878713594 C12.8584332,0.878713594 4.09006265,5.38734297 3.72166861,17.3478034 C3.27426246,31.8830714 11.9458432,33.9482508 11.064858,54.9941179 C10.1957246,75.7436896 -1.35189746,92.6848768 -4.128186,109.1273" id="Fill-3" fill="#DCE1E4" mask="url(#mask-3)"></path>
                    </g>
                    <path d="M38.3953495,13.2036174 C54.4130825,13.2036174 67.3997129,26.1902478 67.3997129,42.2099561 L67.3997129,52.3472118 C67.3997129,79.135285 45.5064407,72.0488851 45.5064407,84.8004544 C45.5064407,91.539201 47.753348,97.9786892 47.753348,97.9786892 C26.7529129,97.9786892 25.4432869,90.3026612 25.4432869,87.7960016 C25.4432869,60.2395354 9.38999845,61.2884213 9.38999845,44.3808143 L9.38999845,42.2099561 C9.38999845,26.1902478 22.3756412,13.2036174 38.3953495,13.2036174" id="Fill-6" fill="#FAFAFA"></path>
                    <g id="Group-10" transform="translate(12.839470, 0.000000)">
                        <mask id="mask-5" fill="white">
                            <use xlink:href="#path-4"></use>
                        </mask>
                        <g id="Clip-9"></g>
                        <path d="M0.86656548,9.22841866 C0.86656548,16.3118557 6.6058087,22.0501112 13.688258,22.0501112 C20.7667568,22.0501112 26.5069877,16.3118557 26.5069877,9.22841866 C26.5069877,2.14893227 20.7667568,-3.59031096 13.688258,-3.59031096 C6.6058087,-3.59031096 0.86656548,2.14893227 0.86656548,9.22841866" id="Fill-8" fill="#8FA2AD" mask="url(#mask-5)"></path>
                    </g>
                </g>
                <g id="Group-18" transform="translate(22.715986, 12.975766)">
                    <g id="Group-14" transform="translate(11.851819, 0.000000)">
                        <mask id="mask-7" fill="white">
                            <use xlink:href="#path-6"></use>
                        </mask>
                        <g id="Clip-13"></g>
                        <path d="M0.0362468123,2.80176995 C0.0362468123,18.6071579 12.8490505,31.4209492 28.6564138,31.4209492 C44.460814,31.4209492 72.4548099,33.78835 72.4548099,17.9829621 C72.4548099,2.17757416 44.460814,-25.815434 28.6564138,-25.815434 C12.8490505,-25.815434 0.0362468123,-13.003618 0.0362468123,2.80176995" id="Fill-12" fill="#8FA2AD" mask="url(#mask-7)"></path>
                    </g>
                    <g id="Group-17" transform="translate(0.000000, 1.975303)">
                        <mask id="mask-9" fill="white">
                            <use xlink:href="#path-8"></use>
                        </mask>
                        <g id="Clip-16"></g>
                        <path d="M-37.5307593,16.1019797 C-37.5307593,31.9073676 -24.7179556,44.721159 -8.91059239,44.721159 C6.8938079,44.721159 19.7066116,31.9073676 19.7066116,16.1019797 C19.7066116,0.296591764 6.8938079,-12.5152243 -8.91059239,-12.5152243 C-24.7179556,-12.5152243 -37.5307593,0.296591764 -37.5307593,16.1019797" id="Fill-15" fill="#8FA2AD" mask="url(#mask-9)"></path>
                    </g>
                </g>
                <g id="Group-30" transform="translate(18.765380, 48.531222)">
                    <path d="M4.74704846,6.55296934 C4.74704846,3.14458381 7.50753458,0.382122389 10.9159201,0.382122389 C14.3243057,0.382122389 17.0867671,3.14458381 17.0867671,6.55296934 C17.0867671,9.95937958 18.0339249,22.268481 16.30751,19.3331805 C11.814683,11.6946834 4.74704846,13.7924553 4.74704846,6.55296934" id="Fill-19" fill="#FAFAFA"></path>
                    <g id="Group-25" transform="translate(0.000000, 43.456669)">
                        <mask id="mask-11" fill="white">
                            <use xlink:href="#path-10"></use>
                        </mask>
                        <g id="Clip-24"></g>
                    </g>
                </g>
                <g id="Group-33" transform="translate(41.481366, 71.247208)">
                    <mask id="mask-13" fill="white">
                        <use xlink:href="#path-12"></use>
                    </mask>
                    <g id="Clip-32"></g>
                </g>
            </g>
            <g id="Page-1" filter="url(#filter-14)" transform="translate(0.000000, 1.000000)">
                <path d="M103,51.5 C103,79.9427148 79.9427148,103 51.5,103 C23.0572852,103 0,79.9427148 0,51.5 C0,23.0572852 23.0572852,0 51.5,0 C79.9427148,0 103,23.0572852 103,51.5" id="Fill-1" fill="#EBEFF1"></path>
                <g id="Group-20" transform="translate(24.000000, 10.000000)">
                    <g id="Group-11" transform="translate(0.499807, 73.225350)">
                        <mask id="mask-16" fill="white">
                            <use xlink:href="#path-15"></use>
                        </mask>
                        <g id="Clip-10"></g>
                        <path d="M72.0271074,114.297448 C72.0271074,114.297448 61.1356015,50.2106222 64.9358926,19.72935 C66.9149269,3.85702324 41.344285,-1.69833994 25.999952,1.31366277 C6.21350527,5.19753531 4.01144009,12.0973159 4.01144009,26.8976236 C4.01144009,48.7295174 0.314385953,114.234962 0.481902631,114.297448 C24.1446074,123.218248 45.6597874,113.828806 72.0271074,114.297448 Z" id="Fill-9" fill="#8FA2AD" mask="url(#mask-16)"></path>
                    </g>
                    <path d="M2.85526657,29.1708313 L2.85526657,39.7601932 C2.85526657,54.387689 4.25967966,63.7742025 16.2195914,66.7491044 C21.4018951,68.0378705 23.4802707,72.3142309 22.8014385,82.7874086 C22.8014385,82.7874086 39.4956443,86.0703999 44.4471257,75.7114537 C44.811377,74.9489338 44.4471257,73.1445039 44.4471257,70.7544285 C44.4471257,49.4399938 57.9984458,45.3292251 57.9984458,30.4576448 L57.9984458,28.3887846 C57.9984458,12.6814589 44.9253273,0.0320238862 29.0920794,0.780875127 C14.2629576,1.48188581 2.85526657,14.2885113 2.85526657,29.1708313 Z" id="Fill-18" fill="#DCE1E4"></path>
                </g>
                <g id="Group-23" transform="translate(62.000000, 12.000000)">
                    <mask id="mask-18" fill="white">
                        <use xlink:href="#path-17"></use>
                    </mask>
                    <g id="Clip-22"></g>
                    <path d="M63.5718978,25.615106 C63.5718978,40.6770722 54.069222,65.4418854 39.5186454,61.6771261 C16.9068156,55.8288615 4.78133506,53.6848233 4.78133506,44.8372484 C4.78133506,31.135321 0.627505791,31.9720426 0.627505791,25.3358733 C0.627505791,16.9872071 10.3347077,10.0151775 10.3347077,10.0151775 C15.1712649,2.45246341 24.0136133,-17.2383213 33.6390048,-17.2383213 C48.6638873,-17.2383213 63.5718978,10.5531397 63.5718978,25.615106" id="Fill-21" fill="#FAFAFA" mask="url(#mask-18)"></path>
                </g>
                <g id="Group-30" transform="translate(20.000000, 10.000000)">
                    <path d="M51.8123244,16.1068432 C51.8123244,16.1068432 27.4688396,28.501454 8.29694527,20.5804238 C-4.53561147,15.2789085 1.67711466,3.45643177 1.67711466,3.45643177 C13.0643531,11.2573723 38.7596585,-13.4849851 56.4852605,12.5393041 C62.6259155,21.5567618 52.0256159,20.6019033 51.8123244,16.1068432" id="Fill-24" fill="#FAFAFA"></path>
                    <path d="M55.8964199,36.1303638 C52.7243163,36.2953649 50.3440212,39.1492009 50.3440212,42.3340154 L50.3440212,43.0789613 L44.5656697,43.0789613 L48.2023399,63.8437177 C48.2023399,63.8437177 49.0584281,57.2065721 51.0851851,54.1809006 C54.903981,48.4810394 62.0740844,48.9008648 62.0740844,42.0020605 C62.0740844,38.6502922 59.2788933,35.9536466 55.8964199,36.1303638" id="Fill-26" fill="#DCE1E4"></path>
                </g>
                <g id="Group-33" transform="translate(34.000000, 72.000000)">
                    <mask id="mask-20" fill="white">
                        <use xlink:href="#path-19"></use>
                    </mask>
                    <g id="Clip-32"></g>
                </g>
            </g>
            <g id="Page-1-Copy" filter="url(#filter-21)" transform="translate(64.000000, 65.000000)">
                <g id="Group-3" transform="translate(7.404904, 0.120427)">
                    <mask id="mask-23" fill="white">
                        <use xlink:href="#path-22"></use>
                    </mask>
                    <g id="Clip-2"></g>
                    <path d="M12.6229448,4.70390673 C8.12621946,4.70390673 4.46780721,8.36231898 4.46780721,12.8590443 L4.46780721,23.1362714 C4.46780721,27.632607 8.12621946,31.2910192 12.6229448,31.2910192 C17.1196701,31.2910192 20.7780823,27.632607 20.7780823,23.1362714 L20.7780823,12.8590443 C20.7780823,8.36231898 17.1196701,4.70390673 12.6229448,4.70390673 M12.6229448,35.7257772 C5.68104225,35.7257772 0.0330492552,30.0781739 0.0330492552,23.1362714 L0.0330492552,12.8590443 C0.0330492552,5.91675204 5.68104225,0.269148769 12.6229448,0.269148769 C19.5648473,0.269148769 25.2128403,5.91675204 25.2128403,12.8590443 L25.2128403,23.1362714 C25.2128403,30.0781739 19.5648473,35.7257772 12.6229448,35.7257772" id="Fill-1" fill="#84CD33" mask="url(#mask-23)"></path>
                </g>
                <g id="Group-10" transform="translate(0.000000, 19.217284)">
                    <mask id="mask-25" fill="white">
                        <use xlink:href="#path-24"></use>
                    </mask>
                    <g id="Clip-9"></g>
                    <path d="M37.2927328,38.5834465 L2.94645023,38.5834465 C1.3189303,38.5834465 7.79463571e-05,37.2642044 7.79463571e-05,35.6370742 L7.79463571e-05,3.23945058 C7.79463571e-05,1.61232039 1.3189303,0.293078301 2.94645023,0.293078301 L37.2927328,0.293078301 C38.919863,0.293078301 40.2391051,1.61232039 40.2391051,3.23945058 L40.2391051,35.6370742 C40.2391051,37.2642044 38.919863,38.5834465 37.2927328,38.5834465" id="Fill-8" fill="#84CD33" mask="url(#mask-25)"></path>
                </g>
                <path d="M23.566964,36.2586964 C23.566964,38.1789049 22.0103753,39.7351039 20.0905565,39.7351039 C18.170348,39.7351039 16.6137593,38.1789049 16.6137593,36.2586964 C16.6137593,34.3384879 18.170348,32.7822889 20.0905565,32.7822889 C22.0103753,32.7822889 23.566964,34.3384879 23.566964,36.2586964" id="Fill-11" fill="#FAFAFA"></path>
                <polygon id="Fill-13" fill="#FAFAFA" points="22.3644076 47.5661795 17.8528725 47.5661795 18.5972602 36.1805552 21.6200199 36.1805552"></polygon>
            </g>
            <g id="Page-1-Copy-2" filter="url(#filter-26)" transform="translate(209.000000, 65.000000)">
                <g id="Group-3" transform="translate(7.404904, 0.120427)">
                    <mask id="mask-28" fill="white">
                        <use xlink:href="#path-27"></use>
                    </mask>
                    <g id="Clip-2"></g>
                    <path d="M12.6229448,4.70390673 C8.12621946,4.70390673 4.46780721,8.36231898 4.46780721,12.8590443 L4.46780721,23.1362714 C4.46780721,27.632607 8.12621946,31.2910192 12.6229448,31.2910192 C17.1196701,31.2910192 20.7780823,27.632607 20.7780823,23.1362714 L20.7780823,12.8590443 C20.7780823,8.36231898 17.1196701,4.70390673 12.6229448,4.70390673 M12.6229448,35.7257772 C5.68104225,35.7257772 0.0330492552,30.0781739 0.0330492552,23.1362714 L0.0330492552,12.8590443 C0.0330492552,5.91675204 5.68104225,0.269148769 12.6229448,0.269148769 C19.5648473,0.269148769 25.2128403,5.91675204 25.2128403,12.8590443 L25.2128403,23.1362714 C25.2128403,30.0781739 19.5648473,35.7257772 12.6229448,35.7257772" id="Fill-1" fill="#84CD33" mask="url(#mask-28)"></path>
                </g>
                <g id="Group-10" transform="translate(0.000000, 19.217284)">
                    <mask id="mask-30" fill="white">
                        <use xlink:href="#path-29"></use>
                    </mask>
                    <g id="Clip-9"></g>
                    <path d="M37.2927328,38.5834465 L2.94645023,38.5834465 C1.3189303,38.5834465 7.79463571e-05,37.2642044 7.79463571e-05,35.6370742 L7.79463571e-05,3.23945058 C7.79463571e-05,1.61232039 1.3189303,0.293078301 2.94645023,0.293078301 L37.2927328,0.293078301 C38.919863,0.293078301 40.2391051,1.61232039 40.2391051,3.23945058 L40.2391051,35.6370742 C40.2391051,37.2642044 38.919863,38.5834465 37.2927328,38.5834465" id="Fill-8" fill="#84CD33" mask="url(#mask-30)"></path>
                </g>
                <path d="M23.566964,36.2586964 C23.566964,38.1789049 22.0103753,39.7351039 20.0905565,39.7351039 C18.170348,39.7351039 16.6137593,38.1789049 16.6137593,36.2586964 C16.6137593,34.3384879 18.170348,32.7822889 20.0905565,32.7822889 C22.0103753,32.7822889 23.566964,34.3384879 23.566964,36.2586964" id="Fill-11" fill="#FAFAFA"></path>
                <polygon id="Fill-13" fill="#FAFAFA" points="22.3644076 47.5661795 17.8528725 47.5661795 18.5972602 36.1805552 21.6200199 36.1805552"></polygon>
            </g>
        </g>
    </g>
</svg>