<svg id="Layer_1" xmlns="http://www.w3.org/2000/svg" xmlns:xlink="http://www.w3.org/1999/xlink" viewBox="0 0 1024 1024"><style>.st0{fill:#bedbe5}.st1{fill:none;stroke:#f5fcff;stroke-width:3;stroke-miterlimit:10}.st2{fill:#e8f0f4}.st5{fill:#cee5f2}.st6{fill:#a8a8a8}.st7{fill:#4285f4}.st8{fill:#f9d84b}.st9{fill:#ff6f4d}.st10{enable-background:new}.st12{fill:#fff}.st15{fill:#cae3f1}.st16{fill:#f5fcff}.st17{fill:#95bfd1}.st24{fill:#ed5526}.st29{fill-rule:evenodd;clip-rule:evenodd;fill:#f2f2f2}.st31{fill:#ccc}.st31,.st44,.st46{fill-rule:evenodd;clip-rule:evenodd}.st44{fill:#e0e3e4}.st46{fill:#f1f6f8}.st48{fill:#e8e9f4}.st49{fill:#8f9192}.st50{fill:#aba9b8}.st53{fill:#edeef4}.st63{fill:#8c8c8c}.st71{fill:#ccc}.st72{fill:#e0e0e0}.st73{fill:#e7e8eb}.st74{fill:#b3b3b3}.st75{fill:#dddee1}.st76,.st77{fill:none;stroke:#dddee1;stroke-miterlimit:10}.st77{stroke:#f3f4f6}.st78{fill:#d2d3d6}.st79{fill:#f3f4f6}.st85{fill-rule:evenodd;clip-rule:evenodd;opacity:.14}.st86{fill:#fff}.st103,.st86,.st87{fill-rule:evenodd;clip-rule:evenodd}.st87{opacity:8.070000e-02}.st103{fill:#eceff1}.st115{fill:#d8dbdd}.st116{fill:#b23b1b}</style><path class="st0" d="M842.6 297.6l-.1 20.3c0 8.8-5.8 17.6-17.4 24.3-23.3 13.5-61.2 13.5-84.7 0-11.8-6.8-17.7-15.8-17.7-24.7l.1-20.3c0 8.9 5.9 17.9 17.7 24.7 23.5 13.5 61.4 13.5 84.7 0 11.6-6.7 17.4-15.5 17.4-24.3z"/><path class="st1" d="M824.9 272.9c-23.5-13.5-61.4-13.5-84.7 0-23.3 13.5-23.2 35.5.3 49s61.4 13.5 84.7 0 23.2-35.5-.3-49"/><path class="st0" d="M842.6 277.3l-.1 20.3c0 8.8-5.8 17.6-17.4 24.3-23.3 13.5-61.2 13.5-84.7 0-11.8-6.8-17.7-15.8-17.7-24.7l.1-20.3c0 8.9 5.9 17.9 17.7 24.7 23.5 13.5 61.4 13.5 84.7 0 11.6-6.7 17.4-15.5 17.4-24.3z"/><path class="st1" d="M824.9 252.6c-23.5-13.5-61.4-13.5-84.7 0-23.3 13.5-23.2 35.5.3 49s61.4 13.5 84.7 0c23.3-13.5 23.2-35.5-.3-49"/><path class="st0" d="M842.6 257l-.1 20.3c0 8.8-5.8 17.6-17.4 24.3-23.3 13.5-61.2 13.5-84.7 0-11.8-6.8-17.7-15.8-17.7-24.7l.1-20.3c0 8.9 5.9 17.9 17.7 24.7 23.5 13.5 61.4 13.5 84.7 0 11.6-6.7 17.4-15.5 17.4-24.3z"/><path class="st1" d="M824.9 232.3c-23.5-13.5-61.4-13.5-84.7 0s-23.2 35.5.3 49 61.4 13.5 84.7 0 23.2-35.5-.3-49"/><path class="st0" d="M842.6 236.7l-.1 20.3c0 8.8-5.8 17.6-17.4 24.3-23.3 13.5-61.2 13.5-84.7 0-11.8-6.8-17.7-15.8-17.7-24.7l.1-20.3c0 8.9 5.9 17.9 17.7 24.7 23.5 13.5 61.4 13.5 84.7 0 11.6-6.7 17.4-15.5 17.4-24.3z"/><path class="st2" d="M824.9 212c-23.5-13.5-61.4-13.5-84.7 0-23.3 13.5-23.2 35.5.3 49s61.4 13.5 84.7 0c23.3-13.5 23.2-35.5-.3-49"/><path d="M745.9 289.8c-5.9-3.4-10.7-.7-10.7 6.1s4.7 15 10.6 18.4c5.9 3.4 10.7.7 10.7-6.1.1-6.7-4.7-15-10.6-18.4" fill="#769299"/><path d="M741.9 290.4c-2.5 0-2.9 2.9-2.9 4.6 0 5.7 4.2 12.9 9.1 15.8 1.2.7 2.3 1.1 3.3 1.1 2.5 0 2.9-2.9 2.9-4.6 0-5.7-4.2-12.9-9.1-15.8-1.2-.8-2.3-1.1-3.3-1.1z" fill="#4c4c4c"/><path class="st5" d="M483 281.3c0-11.6 8.3-25.9 18.3-31.8 2-1.1 3.9-1.9 5.6-2.2 3.6-14.5 13.8-29.5 25.7-36.4 7.3-4.2 13.9-4.7 18.8-2l.2.1c.2.1.4.2.5.3l7.2 4.2c1.4-1.2 2.9-2.2 4.4-3.1 5.3-3 10-3.4 13.6-1.5l.1.1c.1.1.2.1.4.2l9.5 5.9-4.4 1.6c.4 1.5.6 3.2.6 5.1 0 12.5-8.8 27.8-19.7 34.1-.3.2-.6.3-.8.5l-61.2 35.4c-.1.1-.3.2-.4.2-.1.1-.3.1-.4.2l-.2.1c-.1.1-.3.1-.4.2l-3.8 5.8-8.2-5.1c-.1 0-.1-.1-.2-.1-3.2-2.1-5.2-6.2-5.2-11.8z"/><path class="st2" d="M509.2 254.4c2-1.1 3.9-1.9 5.6-2.2 3.6-14.5 13.8-29.5 25.7-36.4 11-6.4 20.5-4.2 24.7 4.3 2-1.9 4.1-3.6 6.3-4.9 10.8-6.2 19.7-1.1 19.7 11.4s-8.8 27.8-19.7 34.1c-.3.2-.6.3-.8.5l-61.2 35.4c-.1.1-.3.2-.4.2-.1.1-.3.1-.4.2l-.2.1c-9.8 5.3-17.7.5-17.7-10.9 0-11.7 8.3-26 18.4-31.8z"/><circle class="st6" cx="575.8" cy="749.9" r="2"/><path class="st7" d="M575.8 742.9c-1.1 0-2-.9-2-2v-24c0-1.1.9-2 2-2s2 .9 2 2v24c0 1.1-1 2-2 2z"/><circle class="st7" cx="575.8" cy="707.9" r="2"/><path class="st8" d="M575.8 697.9c-1.1 0-2-.9-2-2v-21c0-1.1.9-2 2-2s2 .9 2 2v21c0 1.1-1 2-2 2z"/><circle class="st8" cx="575.8" cy="665.9" r="2"/><path class="st9" d="M575.8 655.9c-1.1 0-2-.9-2-2v-21c0-1.1.9-2 2-2s2 .9 2 2v21c0 1.1-1 2-2 2z"/><circle class="st9" cx="575.8" cy="623.9" r="2"/><path class="st7" d="M575.8 613.9c-1.1 0-2-.9-2-2v-21c0-1.1.9-2 2-2s2 .9 2 2v21c0 1.1-1 2-2 2z"/><circle class="st7" cx="575.8" cy="581.9" r="2"/><path class="st8" d="M575.8 571.9c-1.1 0-2-.9-2-2v-21c0-1.1.9-2 2-2s2 .9 2 2v21c0 1.1-1 2-2 2z"/><circle class="st8" cx="575.8" cy="539.9" r="2"/><path class="st9" d="M575.8 529.9c-1.1 0-2-.9-2-2v-21c0-1.1.9-2 2-2s2 .9 2 2v21c0 1.1-1 2-2 2z"/><circle class="st9" cx="575.8" cy="497.9" r="2"/><path class="st6" d="M575.8 487.9c-1.1 0-2-.9-2-2v-21c0-1.1.9-2 2-2s2 .9 2 2v21c0 1.1-1 2-2 2z"/><path class="st8" d="M599.9 778.1h-.2c-.4 0-.7-.1-1.1-.1-1.1-.2-1.9-1.2-1.7-2.3.2-1.1 1.2-1.8 2.3-1.7.3 0 .6.1.9.1 1.1.1 1.9 1.1 1.8 2.2-.1 1-1 1.8-2 1.8zm9-.6c-.9 0-1.7-.6-1.9-1.5-.3-1.1.4-2.2 1.5-2.4 2.5-.6 4.8-1.6 7.1-2.9l3.2-1.9c.1-.1.3-.2.5-.2.1-.1.2-.2.4-.3l7.7-4.6c.9-.6 2.2-.3 2.7.7.6.9.3 2.2-.7 2.7l-7.7 4.6c-.1.1-.3.2-.5.2-.1.1-.2.2-.4.3l-3.2 1.9c-2.6 1.5-5.4 2.7-8.2 3.4h-.5zm-21.1-3.8c-.4 0-.8-.1-1.1-.3-2.7-1.8-5.1-4-7-6.5-.1-.1-.2-.3-.3-.5-.1-.1-.3-.2-.4-.4-2.5-3.5-4.2-7.5-4.9-11.8-.2-1.1.6-2.1 1.6-2.3 1.1-.2 2.1.6 2.3 1.6.6 3.7 2 7.1 4.2 10.2.1.1.2.3.2.4l.3.3c1.7 2.2 3.7 4.1 6.1 5.6.9.6 1.2 1.8.6 2.8-.3.6-.9.9-1.6.9zm50.8-12.5c-.7 0-1.3-.3-1.7-1-.6-.9-.3-2.2.7-2.7l.9-.5c.9-.6 2.2-.3 2.7.7.6.9.3 2.2-.7 2.7l-.9.5c-.3.2-.7.3-1 .3zm8.6-5.1c-.7 0-1.3-.3-1.7-1-.6-.9-.3-2.2.7-2.7l10.3-6.2c.1-.1.3-.2.5-.2.1-.1.2-.2.4-.3l7.7-4.6c.9-.6 2.2-.3 2.7.7.6.9.3 2.2-.7 2.7l-7.7 4.6c-.1.1-.3.2-.5.2-.1.1-.2.2-.4.3l-10.3 6.2c-.3.2-.7.3-1 .3zm29.1-17.5c-.7 0-1.3-.3-1.7-1-.6-.9-.3-2.2.7-2.7l.9-.5c1-.6 2.2-.3 2.7.7.6.9.3 2.2-.7 2.7l-.9.5c-.3.2-.6.3-1 .3zm8.6-5.1c-.7 0-1.3-.3-1.7-1-.6-.9-.3-2.2.7-2.7l10.3-6.2c.1-.1.3-.2.5-.2.1-.1.2-.2.4-.3l7.7-4.6c.9-.6 2.2-.3 2.7.7.6.9.3 2.2-.7 2.7l-7.7 4.6c-.1.1-.3.2-.5.2-.1.1-.2.2-.4.3l-10.3 6.2c-.3.2-.6.3-1 .3zm29.2-17.5c-.7 0-1.3-.3-1.7-1-.6-.9-.3-2.2.7-2.7l.9-.5c1-.6 2.2-.3 2.7.7.6.9.3 2.2-.7 2.7l-.9.5c-.3.2-.6.3-1 .3zm8.6-5.1c-.7 0-1.3-.3-1.7-1-.6-.9-.3-2.2.7-2.7L732 701c.1-.1.3-.2.5-.2.1-.1.2-.2.4-.3l7.7-4.6c.9-.6 2.2-.3 2.7.7.6.9.3 2.2-.7 2.7l-7.7 4.6c-.1.1-.3.2-.5.2-.1.1-.2.2-.4.3l-10.3 6.2c-.3.2-.7.3-1 .3zm29.2-17.4c-.7 0-1.3-.3-1.7-1-.6-.9-.3-2.2.7-2.7l.9-.5c1-.6 2.2-.3 2.7.7.6.9.3 2.2-.7 2.7l-.9.5c-.3.2-.7.3-1 .3zm8.6-5.2c-.7 0-1.3-.3-1.7-1-.6-.9-.3-2.2.7-2.7l10.3-6.2c.1-.1.3-.2.5-.2.1-.1.2-.2.4-.3l7.7-4.6c.9-.6 2.2-.3 2.7.7.6.9.3 2.2-.7 2.7l-7.7 4.6c-.1.1-.3.2-.5.2-.1.1-.2.2-.4.3l-10.3 6.2c-.3.2-.7.3-1 .3zm29.1-17.4c-.7 0-1.3-.3-1.7-1-.6-.9-.3-2.2.7-2.7l.9-.5c1-.6 2.2-.3 2.7.7.6.9.3 2.2-.7 2.7l-.9.5c-.3.2-.6.3-1 .3zm8.6-5.2c-.7 0-1.3-.3-1.7-1-.6-.9-.3-2.2.7-2.7l10.3-6.2c.9-.6 2.2-.3 2.7.7.6.9.3 2.2-.7 2.7l-10.3 6.2c-.3.3-.6.3-1 .3z"/><g id="XMLID_118_"><g class="st10" id="XMLID_121_"><defs><path id="SVGID_1_" class="st10" d="M377.6 314.3l-.1-26.9 23.4-13.6.1 27z"/></defs><clipPath id="SVGID_2_"><use xlink:href="#SVGID_1_" overflow="visible"/></clipPath><g clip-path="url(#SVGID_2_)"><path class="st12" d="M389.2 283c-5.3 3.1-9.6 10.5-9.6 16.6 0 6.1 4.3 8.5 9.6 5.5 5.3-3.1 9.6-10.5 9.6-16.6 0-6-4.3-8.5-9.6-5.5"/><path class="st6" d="M389.3 305.1c-5.3 3.1-9.6.6-9.6-5.5s4.3-13.5 9.6-16.6c5.3-3.1 9.6-.6 9.6 5.5-.1 6.1-4.3 13.5-9.6 16.6m-.1-24.5c-6.5 3.7-11.7 12.8-11.7 20.2s5.3 10.4 11.8 6.7c6.5-3.7 11.7-12.8 11.7-20.2s-5.3-10.4-11.8-6.7"/></g></g><path id="XMLID_119_" fill="#fff" stroke="#4285f4" stroke-width="6" stroke-linecap="round" stroke-linejoin="round" stroke-miterlimit="10" d="M389.2 294.1l171.3 97.7"/></g><path id="XMLID_115_" fill="none" stroke="#57eabc" stroke-width="6" stroke-miterlimit="10" d="M745.9 302.6l-154.7 87.5"/><g id="XMLID_104_"><g id="XMLID_105_" class="st10"><path id="XMLID_112_" class="st15" d="M651 379.3l-58.7 34.1-.2 72.7 58.7-34.1c4.1-2.4 6.2-5.5 6.2-8.6l.2-72.7c0 3.1-2 6.2-6.2 8.6z"/><path id="XMLID_110_" class="st15" d="M503.3 379.3c-4.2-2.4-6.3-5.6-6.3-8.8l-.2 72.7c0 3.2 2.1 6.3 6.3 8.8l59.1 34.1.2-72.7-59.1-34.1z"/><g id="XMLID_108_"><path id="XMLID_109_" class="st15" d="M592.4 413.4l-.2 72.7c-8.3 4.8-21.7 4.8-30 0l.2-72.7c8.3 4.8 21.7 4.8 30 0z"/></g><g id="XMLID_106_"><path id="XMLID_107_" class="st2" d="M650.9 361.9c8.3 4.8 8.4 12.6.1 17.4l-58.7 34.1c-8.3 4.8-21.7 4.8-30 0l-59.1-34.1c-8.3-4.8-8.4-12.6-.1-17.4l58.7-34.1c8.3-4.8 21.7-4.8 30 0l59.1 34.1z"/></g></g></g><path class="st16" d="M577.5 437.8c5.7 0 11.4-1.3 15.7-3.8l64-37v-3.5l-65.5 37.9c-7.8 4.6-20.6 4.6-28.5 0l-66.2-38v3.5l64.7 37.2c4.3 2.5 10.1 3.7 15.8 3.7z"/><path class="st17" d="M563.2 432.3c7.9 4.6 20.7 4.6 28.5 0l65.5-37.9v-.8l-65.5 37.9c-7.8 4.6-20.6 4.6-28.5 0L497 393.4v3.5-2.6l66.2 38z"/><path class="st12" d="M563.2 435.3c7.9 4.6 20.7 4.6 28.5 0l65.5-37.9v-.8l-65.5 37.9c-7.8 4.6-20.6 4.6-28.5 0L497 396.4v3.5-2.6l66.2 38z"/><path class="st16" d="M577.5 477.8c5.7 0 11.4-1.3 15.7-3.8l64-37v-3.5l-65.5 37.9c-7.8 4.6-20.6 4.6-28.5 0l-66.2-38v3.5l64.7 37.2c4.3 2.5 10.1 3.7 15.8 3.7z"/><path class="st17" d="M563.2 472.3c7.9 4.6 20.7 4.6 28.5 0l65.5-37.9v-.8l-65.5 37.9c-7.8 4.6-20.6 4.6-28.5 0L497 433.4v3.5-2.6l66.2 38z"/><path class="st12" d="M563.2 475.3c7.9 4.6 20.7 4.6 28.5 0l65.5-37.9v-.8l-65.5 37.9c-7.8 4.6-20.6 4.6-28.5 0L497 436.4v3.5-2.6l66.2 38z"/><g id="XMLID_100_"><g class="st10" id="XMLID_103_"><defs><path id="SVGID_3_" class="st10" d="M518.8 441.6l.1-24.5 21.3 12.3-.1 24.5z"/></defs><clipPath id="SVGID_4_"><use xlink:href="#SVGID_3_" overflow="visible"/></clipPath><g clip-path="url(#SVGID_4_)"><path class="st16" d="M529.5 423.2c-5.9-3.4-10.7-.7-10.7 6.1s4.7 15 10.6 18.4c5.9 3.4 10.7.7 10.7-6.1.1-6.7-4.7-15-10.6-18.4"/></g></g><g class="st10"><defs><path id="SVGID_5_" class="st10" d="M524.1 438.1v-14.6l12.8 7.3v14.7z"/></defs><clipPath id="SVGID_6_"><use xlink:href="#SVGID_5_" overflow="visible"/></clipPath><g clip-path="url(#SVGID_6_)"><path class="st17" d="M530.5 427.1c-3.5-2-6.4-.4-6.4 3.7 0 4 2.8 9 6.4 11 3.5 2 6.4.4 6.4-3.7 0-4-2.9-8.9-6.4-11"/></g></g><path id="XMLID_101_" fill="#fff" stroke="#f9d84b" stroke-width="6" stroke-linecap="round" stroke-linejoin="round" stroke-miterlimit="10" d="M529.5 436l-129.7 75.9"/></g><g id="XMLID_96_"><g class="st10" id="XMLID_99_"><defs><path id="SVGID_7_" class="st10" d="M555.8 364.9l21.1-12.3 21.4 12.3-21.2 12.3z"/></defs><clipPath id="SVGID_8_"><use xlink:href="#SVGID_7_" overflow="visible"/></clipPath><g clip-path="url(#SVGID_8_)"><path class="st5" d="M587.6 358.8c-5.9-3.4-15.4-3.4-21.2 0-5.8 3.4-5.8 8.9.1 12.3 5.9 3.4 15.4 3.4 21.2 0 5.8-3.4 5.8-8.9-.1-12.3"/></g></g><g class="st10"><defs><path id="SVGID_9_" class="st10" d="M562.8 366.9l14.2-8.2 14.2 8.2-14.1 8.2z"/></defs><clipPath id="SVGID_10_"><use xlink:href="#SVGID_9_" overflow="visible"/></clipPath><g clip-path="url(#SVGID_10_)"><path class="st17" d="M584.1 362.8c-3.9-2.3-10.3-2.3-14.2 0-3.9 2.3-3.9 5.9 0 8.2 3.9 2.3 10.3 2.3 14.2 0 3.9-2.2 3.9-5.9 0-8.2"/></g></g><path id="XMLID_97_" fill="none" stroke="#ff6f4d" stroke-width="8" stroke-linecap="round" stroke-miterlimit="10" d="M577 364.7V201.8"/></g><path id="XMLID_95_" class="st24" d="M651.7 102.1L593 136.2c-8.3 4.8-21.7 4.8-30 0l-59.1-34.1c-4.2-2.4-6.3-5.6-6.3-8.8l-.2 72.7c0 3.2 2.1 6.3 6.3 8.8l59.1 34.1c8.3 4.8 21.8 4.8 30 0l58.7-34.1c4.1-2.4 6.2-5.5 6.2-8.6l.2-72.7c-.1 3.1-2.1 6.2-6.2 8.6z"/><g id="XMLID_64_"><path id="XMLID_69_" class="st9" d="M651.6 84.7c8.3 4.8 8.4 12.6.1 17.4L593 136.2c-8.3 4.8-21.7 4.8-30 0l-59.1-34.1c-8.3-4.8-8.4-12.6-.1-17.4l58.7-34.1c8.3-4.8 21.7-4.8 30 0l59.1 34.1z"/></g><path class="st12" d="M431.5 230.5c.3-3.4-1.8-6.8-6.2-9.3l-59.1-34.1c-8.3-4.8-21.8-4.8-30 0l-58.7 34.1c-4.1 2.4-6.2 5.5-6.2 8.7l-.2 72.7c0 3.2 2.1 6.3 6.3 8.8l59.1 34.1c8.3 4.8 21.8 4.8 30 0l58.7-34.1c4.1-2.4 6.2-5.5 6.2-8.6l.1-72.3z"/><g fill="none" stroke="#4285f4" stroke-width="3" stroke-linecap="round" stroke-linejoin="bevel"><path d="M273.5 224.4c-1.5 1.7-2.2 3.6-2.2 5.5v6"/><path stroke-dasharray=".9938,11.9253,8.944,.9938" d="M271.3 244.7l-.1 22.4"/><path d="M271.2 267.6l-.1 34.9c0 3.2 2.1 6.3 6.3 8.8l59.1 34.1c8.3 4.8 21.8 4.8 30 0l58.7-34.1c4.1-2.4 6.2-5.5 6.2-8.6l.2-72.1c.3-3.4-1.8-6.8-6.2-9.3l-59.1-34.1c-8.3-4.8-21.8-4.8-30 0l-58.7 34.1c-1.5.9-2.7 1.8-3.7 2.8" stroke-dasharray="11.9253,8.944,.9938,11.9253,8.944,.9938"/></g><path d="M340.3 252.5l4-2.5s1.3-.9 2.8-.1c.1 0 .2.1.2.1l75.3 44.2s.8.3 1.3 1.5c0 .1.6 2.2-.3 2.9l-2.3 1.4-81-47.5z" fill-rule="evenodd" clip-rule="evenodd" fill="#6e90f9"/><path class="st29" d="M340.4 253.8l-60.6 36 80 47.1 60.6-36.2z"/><path d="M420.4 300.7v-1.3l-80.1-46.9v1.3zm0-1.3l3.1-1.9s.1 0 .1-.1c.2-.2.7-.6.6-1.2l.1.2c.2 1.2.3 3.2-.6 3.9-.1.1-.2.1-.2.1l-3.1 1.9v-2.9z" fill="#5266d8" fill-rule="evenodd" clip-rule="evenodd"/><path class="st31" d="M420.4 300.7v1.8l-60.7 36-80.2-47.1v-1.8l80.3 47.3z"/><path d="M340.3 239.8l4-2.5s1.3-.9 2.8-.1c.1 0 .2.1.2.1l75.3 44.2s.8.3 1.3 1.5c0 .1.6 2.2-.3 2.9l-2.3 1.4-81-47.5z" fill-rule="evenodd" clip-rule="evenodd" fill="#f9d84b"/><path class="st29" d="M340.4 241.1l-60.6 36 80 47.1 60.6-36.2z"/><path d="M420.4 288v-1.3l-80.1-46.8v1.2zm0-1.3l3.1-1.9s.1 0 .1-.1c.2-.2.7-.6.6-1.2l.1.2c.2 1.2.3 3.2-.6 3.9-.1.1-.2.1-.2.1l-3.1 1.9v-2.9z" fill="#edbb56" fill-rule="evenodd" clip-rule="evenodd"/><path class="st31" d="M420.4 288v1.8l-60.7 36.1-80.2-47.2v-1.8l80.3 47.3z"/><path d="M340.3 227.1l4-2.5s1.3-.9 2.8-.1c.1 0 .2.1.2.1l75.3 44.2s.8.3 1.3 1.5c0 .1.6 2.2-.3 2.9l-2.3 1.4-81-47.5z" fill-rule="evenodd" clip-rule="evenodd" fill="#57eabc"/><path class="st29" d="M340.4 228.4l-60.6 36 80 47.1 60.6-36.2z"/><path d="M420.4 275.3V274l-80.1-46.8v1.2zm0-1.3l3.1-1.9s.1 0 .1-.1c.2-.2.7-.6.6-1.2l.1.2c.2 1.2.3 3.2-.6 3.9-.1.1-.2.1-.2.1l-3.1 1.9V274z" fill="#46cea1" fill-rule="evenodd" clip-rule="evenodd"/><path class="st31" d="M420.4 275.3v1.8l-60.7 36.1-80.2-47.2v-1.8l80.3 47.3z"/><path d="M340.3 214.4l4-2.5s1.3-.9 2.8-.1c.1 0 .2.1.2.1l75.3 44.2s.8.3 1.3 1.5c0 .1.6 2.2-.3 2.9l-2.3 1.4-81-47.5z" fill-rule="evenodd" clip-rule="evenodd" fill="#ff6f4d"/><path class="st29" d="M340.4 215.7l-60.6 36 80 47.1 60.6-36.2z"/><path d="M420.4 262.6v-1.3l-80.1-46.8v1.2zm0-1.3l3.1-1.9s.1 0 .1-.1c.2-.2.7-.6.6-1.2l.1.2c.2 1.2.3 3.2-.6 3.9-.1.1-.2.1-.2.1l-3.1 1.9v-2.9z" fill="#ed5526" fill-rule="evenodd" clip-rule="evenodd"/><path class="st31" d="M420.4 262.6v1.8l-60.7 36.1-80.2-47.2v-1.8l80.3 47.3z"/><g class="st10"><path d="M585.3 82.2v3.6-3.6z" fill="#a5a5a5"/><path class="st24" d="M576.7 81.2v3.3c0-1.4-1.1-2.8-3.2-4-2.5-1.5-5.3-2.1-8.2-1.8-3 .2-6.1 1.3-9.4 3.3-3.3 1.9-5.2 3.7-5.6 5.4-.1.2-.1.5-.1.7v-3.3c0-.2 0-.5.1-.7.4-1.7 2.3-3.5 5.6-5.4 3.3-1.9 6.4-3 9.4-3.3 3-.2 5.7.4 8.2 1.8 2.1 1.2 3.2 2.6 3.2 4z"/><path class="st24" d="M541.5 87.1v-3.3c0 2.8 2.2 5.5 6.6 8.1 4.6 2.6 9.4 3.9 14.5 3.8 5.1-.1 10.1-1.6 15-4.5s7.5-5.8 7.7-8.7v3.3c-.2 2.9-2.8 5.8-7.7 8.7-4.9 2.9-9.9 4.3-15 4.5-5.1.1-9.9-1.1-14.5-3.8-4.4-2.6-6.6-5.3-6.6-8.1z"/><path class="st12" d="M585.3 82.5c-.2 2.9-2.8 5.8-7.7 8.7-4.9 2.9-9.9 4.3-15 4.5-5.1.1-9.9-1.1-14.5-3.8-4.6-2.6-6.8-5.4-6.6-8.4.2-2.9 2.8-5.9 7.7-8.7 4.9-2.9 9.9-4.3 15-4.4 5.1-.1 9.9 1.2 14.5 3.8 4.6 2.6 6.8 5.4 6.6 8.3zm-31.9 6.3c5 2.9 10.9 2.4 17.6-1.4 6.7-3.9 7.5-7.3 2.5-10.2-2.5-1.5-5.3-2.1-8.2-1.8-3 .2-6.1 1.3-9.4 3.3-3.3 1.9-5.2 3.7-5.6 5.4-.5 1.7.6 3.3 3.1 4.7"/></g><g class="st10"><path class="st24" d="M614.4 97.2l-.1 3.3-6.9 1.7v-3.3z"/><path class="st24" d="M594.3 98.4v-3.3c0-.2 0-.4.1-.6.2-.4.5-.7 1.1-1.1.9-.5 1.9-.8 3.1-.7 1.2 0 2.4.4 3.6 1.1 1 .6 1.9 1.2 2.7 2 .8.7 1.6 1.8 2.6 3.1v3.3c-.9-1.3-1.8-2.3-2.6-3.1-.8-.8-1.7-1.4-2.7-2-1.2-.7-2.4-1.1-3.6-1.1-1.2 0-2.2.2-3.1.7-.5.3-.9.7-1.1 1.1-.1.2-.1.4-.1.6zm-4.9 5.3v3.3c0-.3-.1-.7-.2-1.1-.2-.6-.8-1.7-1.9-3.4-1-1.5-1.5-2.8-1.7-3.8v-3.9.6c.1 1 .7 2.3 1.7 3.8 1 1.7 1.6 2.8 1.9 3.4.1.4.2.8.2 1.1z"/><path class="st24" d="M598.2 104.3v3.3c0 .3 0 .5-.1.7-.3 1.4-1.4 2.6-3.3 3.7-2.7 1.6-5.8 2.2-9.2 2-3.5-.2-7-1.3-10.4-3.3-3.2-1.8-5.4-3.8-6.7-5.9v-3.3c1.3 2.1 3.5 4.1 6.7 5.9 3.5 2 6.9 3.1 10.4 3.3 3.5.2 6.6-.4 9.2-2 1.9-1.1 3-2.4 3.3-3.7.1-.2.1-.4.1-.7z"/><path class="st12" d="M607.6 90.9c1.6.9 2.8 1.9 3.9 2.9 1 1 2 2.2 2.9 3.4l-6.9 1.7c-.9-1.3-1.8-2.3-2.6-3.1-.8-.8-1.7-1.4-2.7-2-1.2-.7-2.4-1.1-3.6-1.1-1.2 0-2.2.2-3.1.7-.5.3-.9.7-1.1 1.1-.2.4-.1.9 0 1.4.2.5.8 1.7 1.9 3.5 1.5 2.4 2 4.3 1.8 5.6-.3 1.4-1.4 2.6-3.3 3.7-2.7 1.6-5.8 2.2-9.2 2-3.5-.2-7-1.3-10.4-3.3-3.2-1.8-5.4-3.8-6.7-5.9l5.8-3.4c1.1 1.7 2.2 3 3.2 4s2.1 1.9 3.3 2.5c1.4.8 2.7 1.3 4 1.4 1.3.1 2.4-.1 3.5-.7.6-.3.9-.7 1.1-1.2.1-.4.1-1-.1-1.6-.2-.6-.8-1.7-1.9-3.4-1-1.5-1.5-2.8-1.7-3.8-.1-1 .1-1.9.6-2.9.5-.9 1.4-1.8 2.8-2.6 2.6-1.5 5.6-2.2 8.9-2 3.2.3 6.4 1.3 9.6 3.1z"/></g><path class="st5" d="M701.2 461.7c0-8.8 6.2-19.5 13.8-23.9 1.5-.9 2.9-1.4 4.2-1.7 2.7-10.9 10.4-22.2 19.4-27.4 5.5-3.2 10.4-3.5 14.1-1.5l.1.1c.1.1.3.2.4.2l5.4 3.2c1.1-.9 2.1-1.7 3.3-2.3 4-2.3 7.6-2.5 10.2-1.1l.1.1c.1.1.2.1.3.2l7.1 4.4-3.3 1.2c.3 1.1.4 2.4.4 3.8 0 9.4-6.7 20.9-14.8 25.6l-.6.3-46 26.6c-.1.1-.2.1-.3.2-.1.1-.2.1-.3.2l-.2.1c-.1.1-.2.1-.3.2l-2.9 4.3-6.2-3.8s-.1 0-.1-.1c-2.4-1.6-3.8-4.6-3.8-8.9z"/><path class="st2" d="M720.8 441.5c1.5-.9 2.9-1.4 4.2-1.7 2.7-10.9 10.4-22.2 19.4-27.4 8.3-4.8 15.4-3.1 18.6 3.3 1.5-1.4 3.1-2.7 4.7-3.7 8.1-4.7 14.8-.9 14.8 8.5s-6.7 20.9-14.8 25.6l-.6.3-46 26.6c-.1.1-.2.1-.3.2-.1.1-.2.1-.3.2l-.2.1c-7.4 4-13.4.4-13.4-8.2.1-8.7 6.3-19.4 13.9-23.8z"/><path class="st9" d="M296.1 783.2c-.7 0-1.4-.4-1.7-1-.3-.5-.3-1-.2-1.5.1-.5.5-1 .9-1.2l.4-.2c.9-.5 2.2-.2 2.7.7.5.9.2 2.2-.7 2.7l-.4.2c-.3.2-.6.3-1 .3zm253.7-4.7h-.6c-4.3-.1-8.5-1.2-12.4-3.2-.5-.2-.8-.7-1-1.2-.2-.5-.1-1.1.1-1.5.5-1 1.8-1.3 2.7-.8 3.3 1.8 6.9 2.7 10.6 2.8h.1c2.7.1 5.4-.4 8-1.3 1-.3 2.2.2 2.5 1.2.2.5.1 1-.1 1.5s-.6.8-1.1 1c-2.7 1-5.7 1.5-8.8 1.5zM306.9 777c-.7 0-1.4-.4-1.7-1-.3-.5-.3-1-.2-1.5.1-.5.5-.9.9-1.2.9-.5 2.2-.2 2.7.7.6.9.2 2.2-.7 2.7-.3.2-.6.3-1 .3zm7.8-4.5c-.7 0-1.4-.4-1.7-1-.6-1-.2-2.2.7-2.7l18.2-10.5c.9-.5 2.2-.2 2.7.7.5.9.2 2.2-.7 2.7l-18.2 10.5c-.3.2-.6.3-1 .3zM530 771c-.3 0-.7-.1-1-.3-.5-.3-.8-.7-.9-1.2-.1-.5-.1-1 .2-1.5.5-.9 1.8-1.2 2.7-.7.5.3.8.7.9 1.2.1.5.1 1-.2 1.5-.3.6-1 1-1.7 1zm38.2-.1c-.5 0-1-.2-1.4-.6-.4-.4-.6-.9-.6-1.4 0-.5.2-1 .6-1.4.8-.8 2.1-.8 2.8 0 .8.8.8 2 0 2.8-.3.3-.8.6-1.4.6zm-48.6-6c-.4 0-.7-.1-1-.3L500.5 754c-1-.6-1.3-1.8-.7-2.7.5-.9 1.8-1.2 2.7-.7l18.1 10.6c.5.3.8.7.9 1.2.1.5.1 1.1-.2 1.5-.3.7-.9 1-1.7 1zm53.8-1.4c-.3 0-.6-.1-.8-.2-.5-.2-.9-.6-1-1.1-.2-.5-.2-1 .1-1.5 1.5-3.1 2.2-6.5 2.2-10v-.7c0-.5.2-1 .5-1.4.4-.4.9-.6 1.4-.6 1.1-.1 2 .8 2.1 1.9v.8c0 4.1-.9 8.1-2.6 11.7-.4.7-1.1 1.1-1.9 1.1zM343.3 756c-.7 0-1.4-.4-1.7-1-.5-1-.2-2.2.7-2.7.9-.5 2.2-.2 2.7.7.5.9.2 2.2-.7 2.7-.3.2-.6.3-1 .3zm7.8-4.5c-.7 0-1.4-.4-1.7-1-.3-.5-.3-1-.2-1.5.1-.5.5-.9.9-1.2l18.2-10.5c.9-.5 2.2-.2 2.7.7.3.5.3 1 .2 1.5-.1.5-.5 1-.9 1.2l-18.2 10.5c-.3.2-.6.3-1 .3zm142.6-1.7c-.4 0-.7-.1-1-.3-.5-.3-.8-.7-.9-1.2-.1-.5-.1-1 .2-1.5.5-.9 1.8-1.3 2.7-.7.5.3.8.7.9 1.2.1.5.1 1-.2 1.5-.3.6-.9 1-1.7 1zm-10.3-6c-.4 0-.7-.1-1-.3l-18.1-10.6c-.5-.3-.8-.7-.9-1.2-.1-.5-.1-1 .2-1.5.5-.9 1.8-1.3 2.7-.7l18.1 10.6c.5.3.8.7.9 1.2.1.5.1 1.1-.2 1.5-.3.6-1 1-1.7 1zM379.7 735c-.7 0-1.4-.4-1.7-1-.6-1-.2-2.2.7-2.7.9-.5 2.2-.2 2.7.7.3.5.3 1 .2 1.5-.1.5-.5 1-.9 1.2-.3.2-.7.3-1 .3zm7.8-4.5c-.7 0-1.4-.4-1.7-1-.6-1-.2-2.2.7-2.7l9.4-5.4c.3-.2.7-.4 1-.6 2.7-1.5 5.6-2.8 8.5-3.8 1-.4 2.2.2 2.5 1.2.2.5.1 1-.1 1.5s-.6.8-1.1 1c-2.7 1-5.4 2.1-7.9 3.5-.4.2-.7.4-.9.5l-9.4 5.4c-.3.3-.7.4-1 .4zm70-1.9c-.3 0-.7-.1-1-.3-.5-.3-.8-.7-.9-1.2-.1-.5-.1-1.1.2-1.5.5-.9 1.8-1.3 2.7-.7.5.3.8.7.9 1.2.1.5.1 1-.2 1.5-.4.7-1 1-1.7 1zm-10.5-5.8c-.3 0-.6-.1-.8-.2-2.6-1.2-5.3-2.2-8.1-3-3.7-1-7.5-1.6-11.4-1.8-.5 0-1-.3-1.4-.7-.4-.4-.5-.9-.5-1.5 0-1.1 1-2 2.1-1.9 4.1.2 8.3.8 12.3 2 3 .8 5.9 1.9 8.7 3.2.5.2.8.6 1 1.1.2.5.2 1-.1 1.5-.3.8-1 1.3-1.8 1.3zm-29.3-4.7c-1 0-1.9-.8-2-1.8-.1-1.1.7-2.1 1.8-2.2 1.1-.1 2.1.7 2.2 1.8.1.5-.1 1-.4 1.5s-.8.7-1.3.8c-.1-.1-.2-.1-.3-.1z" id="XMLID_44_"/><g id="XMLID_24_"><path class="st7" d="M707 943.2c-.7 0-1.4-.4-1.7-1-.6-1-.2-2.2.7-2.7l5.2-3.1c1-.6 2.2-.2 2.7.7.6 1 .2 2.2-.7 2.7l-5.2 3.1c-.3.2-.6.3-1 .3zm13.4-7.9c-.7 0-1.4-.4-1.7-1-.3-.5-.4-1-.2-1.5.1-.5.5-1 .9-1.2.9-.5 2.2-.2 2.7.7.6.9.2 2.2-.7 2.7-.3.2-.6.3-1 .3zm10.9-6.5c-.7 0-1.4-.4-1.7-1-.3-.5-.3-1-.2-1.5.1-.5.5-1 .9-1.2l8.2-4.8c.9-.5 2.2-.2 2.7.7.2.3.3.7.3 1 0 .7-.4 1.4-1 1.8l-8.2 4.8c-.3.1-.6.2-1 .2z"/><path class="st7" d="M739.5 924c-.7 0-1.4-.4-1.7-1-.3-.5-.3-1-.2-1.5.1-.5.5-1 .9-1.2l10.4-6.2c.1-.1.3-.2.4-.2.9-.6 2.2-.3 2.8.6.6.9.4 2.2-.6 2.8-.2.1-.4.2-.6.4l-10.4 6.2c-.3 0-.6.1-1 .1zm15.5-14.5h-.1c-.5 0-1-.3-1.4-.7-.4-.4-.5-.9-.5-1.4.1-1.1 1-1.9 2.1-1.9.5 0 1 .3 1.4.7.3.4.5.9.5 1.5-.1 1-.9 1.8-2 1.8zm-6.1-10.2c-.4 0-.7-.1-1-.3l-19.1-11.3c-1-.6-1.3-1.8-.7-2.7.5-.9 1.8-1.2 2.7-.7l19.1 11.3c1 .6 1.3 1.8.7 2.7-.4.6-1 1-1.7 1zm-27.3-16.2c-.4 0-.7-.1-1-.3-.5-.3-.8-.7-.9-1.2-.1-.5-.1-1.1.2-1.5.5-.9 1.8-1.2 2.7-.7.5.3.8.7.9 1.2.1.5 0 1.1-.2 1.5-.4.7-1 1-1.7 1zm-10.9-6.4c-.4 0-.7-.1-1-.3l-19.1-11.3c-.5-.3-.8-.7-.9-1.2-.1-.5-.1-1 .2-1.5.5-.9 1.8-1.2 2.7-.7l19.1 11.3c.9.6 1.3 1.8.7 2.7-.4.6-1 1-1.7 1zm-27.4-16.2c-.3 0-.7-.1-1-.3-.5-.3-.8-.7-.9-1.2-.1-.5-.1-1.1.2-1.5.5-.9 1.8-1.2 2.7-.7.5.3.8.7.9 1.2.1.5.1 1.1-.2 1.5-.3.7-.9 1-1.7 1zm-10.9-6.4c-.3 0-.7-.1-1-.3l-19.1-11.3c-1-.6-1.3-1.8-.7-2.7.5-.9 1.8-1.2 2.7-.7l19.1 11.3c.9.6 1.3 1.8.7 2.7-.3.6-1 1-1.7 1zm-27.3-16.2c-.4 0-.7-.1-1-.3-.5-.3-.8-.7-.9-1.2-.1-.5 0-1.1.2-1.5.5-.9 1.8-1.2 2.7-.7.5.3.8.7.9 1.2.1.5.1 1-.2 1.5-.3.7-1 1-1.7 1zm-10.9-6.4c-.4 0-.7-.1-1-.3l-17.1-10.1c-.6-.4-1.3-.8-2.1-1.2-.5-.3-.8-.7-.9-1.2-.1-.5 0-1 .2-1.5.6-.9 1.8-1.2 2.8-.7.7.4 1.3.8 2 1.2l17.1 10.1c1 .6 1.3 1.8.7 2.7-.3.6-1 1-1.7 1zm-26.9-16.8c-.5 0-.9-.2-1.2-.4-.9-.7-1-1.9-.3-2.8.7-.8 2-1 2.8-.3.9.7 1 1.9.3 2.8-.4.5-1 .7-1.6.7zm-9.3-8.6c-.5 0-1.1-.2-1.5-.6-2.2-2.4-4.3-4.9-6.2-7.5a84.3 84.3 0 0 1-6.9-11c-.5-1-.1-2.2.8-2.7 1-.5 2.2-.1 2.7.8 1.9 3.6 4.1 7.2 6.6 10.5 1.8 2.5 3.8 4.9 5.9 7.1.8.8.7 2.1-.1 2.8-.3.5-.8.6-1.3.6zm-16.7-26.7c-.8 0-1.6-.5-1.9-1.3-.4-1 .1-2.2 1.2-2.6 1-.4 2.2.2 2.6 1.2.4 1-.1 2.2-1.2 2.6-.2.1-.5.1-.7.1zm-3.7-12.1c-.9 0-1.8-.7-2-1.6-.7-3.1-1.2-6.3-1.5-9.5v-.1c0-.5.1-1 .4-1.4.3-.4.8-.7 1.3-.7 1.1-.1 2.1.7 2.2 1.8v.1c.3 3 .8 6.1 1.5 9.1.1.5 0 1-.3 1.5s-.7.8-1.3.9c0-.1-.1-.1-.3-.1z"/><path class="st7" d="M576.1 757.9c-1 0-1.9-.8-2-1.8-.2-2-.3-4.1-.4-6.1 0-1.1.8-2 1.9-2.1h.1c1.1 0 2 .9 2 1.9.1 1.9.2 3.9.4 5.8.1 1.1-.7 2.1-1.8 2.2 0 .1-.1.1-.2.1z"/></g><g stroke-linecap="round" stroke-miterlimit="10"><path d="M440 490.8c.3-3.4-1.8-6.8-6.2-9.3l-59.1-34.1c-8.3-4.8-21.8-4.8-30 0L286 481.5c-4.1 2.4-6.2 5.5-6.2 8.7l-.2 72.7c0 3.2 2.1 6.3 6.3 8.8l59.1 34.1c8.3 4.8 21.8 4.8 30 0l58.7-34.1c4.1-2.4 6.2-5.5 6.2-8.6l.1-72.3z" fill="#fff" stroke="#f9d84b" stroke-width="3" stroke-linejoin="bevel" stroke-dasharray="12,9,0"/><path fill="none" stroke="#fff" stroke-width=".5" stroke-linejoin="round" d="M418.9 499.6v64"/></g><g class="st10"><defs><path id="SVGID_11_" class="st10" d="M361.5 229.4l15.1-8.8 15.3 8.8-15.2 8.8z"/></defs><clipPath id="SVGID_12_"><use xlink:href="#SVGID_11_" overflow="visible"/></clipPath><g clip-path="url(#SVGID_12_)"><path class="st6" d="M376.4 223.7h.3c2.5 0 5 .5 6.9 1.6 1.2.7 2.1 1.6 2.5 2.5l-9.4 1.2v.3l7.3 4.2c-4 2.3-10.5 2.3-14.5 0s-4-6.1 0-8.4c1.9-1.1 4.3-1.7 7-1.7l-.1.3m7.8 1.3c-4.2-2.4-11-2.4-15.2 0-4.1 2.4-4.1 6.4.1 8.8 4.2 2.4 11 2.4 15.2 0 .1-.1.1-.1.1-.2s-.1-.1-.1-.2l-6.6-3.8 9.1-1.2c.1 0 .2-.1.3-.1.1-.1.1-.1.1-.2-.5-1.2-1.5-2.3-3-3.1"/><path class="st6" d="M376.4 223.4c-2.6 0-5.1.7-7 1.7-4 2.3-3.9 6.1 0 8.4s10.5 2.3 14.5 0l-7.3-4.2v-.3l-.3-5.3.1-.3"/></g></g><path d="M769.6 805.7c-1 0-2 .2-2.8.7l-166.4 97.3c-1.6.9-1.5 2.4 0 3.3l116 67.9c1.2.7 2.7 1 4.2 1s3-.3 4.2-1L888.7 879c2.3-1.3 2.3-3.5 0-4.9l-116.2-67.6c-.9-.6-1.9-.8-2.9-.8" fill="#f9f9f9"/><path class="st44" d="M599.2 877l6.7.2 160.9-94.1c1.5-.9 4-.9 5.6 0l114.8 66.8v-.3c.1-.1 3.2-1.4 3.2-1.4v4.9c0 .9-.5 1.8-1.7 2.5l-163.9 95.9c-2.3 1.3-6.1 1.3-8.4 0l-116-67.9c-.8-.5-1.2-1.1-1.2-1.7V877z"/><path d="M766.8 778.2c1.5-.9 4-.9 5.6 0l116.2 67.6c2.3 1.3 2.3 3.5 0 4.9l-163.9 95.9c-2.3 1.3-6.1 1.3-8.4 0l-116-67.9c-1.5-.9-1.6-2.4 0-3.3l166.5-97.2z" fill-rule="evenodd" clip-rule="evenodd" fill="#505050"/><path class="st46" d="M869.5 848.5l-148.2 86.6-100.4-58.5 148-87.1z"/><path d="M667.5 911.9c-2.1 1.2-5.8 1-7-.9-1.3-1.9-.5-4.4 1.8-5.6 2.4-1.3 5.9-.7 7 1.2 1.1 1.9.4 4.1-1.8 5.3z" fill-rule="evenodd" clip-rule="evenodd" fill="#efefef" stroke="#a8a8a8" stroke-width=".5" stroke-miterlimit="10"/><path class="st48" d="M39.4 860.3L184.5 776l196.9 113.7-143.8 83.6c-2.1 1.2-4.7 1.2-6.8 0L39.4 862.7c-.9-.6-.9-1.9 0-2.4z"/><path class="st49" d="M236.6 973.7c-1.3.8-3.4.8-4.8 0L39.7 862.8c-.7-.4-1-.9-1-1.4v3.4c0 .5.3 1 1 1.4l192.1 110.9c1.3.8 3.4.8 4.8 0l144-83.7c.5-.3.9-.9.9-1.5v-2.4l-144.9 84.2z"/><path class="st50" d="M348.4 896.7l-11.9-6.9c-.7-.4-1.7-.4-2.4 0l-4.1 2.4c-.7.4-.7 1 0 1.4l11.9 6.9c.7.4 1.7.4 2.4 0l4.1-2.4c.6-.4.6-1 0-1.4"/><path d="M280 944.2l-62.6-36.1-45.9 26.7-69.5-40.1 45.9-26.7-62-35.8-43.5 25.3c-1.3.8-1.3 2 0 2.8l189.3 109.3c1.3.8 3.4.8 4.8 0l43.5-25.4" fill="#f6f4fc"/><path fill="#d6d6d6" d="M217.4 908.1L147.9 868 102 894.7l69.5 40.1 45.9-26.7"/><path class="st53" d="M148.8 868.5l-46 26.6 68.7 39.7 45.9-26.7z"/><path fill="none" stroke="#a8a8a8" stroke-linejoin="round" stroke-miterlimit="10" d="M362.2 900.8L165.3 787.1"/><path class="st50" d="M357 875.4l-21.2-12.2-3.8 2.2c-.3.2-.3.5 0 .7l20 11.5c.3.2.9.2 1.2 0l.6-.3-21.2-12.3 1.8-1 21.2 12.2 1.4-.8z"/><path class="st53" d="M355.6 876.2L334.4 864l-1.8 1 21.2 12.2z"/><path d="M381 716.8c1.3.8 2.4 2.6 2.4 4.1l-.5 167.5L186 774.8l.5-167.5c0-1.5 1.1-2.1 2.4-1.4L381 716.8z" fill="#adaaaf"/><path d="M187.5 774l.5-166.7v-.2c.1 0 .1.1.2.1l192.1 110.9c.9.5 1.7 1.9 1.7 2.9l-.5 165-194-112z" fill="#0b080d"/><path class="st49" d="M382.8 715.8L190.7 604.9c-.7-.4-1.3-.4-1.7-.2l-1.8 1c.4-.3 1-.2 1.7.2L381 716.8c1.3.8 2.4 2.6 2.4 4.1l-.5 167.5 1.8-1 .5-167.5c0-1.5-1.1-3.3-2.4-4.1z"/><path d="M284.6 670.8c-.9-.5-1.6-1.8-1.6-2.8 0-1 .7-1.5 1.6-.9.9.5 1.6 1.8 1.6 2.8.1 1-.7 1.4-1.6.9" fill="none" stroke="#a8a8a8" stroke-width="2" stroke-linecap="round" stroke-linejoin="round" stroke-miterlimit="10"/><path class="st6" d="M284.6 667.7c-.6-.3-1-.1-1 .6s.5 1.5 1 1.8 1 .1 1-.6c.1-.6-.4-1.4-1-1.8"/><path fill="#f1f6f8" d="M372.9 728.8L196.3 626.9l-.4 137.5 176.6 102 .4-137.6"/><path class="st63" d="M178.2 798.4l-11.9-6.9c-.7-.4-1.7-.4-2.4 0l-4.1 2.4c-.7.4-.7 1 0 1.4l11.9 6.9c.7.4 1.7.4 2.4 0l4.1-2.4c.6-.4.6-1 0-1.4m15.4 8.9l-11.9-6.9c-.7-.4-1.7-.4-2.4 0l-4.1 2.4c-.7.4-.7 1 0 1.4l11.9 6.9c.7.4 1.7.4 2.4 0l4.1-2.4c.7-.4.7-1 0-1.4m15.5 9l-11.9-6.9c-.7-.4-1.7-.4-2.4 0l-4.1 2.4c-.7.4-.7 1 0 1.4l11.9 6.9c.7.4 1.7.4 2.4 0l4.1-2.4c.7-.4.7-1 0-1.4m15.5 8.9l-11.9-6.9c-.7-.4-1.7-.4-2.4 0l-4.1 2.4c-.7.4-.7 1 0 1.4l11.9 6.9c.7.4 1.7.4 2.4 0l4.1-2.4c.7-.4.6-1 0-1.4m15.5 8.9l-11.9-6.9c-.7-.4-1.7-.4-2.4 0l-4.1 2.4c-.7.4-.7 1 0 1.4l11.9 6.9c.7.4 1.7.4 2.4 0l4.1-2.4c.6-.4.6-1 0-1.4m15.4 9l-11.9-6.9c-.7-.4-1.7-.4-2.4 0l-4.1 2.4c-.7.4-.7 1 0 1.4l11.9 6.9c.7.4 1.7.4 2.4 0l4.1-2.4c.7-.4.7-1 0-1.4m61.9 35.7l-11.9-6.9c-.7-.4-1.7-.4-2.4 0l-4.1 2.4c-.7.4-.7 1 0 1.4l11.9 6.9c.7.4 1.7.4 2.4 0l4.1-2.4c.7-.4.7-1 0-1.4m15.5 8.9l-11.9-6.9c-.7-.4-1.7-.4-2.4 0l-4.1 2.4c-.7.4-.7 1 0 1.4l11.9 6.9c.7.4 1.7.4 2.4 0l4.1-2.4c.7-.4.7-1 0-1.4m-46.4-26.8l-11.9-6.9c-.7-.4-1.7-.4-2.4 0l-4.1 2.4c-.7.4-.7 1 0 1.4l11.9 6.9c.7.4 1.7.4 2.4 0l4.1-2.4c.6-.4.6-1 0-1.4m15.5 9l-12-6.9c-.7-.4-1.7-.4-2.4 0l-4.1 2.4c-.7.4-.7 1 0 1.4l11.9 6.9c.7.4 1.7.4 2.4 0l4.1-2.4c.7-.4.7-1 .1-1.4M271 852l-11.9-6.9c-.7-.4-1.7-.4-2.4 0l-4.1 2.4c-.7.4-.7 1 0 1.4l11.9 6.9c.7.4 1.7.4 2.4 0l4.1-2.4c.7-.4.7-1 0-1.4m-103.5-50.8l-8.9-5.2c-.7-.4-1.7-.4-2.4 0l-8.9 5.2c-.7.4-.6 1 0 1.4l8.9 5.2c.7.4 1.7.4 2.4 0l8.9-5.2c.6-.4.6-1.1 0-1.4m12.8 7.4l-8.9-5.2c-.7-.4-1.7-.4-2.4 0l-8.9 5.2c-.7.4-.6 1 0 1.4l8.9 5.2c.7.4 1.7.4 2.4 0l8.9-5.2c.7-.4.7-1.1 0-1.4m12.5 7.2l-8.9-5.2c-.7-.4-1.7-.4-2.4 0l-8.9 5.2c-.7.4-.6 1 0 1.4l8.9 5.2c.7.4 1.7.4 2.4 0l8.9-5.2c.7-.4.7-1 0-1.4m13.4 7.7l-8.9-5.2c-.7-.4-1.7-.4-2.4 0l-8.9 5.2c-.7.4-.6 1 0 1.4l8.9 5.2c.7.4 1.7.4 2.4 0l8.9-5.2c.7-.4.7-1 0-1.4m12.9 7.4l-8.9-5.2c-.7-.4-1.7-.4-2.4 0l-8.9 5.2c-.7.4-.6 1 0 1.4l8.9 5.2c.7.4 1.7.4 2.4 0l8.9-5.2c.6-.4.6-1 0-1.4m12.5 7.3l-8.9-5.2c-.7-.4-1.7-.4-2.4 0l-8.9 5.2c-.7.4-.6 1 0 1.4l8.9 5.2c.7.4 1.7.4 2.4 0l8.9-5.2c.6-.4.6-1.1 0-1.4m13.4 7.7l-8.9-5.2c-.7-.4-1.7-.4-2.4 0l-8.9 5.2c-.7.4-.6 1 0 1.4l8.9 5.2c.7.4 1.7.4 2.4 0l8.9-5.2c.7-.4.6-1 0-1.4m12.8 7.4l-8.9-5.2c-.7-.4-1.7-.4-2.4 0l-8.9 5.2c-.7.4-.6 1 0 1.4l8.9 5.2c.7.4 1.7.4 2.4 0l8.9-5.2c.7-.4.7-1 0-1.4m12.5 7.2l-8.9-5.2c-.7-.4-1.7-.4-2.4 0l-8.9 5.2c-.7.4-.6 1 0 1.4l8.9 5.2c.7.4 1.7.4 2.4 0l8.9-5.2c.7-.4.7-1 0-1.4m12.5 7.3l-8.9-5.2c-.7-.4-1.7-.4-2.4 0l-8.9 5.2c-.7.4-.6 1 0 1.4l8.9 5.2c.7.4 1.7.4 2.4 0l8.9-5.2c.7-.4.7-1.1 0-1.4m12.9 7.4l-8.9-5.2c-.7-.4-1.7-.4-2.4 0l-8.9 5.2c-.7.4-.6 1 0 1.4l8.9 5.2c.7.4 1.7.4 2.4 0l8.9-5.2c.6-.4.6-1.1 0-1.4m12.5 7.2l-8.9-5.2c-.7-.4-1.7-.4-2.4 0l-8.9 5.2c-.7.4-.6 1 0 1.4l8.9 5.2c.7.4 1.7.4 2.4 0l8.9-5.2c.7-.4.6-1 0-1.4m13.4 7.7l-8.9-5.2c-.7-.4-1.7-.4-2.4 0l-8.9 5.2c-.7.4-.6 1 0 1.4l8.9 5.2c.7.4 1.7.4 2.4 0l8.9-5.2c.7-.4.7-1 0-1.4m-147.5-70.4l-8.9-5.2c-.7-.4-1.7-.4-2.4 0l-8.9 5.2c-.7.4-.6 1 0 1.4l8.9 5.2c.7.4 1.7.4 2.4 0l8.9-5.2c.7-.4.7-1 0-1.4m12.9 7.4l-9-5.1c-.7-.4-1.7-.4-2.4 0l-8.9 5.2c-.7.4-.6 1 0 1.4l8.9 5.2c.7.4 1.7.4 2.4 0l8.9-5.2c.7-.5.7-1.1.1-1.5m12.5 7.3l-8.9-5.2c-.7-.4-1.7-.4-2.4 0l-8.9 5.2c-.7.4-.6 1 0 1.4l8.9 5.2c.7.4 1.7.4 2.4 0l8.9-5.2c.6-.4.6-1.1 0-1.4m13.4 7.7l-8.9-5.2c-.7-.4-1.7-.4-2.4 0l-8.9 5.2c-.7.4-.6 1 0 1.4l8.9 5.2c.7.4 1.7.4 2.4 0l8.9-5.2c.7-.4.7-1 0-1.4m12.8 7.4l-8.9-5.2c-.7-.4-1.7-.4-2.4 0l-8.9 5.2c-.7.4-.6 1 0 1.4l8.9 5.2c.7.4 1.7.4 2.4 0l8.9-5.2c.7-.4.7-1 0-1.4m12.5 7.2l-8.9-5.2c-.7-.4-1.7-.4-2.4 0l-8.9 5.2c-.7.4-.6 1 0 1.4l8.9 5.2c.7.4 1.7.4 2.4 0l8.9-5.2c.7-.4.7-1 0-1.4m13.5 7.8l-8.9-5.2c-.7-.4-1.7-.4-2.4 0l-8.9 5.2c-.7.4-.6 1 0 1.4l8.9 5.2c.7.4 1.7.4 2.4 0l8.9-5.2c.6-.4.6-1 0-1.4m12.8 7.4l-8.9-5.2c-.7-.4-1.7-.4-2.4 0l-8.9 5.2c-.7.4-.6 1 0 1.4l8.9 5.2c.7.4 1.7.4 2.4 0l8.9-5.2c.6-.4.6-1 0-1.4m12.5 7.2l-8.9-5.2c-.7-.4-1.7-.4-2.4 0l-8.9 5.2c-.7.4-.6 1 0 1.4l8.9 5.2c.7.4 1.7.4 2.4 0l8.9-5.2c.7-.4.7-1 0-1.4m12.5 7.2l-8.9-5.2c-.7-.4-1.7-.4-2.4 0l-8.9 5.2c-.7.4-.6 1 0 1.4l8.9 5.2c.7.4 1.7.4 2.4 0l8.9-5.2c.7-.4.7-1 0-1.4m12.8 7.4l-8.9-5.2c-.7-.4-1.7-.4-2.4 0l-8.9 5.2c-.7.4-.6 1 0 1.4l8.9 5.2c.7.4 1.7.4 2.4 0l8.9-5.2c.7-.4.7-1 0-1.4m12.6 7.3l-8.9-5.2c-.7-.4-1.7-.4-2.4 0l-8.9 5.2c-.7.4-.6 1 0 1.4l8.9 5.2c.7.4 1.7.4 2.4 0l8.9-5.2c.6-.4.6-1.1 0-1.4m13.3 7.7l-8.9-5.2c-.7-.4-1.7-.4-2.4 0l-8.9 5.2c-.7.4-.6 1 0 1.4l.6.4c.6.4.6 1 0 1.3L298 918c-.7.4-.6 1 0 1.4l6 3.4c.7.4 1.7.4 2.4 0l13-7.6 1.8-1 7.1-4.1c.6-.4.6-1-.1-1.4m12.8-7.4l-15.5-9c-.7-.4-1.7-.4-2.4 0l-8.9 5.2c-.7.4-.6 1 0 1.4l15.5 9c.7.4 1.7.4 2.4 0l8.9-5.2c.6-.4.6-1 0-1.4m-179.7-89l-15.5-9c-.7-.4-1.7-.4-2.4 0l-8.9 5.2c-.7.4-.6 1 0 1.4l15.5 9c.7.4 1.7.4 2.4 0l8.9-5.2c.7-.4.7-1 0-1.4m-15.6 20.5l-8.9-5.2c-.7-.4-1.7-.4-2.4 0l-8.9 5.2c-.7.4-.7 1 0 1.4l8.9 5.2c.7.4 1.7.4 2.4 0l8.9-5.2c.7-.4.7-1 0-1.4m12.8 7.4l-8.9-5.2c-.7-.4-1.7-.4-2.4 0l-8.9 5.2c-.7.4-.7 1 0 1.4l8.9 5.2c.7.4 1.7.4 2.4 0l8.9-5.2c.7-.4.7-1 0-1.4m12.5 7.2l-8.9-5.2c-.7-.4-1.7-.4-2.4 0l-8.9 5.2c-.7.4-.7 1 0 1.4l8.9 5.2c.7.4 1.7.4 2.4 0l8.9-5.2c.7-.4.7-1 0-1.4m13.5 7.8l-8.9-5.2c-.7-.4-1.7-.4-2.4 0l-8.9 5.2c-.7.4-.7 1 0 1.4l8.9 5.2c.7.4 1.7.4 2.4 0l8.9-5.2c.6-.4.6-1 0-1.4m12.8 7.4l-8.9-5.2c-.7-.4-1.7-.4-2.4 0l-8.9 5.2c-.7.4-.7 1 0 1.4l8.9 5.2c.7.4 1.7.4 2.4 0l8.9-5.2c.6-.4.6-1 0-1.4m12.5 7.2l-8.9-5.2c-.7-.4-1.7-.4-2.4 0l-8.9 5.2c-.7.4-.7 1 0 1.4l8.9 5.2c.7.4 1.7.4 2.4 0l8.9-5.2c.7-.4.6-1 0-1.4m13.4 7.8l-8.9-5.2c-.7-.4-1.7-.4-2.4 0l-8.9 5.2c-.7.4-.7 1 0 1.4l8.9 5.2c.7.4 1.7.4 2.4 0l8.9-5.2c.7-.4.7-1.1 0-1.4M236 885l-8.9-5.2c-.7-.4-1.7-.4-2.4 0l-8.9 5.2c-.7.4-.7 1 0 1.4l8.9 5.2c.7.4 1.7.4 2.4 0l8.9-5.2c.7-.4.7-1.1 0-1.4m12.5 7.2l-8.9-5.2c-.7-.4-1.7-.4-2.4 0l-8.9 5.2c-.7.4-.7 1 0 1.4l8.9 5.2c.7.4 1.7.4 2.4 0l8.9-5.2c.7-.4.7-1 0-1.4m12.6 7.2l-8.9-5.2c-.7-.4-1.7-.4-2.4 0l-8.9 5.2c-.7.4-.7 1 0 1.4l8.9 5.2c.7.4 1.7.4 2.4 0l8.9-5.2c.6-.4.6-1 0-1.4m-25.3.2l-8.9-5.2c-.7-.4-1.7-.4-2.4 0l-8.9 5.2c-.7.4-.6 1 0 1.4l8.9 5.2c.7.4 1.7.4 2.4 0l8.9-5.2c.6-.4.6-1 0-1.4m12.5 7.2l-8.9-5.2c-.7-.4-1.7-.4-2.4 0l-8.9 5.2c-.7.4-.6 1 0 1.4l8.9 5.2c.7.4 1.7.4 2.4 0l8.9-5.2c.7-.4.7-1 0-1.4m25.6 0l-8.9-5.2c-.7-.4-1.7-.4-2.4 0l-8.9 5.2c-.7.4-.7 1 0 1.4l8.9 5.2c.7.4 1.7.4 2.4 0l8.9-5.2c.6-.4.6-1 0-1.4m3.3 16.7l-12.5-7.2c-.7-.4-1.7-.4-2.4 0l-3 1.7c-.7.4-.6 1 0 1.4l12.5 7.2c.7.4 1.7.4 2.4 0l3-1.7c.7-.4.7-1 0-1.4m-5.9 3.5l-12.5-7.2c-.7-.4-1.7-.4-2.4 0l-3 1.7c-.7.4-.6 1 0 1.4l12.5 7.2c.7.4 1.7.4 2.4 0l3-1.7c.7-.4.7-1.1 0-1.4m13.1 7.2l-9.2-5.3c-.7-.4-1.7-.4-2.4 0l-3.3 1.9c-.7.4-.6 1 0 1.4l9.2 5.3c.7.4 1.7.4 2.4 0l3.3-1.9c.7-.4.7-1 0-1.4m-28.6-16.5l-9.2-5.3c-.7-.4-1.7-.4-2.4 0l-3.3 1.9c-.7.4-.6 1 0 1.4l9.2 5.3c.7.4 1.7.4 2.4 0l3.3-1.9c.7-.4.7-1 0-1.4m46.7 5.6l-25-14.5c-.7-.4-1.7-.4-2.4 0l-8.9 5.2c-.7.4-.7 1 0 1.4l25 14.5c.7.4 1.7.4 2.4 0l8.9-5.2c.7-.4.7-1 0-1.4m-169.6-97.9l-12.5-7.2c-.7-.4-1.7-.4-2.4 0l-8.9 5.2c-.7.4-.7 1 0 1.4l12.5 7.2c.7.4 1.7.4 2.4 0l8.9-5.2c.6-.4.6-1 0-1.4m6.3 18.4l-8.9-5.2c-.7-.4-1.7-.4-2.4 0l-8.9 5.2c-.7.4-.6 1 0 1.4l8.9 5.2c.7.4 1.7.4 2.4 0l8.9-5.2c.7-.4.7-1 0-1.4m19.7 11.4l-15.8-9.1c-.7-.4-1.7-.4-2.4 0l-8.9 5.2c-.7.4-.6 1 0 1.4l15.8 9.1c.7.4 1.7.4 2.4 0l8.9-5.2c.7-.4.7-1 0-1.4m63.8 36.8l-60.2-34.8c-.7-.4-1.7-.4-2.4 0l-8.9 5.2c-.7.4-.6 1 0 1.4l60.2 34.8c.7.4 1.7.4 2.4 0l8.9-5.2c.6-.4.6-1 0-1.4m-96.3-55.6l-18.8-10.8c-.7-.4-1.7-.4-2.4 0l-8.9 5.2c-.7.4-.6 1 0 1.4l18.8 10.8c.7.4 1.7.4 2.4 0l8.9-5.2c.7-.4.7-1 0-1.4m38.6-7.2l-9-5.2c-.7-.4-1.7-.4-2.4 0l-8.9 5.2c-.7.4-.7 1 0 1.4l8.9 5.2c.7.4 1.7.4 2.4 0l8.9-5.2c.7-.4.7-1 .1-1.4m12.8 7.4l-8.9-5.2c-.7-.4-1.7-.4-2.4 0l-8.9 5.2c-.7.4-.7 1 0 1.4l8.9 5.2c.7.4 1.7.4 2.4 0l8.9-5.2c.7-.4.7-1 0-1.4m12.5 7.2l-8.9-5.2c-.7-.4-1.7-.4-2.4 0l-8.9 5.2c-.7.4-.7 1 0 1.4l8.9 5.2c.7.4 1.7.4 2.4 0l8.9-5.2c.7-.4.7-1 0-1.4m13.4 7.8l-8.9-5.2c-.7-.4-1.7-.4-2.4 0l-8.9 5.2c-.7.4-.7 1 0 1.4l8.9 5.2c.7.4 1.7.4 2.4 0l8.9-5.2c.7-.4.7-1 0-1.4m12.9 7.4l-8.9-5.2c-.7-.4-1.7-.4-2.4 0l-8.9 5.2c-.7.4-.7 1 0 1.4l8.9 5.2c.7.4 1.7.4 2.4 0l8.9-5.2c.6-.4.6-1 0-1.4m12.5 7.2l-8.9-5.2c-.7-.4-1.7-.4-2.4 0l-8.9 5.2c-.7.4-.7 1 0 1.4l8.9 5.2c.7.4 1.7.4 2.4 0l8.9-5.2c.6-.4.6-1 0-1.4m13.4 7.7l-8.9-5.2c-.7-.4-1.7-.4-2.4 0l-8.9 5.2c-.7.4-.7 1 0 1.4l8.9 5.2c.7.4 1.7.4 2.4 0l8.9-5.2c.7-.4.7-1 0-1.4m12.8 7.4l-8.9-5.2c-.7-.4-1.7-.4-2.4 0l-8.9 5.2c-.7.4-.7 1 0 1.4l8.9 5.2c.7.4 1.7.4 2.4 0l8.9-5.2c.7-.4.7-1 0-1.4m12.5 7.3l-8.9-5.2c-.7-.4-1.7-.4-2.4 0l-8.9 5.2c-.7.4-.7 1 0 1.4l8.9 5.2c.7.4 1.7.4 2.4 0l8.9-5.2c.7-.4.7-1 0-1.4m12.6 7.2l-8.9-5.2c-.7-.4-1.7-.4-2.4 0l-8.9 5.2c-.7.4-.7 1 0 1.4l8.9 5.2c.7.4 1.7.4 2.4 0l8.9-5.2c.6-.4.6-1 0-1.4m12.8 7.4l-8.9-5.2c-.7-.4-1.7-.4-2.4 0l-8.9 5.2c-.7.4-.7 1 0 1.4l8.9 5.2c.7.4 1.7.4 2.4 0l8.9-5.2c.6-.4.6-1 0-1.4"/><path class="st63" d="M305.7 910.4l-8.9-5.2c-.7-.4-1.7-.4-2.4 0l-8.9 5.2c-.7.4-.7 1 0 1.4l8.9 5.2c.7.4 1.7.4 2.4 0l8.9-5.2c.7-.4.7-1 0-1.4m-153.8-88.8l-18.8-10.8c-.7-.4-1.7-.4-2.4 0l-8.9 5.2c-.7.4-.7 1 0 1.4l18.8 10.8c.7.4 1.7.4 2.4 0l8.9-5.2c.6-.4.6-1 0-1.4"/><path class="st50" d="M178.2 797.7l-11.9-6.9c-.7-.4-1.7-.4-2.4 0l-4.1 2.4c-.7.4-.7 1 0 1.4l11.9 6.9c.7.4 1.7.4 2.4 0l4.1-2.4c.6-.4.6-1 0-1.4m15.4 8.9l-11.9-6.9c-.7-.4-1.7-.4-2.4 0l-4.1 2.4c-.7.4-.7 1 0 1.4l11.9 6.9c.7.4 1.7.4 2.4 0l4.1-2.4c.7-.4.7-1 0-1.4m15.5 8.9l-11.9-6.9c-.7-.4-1.7-.4-2.4 0l-4.1 2.4c-.7.4-.7 1 0 1.4l11.9 6.9c.7.4 1.7.4 2.4 0l4.1-2.4c.7-.4.7-1 0-1.4m15.5 9l-11.9-6.9c-.7-.4-1.7-.4-2.4 0l-4.1 2.4c-.7.4-.7 1 0 1.4l11.9 6.9c.7.4 1.7.4 2.4 0l4.1-2.4c.7-.4.6-1 0-1.4m15.5 8.9l-11.9-6.9c-.7-.4-1.7-.4-2.4 0l-4.1 2.4c-.7.4-.7 1 0 1.4l11.9 6.9c.7.4 1.7.4 2.4 0l4.1-2.4c.6-.4.6-1 0-1.4m15.4 8.9l-11.9-6.9c-.7-.4-1.7-.4-2.4 0l-4.1 2.4c-.7.4-.7 1 0 1.4l11.9 6.9c.7.4 1.7.4 2.4 0l4.1-2.4c.7-.4.7-1 0-1.4m61.9 35.8l-11.9-6.9c-.7-.4-1.7-.4-2.4 0l-4.1 2.4c-.7.4-.7 1 0 1.4l11.9 6.9c.7.4 1.7.4 2.4 0l4.1-2.4c.7-.4.7-1 0-1.4m15.5 8.9l-11.9-6.9c-.7-.4-1.7-.4-2.4 0l-4.1 2.4c-.7.4-.7 1 0 1.4l11.9 6.9c.7.4 1.7.4 2.4 0l4.1-2.4c.7-.4.7-1 0-1.4m-46.4-26.8l-11.9-6.9c-.7-.4-1.7-.4-2.4 0l-4.1 2.4c-.7.4-.7 1 0 1.4L280 864c.7.4 1.7.4 2.4 0l4.1-2.4c.6-.4.6-1 0-1.4m15.5 9l-11.9-6.9c-.7-.4-1.7-.4-2.4 0l-4.1 2.4c-.7.4-.7 1 0 1.4l11.9 6.9c.7.4 1.7.4 2.4 0l4.1-2.4c.6-.5.6-1.1 0-1.4m-31-17.9l-11.9-6.9c-.7-.4-1.7-.4-2.4 0l-4.1 2.4c-.7.4-.7 1 0 1.4l11.9 6.9c.7.4 1.7.4 2.4 0l4.1-2.4c.7-.4.7-1 0-1.4m-103.5-50.9l-8.9-5.2c-.7-.4-1.7-.4-2.4 0l-8.9 5.2c-.7.4-.6 1 0 1.4l8.9 5.2c.7.4 1.7.4 2.4 0l8.9-5.2c.6-.4.6-1 0-1.4m12.8 7.4l-8.9-5.2c-.7-.4-1.7-.4-2.4 0l-8.9 5.2c-.7.4-.6 1 0 1.4l8.9 5.2c.7.4 1.7.4 2.4 0l8.9-5.2c.7-.4.7-1 0-1.4m12.5 7.3l-8.9-5.2c-.7-.4-1.7-.4-2.4 0l-8.9 5.2c-.7.4-.6 1 0 1.4l8.9 5.2c.7.4 1.7.4 2.4 0l8.9-5.2c.7-.4.7-1.1 0-1.4m13.4 7.7l-8.9-5.2c-.7-.4-1.7-.4-2.4 0l-8.9 5.2c-.7.4-.6 1 0 1.4l8.9 5.2c.7.4 1.7.4 2.4 0l8.9-5.2c.7-.4.7-1 0-1.4m12.9 7.4l-8.9-5.2c-.7-.4-1.7-.4-2.4 0l-8.9 5.2c-.7.4-.6 1 0 1.4l8.9 5.2c.7.4 1.7.4 2.4 0l8.9-5.2c.6-.4.6-1 0-1.4m12.5 7.2l-8.9-5.2c-.7-.4-1.7-.4-2.4 0l-8.9 5.2c-.7.4-.6 1 0 1.4l8.9 5.2c.7.4 1.7.4 2.4 0l8.9-5.2c.6-.4.6-1 0-1.4m13.4 7.8l-9-5.2c-.7-.4-1.7-.4-2.4 0l-8.9 5.2c-.7.4-.6 1 0 1.4l8.9 5.2c.7.4 1.7.4 2.4 0l8.9-5.2c.8-.4.7-1 .1-1.4m12.8 7.4l-8.9-5.2c-.7-.4-1.7-.4-2.4 0l-8.9 5.2c-.7.4-.6 1 0 1.4l8.9 5.2c.7.4 1.7.4 2.4 0l8.9-5.2c.7-.4.7-1 0-1.4m12.5 7.2l-8.9-5.2c-.7-.4-1.7-.4-2.4 0l-8.9 5.2c-.7.4-.6 1 0 1.4l8.9 5.2c.7.4 1.7.4 2.4 0l8.9-5.2c.7-.4.7-1 0-1.4m12.5 7.2l-8.9-5.2c-.7-.4-1.7-.4-2.4 0l-8.9 5.2c-.7.4-.6 1 0 1.4l8.9 5.2c.7.4 1.7.4 2.4 0l8.9-5.2c.7-.4.7-1 0-1.4m12.9 7.4l-8.9-5.2c-.7-.4-1.7-.4-2.4 0l-8.9 5.2c-.7.4-.6 1 0 1.4l8.9 5.2c.7.4 1.7.4 2.4 0l8.9-5.2c.6-.4.6-1 0-1.4m12.5 7.3l-8.9-5.2c-.7-.4-1.7-.4-2.4 0l-8.9 5.2c-.7.4-.6 1 0 1.4l8.9 5.2c.7.4 1.7.4 2.4 0l8.9-5.2c.7-.4.6-1.1 0-1.4m13.4 7.7l-8.9-5.2c-.7-.4-1.7-.4-2.4 0l-8.9 5.2c-.7.4-.6 1 0 1.4l8.9 5.2c.7.4 1.7.4 2.4 0l8.9-5.2c.7-.4.7-1 0-1.4M174.1 819l-8.9-5.2c-.7-.4-1.7-.4-2.4 0l-8.9 5.2c-.7.4-.6 1 0 1.4l8.9 5.2c.7.4 1.7.4 2.4 0l8.9-5.2c.7-.4.7-1 0-1.4m12.9 7.4l-8.9-5.2c-.7-.4-1.7-.4-2.4 0l-8.9 5.2c-.7.4-.6 1 0 1.4l8.9 5.2c.7.4 1.7.4 2.4 0l8.9-5.2c.6-.4.6-1 0-1.4m12.5 7.2l-8.9-5.2c-.7-.4-1.7-.4-2.4 0l-8.9 5.2c-.7.4-.6 1 0 1.4l8.9 5.2c.7.4 1.7.4 2.4 0l8.9-5.2c.6-.4.6-1 0-1.4m13.4 7.8l-8.9-5.2c-.7-.4-1.7-.4-2.4 0l-8.9 5.2c-.7.4-.6 1 0 1.4l8.9 5.2c.7.4 1.7.4 2.4 0l8.9-5.2c.7-.4.7-1 0-1.4m12.8 7.4l-8.9-5.2c-.7-.4-1.7-.4-2.4 0l-8.9 5.2c-.7.4-.6 1 0 1.4l8.9 5.2c.7.4 1.7.4 2.4 0l8.9-5.2c.7-.4.7-1 0-1.4m12.5 7.2l-8.9-5.2c-.7-.4-1.7-.4-2.4 0L218 856c-.7.4-.6 1 0 1.4l8.9 5.2c.7.4 1.7.4 2.4 0l8.9-5.2c.7-.4.7-1 0-1.4m13.5 7.8l-8.9-5.2c-.7-.4-1.7-.4-2.4 0l-8.9 5.2c-.7.4-.6 1 0 1.4l8.9 5.2c.7.4 1.7.4 2.4 0l8.9-5.2c.6-.4.6-1.1 0-1.4m12.8 7.4l-8.9-5.2c-.7-.4-1.7-.4-2.4 0l-8.9 5.2c-.7.4-.6 1 0 1.4l8.9 5.2c.7.4 1.7.4 2.4 0l8.9-5.2c.6-.4.6-1.1 0-1.4m12.5 7.2l-8.9-5.2c-.7-.4-1.7-.4-2.4 0l-8.9 5.2c-.7.4-.6 1 0 1.4l8.9 5.2c.7.4 1.7.4 2.4 0l8.9-5.2c.7-.4.7-1 0-1.4m12.5 7.2l-8.9-5.2c-.7-.4-1.7-.4-2.4 0l-8.9 5.2c-.7.4-.6 1 0 1.4l8.9 5.2c.7.4 1.7.4 2.4 0l8.9-5.2c.7-.4.7-1 0-1.4m12.8 7.4l-8.9-5.2c-.7-.4-1.7-.4-2.4 0l-8.9 5.2c-.7.4-.6 1 0 1.4l8.9 5.2c.7.4 1.7.4 2.4 0l8.9-5.2c.7-.4.7-1 0-1.4m12.6 7.2L306 895c-.7-.4-1.7-.4-2.4 0l-8.9 5.2c-.7.4-.6 1 0 1.4l8.9 5.2c.7.4 1.7.4 2.4 0l8.9-5.2c.6-.4.6-1 0-1.4m13.3 7.8l-8.9-5.2c-.7-.4-1.7-.4-2.4 0L308 908c-.7.4-.6 1 0 1.4l.6.4c.6.4.6 1 0 1.3l-10.6 6.2c-.7.4-.6 1 0 1.4l6 3.4c.7.4 1.7.4 2.4 0l13-7.6 1.8-1 7.1-4.1c.6-.4.6-1-.1-1.4m12.8-7.4l-15.5-9c-.7-.4-1.7-.4-2.4 0l-8.9 5.2c-.7.4-.6 1 0 1.4l15.5 9c.7.4 1.7.4 2.4 0l8.9-5.2c.6-.4.6-1 0-1.4m-179.7-89l-15.5-9c-.7-.4-1.7-.4-2.4 0l-8.9 5.2c-.7.4-.6 1 0 1.4l15.5 9c.7.4 1.7.4 2.4 0l8.9-5.2c.7-.4.7-1 0-1.4m-15.6 20.5l-8.9-5.2c-.7-.4-1.7-.4-2.4 0l-8.9 5.2c-.7.4-.7 1 0 1.4l8.9 5.2c.7.4 1.7.4 2.4 0l8.9-5.2c.7-.4.7-1 0-1.4m12.8 7.4l-8.9-5.2c-.7-.4-1.7-.4-2.4 0l-8.9 5.2c-.7.4-.7 1 0 1.4l8.9 5.2c.7.4 1.7.4 2.4 0l8.9-5.2c.7-.4.7-1 0-1.4m12.5 7.2l-8.9-5.2c-.7-.4-1.7-.4-2.4 0l-8.9 5.2c-.7.4-.7 1 0 1.4l8.9 5.2c.7.4 1.7.4 2.4 0l8.9-5.2c.7-.4.7-1 0-1.4m13.5 7.8l-8.9-5.2c-.7-.4-1.7-.4-2.4 0l-8.9 5.2c-.7.4-.7 1 0 1.4l8.9 5.2c.7.4 1.7.4 2.4 0l8.9-5.2c.6-.4.6-1.1 0-1.4m12.8 7.4l-8.9-5.2c-.7-.4-1.7-.4-2.4 0l-8.9 5.2c-.7.4-.7 1 0 1.4l8.9 5.2c.7.4 1.7.4 2.4 0l8.9-5.2c.6-.4.6-1.1 0-1.4m12.5 7.2l-8.9-5.2c-.7-.4-1.7-.4-2.4 0l-8.9 5.2c-.7.4-.7 1 0 1.4l8.9 5.2c.7.4 1.7.4 2.4 0l8.9-5.2c.7-.4.6-1 0-1.4m13.4 7.7l-8.9-5.2c-.7-.4-1.7-.4-2.4 0l-8.9 5.2c-.7.4-.7 1 0 1.4l8.9 5.2c.7.4 1.7.4 2.4 0l8.9-5.2c.7-.4.7-1 0-1.4m12.8 7.4l-8.9-5.2c-.7-.4-1.7-.4-2.4 0l-8.9 5.2c-.7.4-.7 1 0 1.4l8.9 5.2c.7.4 1.7.4 2.4 0l8.9-5.2c.7-.4.7-1 0-1.4m12.5 7.3l-8.9-5.2c-.7-.4-1.7-.4-2.4 0l-8.9 5.2c-.7.4-.7 1 0 1.4l8.9 5.2c.7.4 1.7.4 2.4 0l8.9-5.2c.7-.4.7-1.1 0-1.4m12.6 7.2l-8.9-5.2c-.7-.4-1.7-.4-2.4 0l-8.9 5.2c-.7.4-.7 1 0 1.4l8.9 5.2c.7.4 1.7.4 2.4 0l8.9-5.2c.6-.4.6-1 0-1.4m-25.3.2l-8.9-5.2c-.7-.4-1.7-.4-2.4 0l-8.9 5.2c-.7.4-.6 1 0 1.4l8.9 5.2c.7.4 1.7.4 2.4 0l8.9-5.2c.6-.4.6-1 0-1.4m12.5 7.2l-8.9-5.2c-.7-.4-1.7-.4-2.4 0l-8.9 5.2c-.7.4-.6 1 0 1.4l8.9 5.2c.7.4 1.7.4 2.4 0l8.9-5.2c.7-.4.7-1 0-1.4m25.6 0l-8.9-5.2c-.7-.4-1.7-.4-2.4 0l-8.9 5.2c-.7.4-.7 1 0 1.4l8.9 5.2c.7.4 1.7.4 2.4 0l8.9-5.2c.6-.4.6-1 0-1.4m3.3 16.7l-12.5-7.2c-.7-.4-1.7-.4-2.4 0l-3 1.7c-.7.4-.6 1 0 1.4l12.5 7.2c.7.4 1.7.4 2.4 0l3-1.7c.7-.4.7-1 0-1.4m-5.9 3.4l-12.5-7.2c-.7-.4-1.7-.4-2.4 0l-3 1.7c-.7.4-.6 1 0 1.4l12.5 7.2c.7.4 1.7.4 2.4 0l3-1.7c.7-.4.7-1 0-1.4m13.1 7.3l-9.2-5.3c-.7-.4-1.7-.4-2.4 0l-3.3 1.9c-.7.4-.6 1 0 1.4l9.2 5.3c.7.4 1.7.4 2.4 0l3.3-1.9c.7-.4.7-1 0-1.4M255.8 917l-9.2-5.3c-.7-.4-1.7-.4-2.4 0l-3.3 1.9c-.7.4-.6 1 0 1.4l9.2 5.3c.7.4 1.7.4 2.4 0l3.3-1.9c.7-.5.7-1.1 0-1.4m46.7 5.6l-25-14.5c-.7-.4-1.7-.4-2.4 0l-8.9 5.2c-.7.4-.7 1 0 1.4l25 14.5c.7.4 1.7.4 2.4 0l8.9-5.2c.7-.4.7-1 0-1.4m-169.6-97.9l-12.5-7.2c-.7-.4-1.7-.4-2.4 0l-8.9 5.2c-.7.4-.7 1 0 1.4l12.5 7.2c.7.4 1.7.4 2.4 0l8.9-5.2c.6-.4.6-1 0-1.4m6.3 18.4l-8.9-5.2c-.7-.4-1.7-.4-2.4 0l-8.9 5.2c-.7.4-.6 1 0 1.4l8.9 5.2c.7.4 1.7.4 2.4 0l8.9-5.2c.7-.4.7-1 0-1.4m19.7 11.4l-15.8-9.1c-.7-.4-1.7-.4-2.4 0l-8.9 5.2c-.7.4-.6 1 0 1.4l15.8 9.1c.7.4 1.7.4 2.4 0l8.9-5.2c.7-.4.7-1.1 0-1.4m63.8 36.8l-60.2-34.8c-.7-.4-1.7-.4-2.4 0l-8.9 5.2c-.7.4-.6 1 0 1.4l60.2 34.8c.7.4 1.7.4 2.4 0l8.9-5.2c.6-.4.6-1 0-1.4m-96.3-55.6l-18.8-10.8c-.7-.4-1.7-.4-2.4 0l-8.9 5.2c-.7.4-.6 1 0 1.4l18.8 10.8c.7.4 1.7.4 2.4 0l8.9-5.2c.7-.4.7-1 0-1.4m38.6-7.2l-8.9-5.2c-.7-.4-1.7-.4-2.4 0l-8.9 5.2c-.7.4-.7 1 0 1.4l8.9 5.2c.7.4 1.7.4 2.4 0l8.9-5.2c.6-.4.6-1 0-1.4m12.8 7.4l-8.9-5.2c-.7-.4-1.7-.4-2.4 0l-8.9 5.2c-.7.4-.7 1 0 1.4l8.9 5.2c.7.4 1.7.4 2.4 0l8.9-5.2c.7-.4.7-1 0-1.4m12.5 7.2l-8.9-5.2c-.7-.4-1.7-.4-2.4 0l-8.9 5.2c-.7.4-.7 1 0 1.4l8.9 5.2c.7.4 1.7.4 2.4 0l8.9-5.2c.7-.4.7-1 0-1.4m13.4 7.7l-8.9-5.2c-.7-.4-1.7-.4-2.4 0l-8.9 5.2c-.7.4-.7 1 0 1.4l8.9 5.2c.7.4 1.7.4 2.4 0l8.9-5.2c.7-.4.7-1 0-1.4m12.9 7.4l-8.9-5.2c-.7-.4-1.7-.4-2.4 0l-8.9 5.2c-.7.4-.7 1 0 1.4l8.9 5.2c.7.4 1.7.4 2.4 0l8.9-5.2c.6-.4.6-1 0-1.4m12.5 7.3l-8.9-5.2c-.7-.4-1.7-.4-2.4 0l-8.9 5.2c-.7.4-.7 1 0 1.4l8.9 5.2c.7.4 1.7.4 2.4 0l8.9-5.2c.6-.4.6-1 0-1.4m13.4 7.7l-8.9-5.2c-.7-.4-1.7-.4-2.4 0l-8.9 5.2c-.7.4-.7 1 0 1.4l8.9 5.2c.7.4 1.7.4 2.4 0l8.9-5.2c.7-.4.7-1 0-1.4m12.8 7.4l-8.9-5.2c-.7-.4-1.7-.4-2.4 0l-8.9 5.2c-.7.4-.7 1 0 1.4l8.9 5.2c.7.4 1.7.4 2.4 0l8.9-5.2c.7-.4.7-1 0-1.4m12.5 7.3l-8.9-5.2c-.7-.4-1.7-.4-2.4 0l-8.9 5.2c-.7.4-.7 1 0 1.4l8.9 5.2c.7.4 1.7.4 2.4 0l8.9-5.2c.7-.5.7-1.1 0-1.4m12.6 7.2l-8.9-5.2c-.7-.4-1.7-.4-2.4 0l-8.9 5.2c-.7.4-.7 1 0 1.4l8.9 5.2c.7.4 1.7.4 2.4 0l8.9-5.2c.6-.4.6-1 0-1.4m12.8 7.4l-8.9-5.2c-.7-.4-1.7-.4-2.4 0l-8.9 5.2c-.7.4-.7 1 0 1.4l8.9 5.2c.7.4 1.7.4 2.4 0l8.9-5.2c.6-.4.6-1 0-1.4"/><path class="st50" d="M305.7 909.7l-8.9-5.2c-.7-.4-1.7-.4-2.4 0l-8.9 5.2c-.7.4-.7 1 0 1.4l8.9 5.2c.7.4 1.7.4 2.4 0l8.9-5.2c.7-.4.7-1 0-1.4m-153.8-88.8l-18.8-10.8c-.7-.4-1.7-.4-2.4 0l-8.9 5.2c-.7.4-.7 1 0 1.4l18.8 10.8c.7.4 1.7.4 2.4 0l8.9-5.2c.6-.4.6-1 0-1.4m65.3-26.3L196 782.4l-3.8 2.2c-.3.2-.3.5 0 .7l20 11.5c.3.2.9.2 1.2 0l.6-.3-21.2-12.2 1.8-1 21.2 12.2 1.4-.9z"/><path class="st53" d="M215.7 795.5l-21.1-12.2-1.8 1 21.2 12.2z"/><path class="st48" d="M217.3 787.8l-21.2-12.3v6.3l21.2 12.2zm139.8 80.7L336 856.3v6.2l21.1 12.2z"/><path d="M926.4 576.8s-11.8-7-21.2-1.5c-.4.2-16.2 9.5-16.2 9.5L785.4 647s-7.8 4.5 2.8 10.6c.3.2 1.1.6 1.1.6l53.4 30.4s7.5 4.3 15.7-.7l.9-.6 99-59.6 19.5-11.8s6.7-5.6-2.8-11.4c-.4-.2-3.3-1.9-3.3-1.9l-45.3-25.8z" opacity=".2" fill-rule="evenodd" clip-rule="evenodd" fill="#dbdbdb"/><path class="st44" d="M783.8 624s-2.7.1-2.7 1.8c-.1 3.7.1 10.8 7.8 14.8.3.2 1 .7 1 .7l52.4 29.9s6.2 3 13.3-.6c.3-.1 2.1-1.2 2.1-1.2l113.7-68.5s8.4-4.1 7-15.9c-2.2-1.5-4.7-5-4.7-5s-12.3 13-12.3 12.6c0-.4-1.2-.8-1.2-.8l-3.9-2.8-172.5 35z"/><path d="M924.9 551.6s-11.8-7-21.2-1.5c-.4.2-16.2 9.5-16.2 9.5l-103.6 62.2s-7.8 4.5 2.8 10.6c.3.2 1.1.6 1.1.6l53.4 30.4s7.5 4.3 15.7-.7l.9-.6 99-59.6 19.5-11.8s6.7-5.6-2.8-11.4c-.4-.2-3.3-1.9-3.3-1.9l-45.3-25.8z" fill-rule="evenodd" clip-rule="evenodd" fill="#495262"/><path class="st46" d="M966.1 591.8l-107.5 64.6-62.9-36.7L903.1 555z"/><defs><path id="SVGID_13_" d="M839.3 591l-46.5 27.6 68.2 39.3 92.2-55.6z"/></defs><clipPath id="SVGID_14_"><use xlink:href="#SVGID_13_" overflow="visible"/></clipPath><g clip-path="url(#SVGID_14_)"><defs><path id="SVGID_15_" transform="rotate(-.678 190.11 394.172) scale(.99997)" d="M-919.5-56.5h2219.1v901.4H-919.5z"/></defs><clipPath id="SVGID_16_"><use xlink:href="#SVGID_15_" overflow="visible"/></clipPath></g><path d="M814.8 642.8c.5 2.1 3.9 3.4 6.8 2.7 4.6-1.3 4.3-5.1 2.8-6.6-1.1-1.3-3.9-1.9-5.9-1.3-1.3.4-4.5 1.7-3.7 5.2z" fill-rule="evenodd" clip-rule="evenodd" fill="#efefef" stroke="#a8a8a8" stroke-width=".75" stroke-miterlimit="10"/><path d="M818.4 653.3s-1.1 1.8-3 .7c-.1 0-.2-.1-.2-.1l-4.2-2.3s-1.9-.9-1.8-3.3v-.2c0-.1.1-.7.9-.3.9.4 8.1 4.6 8.1 4.6s.5.4.4.8c0-.2-.1 0-.2.1.1-.1.1-.1 0 0z" opacity=".64" fill-rule="evenodd" clip-rule="evenodd" fill="#78909c"/><path fill="#d8d8d8" d="M944.2 571.7l1.6-.9-10.1-5.8-1.5.9z"/><path class="st71" d="M354 600.1l71-41.6v-21.9l-71 41.5z"/><path class="st72" d="M294.3 543.7v21.9l59.7 34.5v-22z"/><path class="st73" d="M297 549.6v2.7l3.1 1.7v-2.6zm0 5.4v2.6l3.1 1.8v-2.7zm0 5.3v2.7l3.1 1.7v-2.6zm4-8.3v2.6l3.1 1.8v-2.7zm0 5.3v2.7l3.1 1.7v-2.6zm0 5.4v2.6l3.1 1.8v-2.7zm4.1-8.3v2.7l3 1.7v-2.6zm0 5.4v2.6l3 1.8v-2.7zm0 5.3v2.7l3 1.7v-2.6zm4-8.3l.1 2.7 3 1.7v-2.6zm0 5.4l.1 2.6 3 1.8v-2.7zm0 5.3l.1 2.7 3 1.7v-2.6zm4.1-8.5v2.7l3.1 1.7v-2.6zm0 5.4v2.6l3.1 1.8v-2.7zm0 5.3v2.7l3.1 1.7v-2.6zm4.1-8.2v2.6l3 1.8v-2.6zm0 5.4v2.6l3 1.7v-2.6zm0 5.3v2.6l3 1.8V574z"/><ellipse transform="rotate(-30 345.386 584.534)" class="st73" cx="345.4" cy="584.5" rx="2.9" ry="5.1"/><path class="st6" d="M344 581.2c-.1.2-.2.5-.2 1 0 1.8 1.4 4.3 3 5.2.4.3 1.2.6 1.6 0 .1-.2.2-.5.2-1 0-1.8-1.4-4.3-3-5.2-.4-.3-1.2-.6-1.6 0z"/><ellipse transform="rotate(-30 338.071 580.112)" class="st16" cx="338.1" cy="580.1" rx="1.8" ry="3.1"/><ellipse transform="rotate(-30 338.356 579.902)" class="st74" cx="338.4" cy="579.9" rx="1.2" ry="2.2"/><ellipse transform="rotate(-30 332.946 577.152)" class="st16" cx="333" cy="577.1" rx="1.8" ry="3.1"/><ellipse transform="rotate(-30 333.23 576.942)" class="st74" cx="333.3" cy="576.9" rx="1.2" ry="2.2"/><path class="st75" d="M317.3 574.8l1.6-1.6-1.6-1zm0-5.3l1.6-1.7-1.6-.9zm0-5.4l1.6-1.6-1.6-1zm-4.1 8.2l1.7-1.6-1.7-1zm0-5.3l1.7-1.7-1.7-.9zm0-5.4l1.7-1.6-1.7-1zm-4 8.6l1.6-1.7-1.6-1zm0-5.4l1.6-1.6-1.6-1zm0-5.3l1.6-1.7-1.6-1zm-4.1 8.3l1.6-1.7-1.6-1zm0-5.4l1.6-1.7-1.6-.9zm0-5.3l1.6-1.7-1.6-1zm-4.1 8.2l1.7-1.6-1.7-1zm0-5.3l1.7-1.7-1.7-1zm0-5.4l1.7-1.6-1.7-1zm-4 8.4l1.7-1.7-1.7-1zm0-5.4l1.7-1.7-1.7-.9zm0-5.3l1.7-1.7-1.7-1z"/><path class="st76" d="M369.8 583.8l31-18.2m-31.1 11.3l31-18.2"/><path class="st77" d="M370.1 583.3l31-18.2M370 576.4l31-18.2"/><path class="st74" d="M425 536.6l-17.1 10-1 .6-52.9 30.9-59.7-34.4 51.8-30.1 2.3-1.4 17.2-10z"/><path class="st78" d="M406.9 547.2l-1.3.7-59.5-34.3 2.3-1.4 59.5 34.4z"/><path class="st79" d="M407.9 568.4l-1.2.7v-22l-59.5-34.3 1.2-.7 59.5 34.3z"/><path class="st78" d="M412.9 543.6l-1.3.8-59.5-34.4 2.4-1.3L414 543z"/><path class="st79" d="M414.4 564.7l-1.2.7v-22l-59.5-34.3 1.2-.7 59.5 34.3z"/><path class="st71" d="M354.3 576l71-41.5v-21.9l-71 41.5z"/><path class="st72" d="M294.6 519.7l.1 21.8 59.6 34.5v-21.9z"/><path class="st73" d="M297.3 525.6v2.6l3.1 1.8v-2.7zm0 5.4v2.6l3.1 1.7v-2.6zm0 5.3v2.6l3.1 1.8v-2.6zm4-8.4l.1 2.7 3 1.7v-2.6zm0 5.4l.1 2.6 3 1.8V535zm0 5.4l.1 2.6 3 1.7v-2.6zm4.1-8.3v2.6l3.1 1.8v-2.6zm0 5.4v2.6l3.1 1.7v-2.6zm0 5.3v2.6l3.1 1.8v-2.6zm4.1-8.3v2.6l3 1.8v-2.6zm0 5.4v2.6l3 1.7v-2.6zm0 5.3v2.6l3 1.8v-2.6zm4-8.5v2.6l3.1 1.8v-2.6zm0 5.4v2.6l3.1 1.7v-2.6zm0 5.3v2.6l3.1 1.8v-2.6zm4.1-8.2v2.6l3 1.8v-2.7zm0 5.3v2.7l3 1.7v-2.6zm0 5.4v2.6l3 1.8v-2.7z"/><ellipse transform="rotate(-30 345.71 560.509)" class="st73" cx="345.7" cy="560.5" rx="2.9" ry="5.1"/><path class="st6" d="M344.4 557.2c-.1.2-.2.5-.2 1 0 1.8 1.4 4.3 3 5.2.4.3 1.2.6 1.6 0 .1-.2.2-.5.2-1 0-1.8-1.4-4.3-3-5.2-.5-.3-1.3-.6-1.6 0z"/><ellipse transform="rotate(-30 338.395 556.087)" class="st16" cx="338.4" cy="556.1" rx="1.8" ry="3.1"/><ellipse transform="rotate(-30 338.68 555.877)" class="st74" cx="338.7" cy="555.9" rx="1.2" ry="2.2"/><ellipse transform="rotate(-30 333.27 553.127)" class="st16" cx="333.3" cy="553.1" rx="1.8" ry="3.1"/><ellipse transform="rotate(-30 333.554 552.918)" class="st74" cx="333.6" cy="552.9" rx="1.2" ry="2.2"/><path class="st75" d="M317.6 550.8l1.6-1.6-1.6-1zm0-5.3l1.6-1.7-1.6-1zm0-5.4l1.6-1.6-1.6-1zm-4 8.2l1.6-1.6-1.6-1zm0-5.3l1.6-1.7-1.6-1zm0-5.4l1.6-1.6-1.6-1zm-4.1 8.5l1.6-1.6-1.6-1zm0-5.3l1.6-1.7-1.6-.9zm0-5.4l1.6-1.6-1.6-1zm-4.1 8.3l1.7-1.6-1.7-1zm0-5.3l1.7-1.7-1.7-.9zm0-5.4l1.7-1.6-1.7-1zm-4 8.3l1.6-1.7-1.7-.9zm-.1-5.4l1.7-1.6-1.7-1zm0-5.3l1.7-1.7-1.7-.9zm-3.9 8.3l1.6-1.6-1.7-1zm0-5.3l1.6-1.7-1.7-.9zm0-5.4l1.6-1.6-1.7-1z"/><path class="st76" d="M370.1 559.8l31.1-18.2M370 552.9l31-18.2"/><path class="st77" d="M370.4 559.3l31.1-18.2m-31.2 11.3l31-18.2"/><path class="st74" d="M425.3 512.6l-17.1 9.9-1 .7-52.9 30.9-59.7-34.4 51.8-30.1 2.4-1.4 17.1-10z"/><path class="st78" d="M407.2 523.2l-1.3.7-59.5-34.3 2.4-1.4 59.4 34.3z"/><path class="st79" d="M408.2 544.4l-1.2.6v-21.9l-59.4-34.3 1.1-.7 59.5 34.3z"/><path class="st78" d="M413.2 519.6l-1.3.8-59.5-34.4 2.4-1.4 59.5 34.4z"/><path class="st79" d="M414.7 540.7l-1.2.6v-21.9L354 485.1l1.2-.7 59.5 34.3z"/><path class="st71" d="M354.3 551.8l71-41.6v-21.9l-71 41.5z"/><path class="st72" d="M294.6 495.4l.1 21.9 59.6 34.5v-22z"/><path class="st73" d="M297.3 501.3v2.7l3.1 1.7v-2.6zm0 5.4v2.6l3.1 1.8v-2.7zm0 5.3v2.7l3.1 1.7v-2.6zm4-8.3l.1 2.6 3 1.8v-2.7zm0 5.3l.1 2.7 3 1.7v-2.6zm0 5.4l.1 2.6 3 1.8v-2.7zm4.1-8.3v2.7l3.1 1.7v-2.6zm0 5.4v2.6l3.1 1.8v-2.7zm0 5.3v2.7l3.1 1.7v-2.6zm4.1-8.3v2.7l3 1.7v-2.6zm0 5.4v2.6l3 1.8v-2.7zm0 5.4v2.6l3 1.7V521zm4-8.6v2.7l3.1 1.7v-2.6zm0 5.4v2.6l3.1 1.8v-2.7zm0 5.3v2.7l3.1 1.7v-2.6zm4.1-8.2v2.6l3 1.8V515zm0 5.4v2.6l3 1.7v-2.6zm0 5.3v2.6l3 1.8v-2.6z"/><ellipse transform="rotate(-30 345.711 536.242)" class="st73" cx="345.7" cy="536.2" rx="2.9" ry="5.1"/><path class="st6" d="M344.4 532.9c-.1.2-.2.5-.2 1 0 1.8 1.4 4.3 3 5.2.4.3 1.2.6 1.6 0 .1-.2.2-.5.2-1 0-1.8-1.4-4.3-3-5.2-.5-.2-1.3-.6-1.6 0z"/><ellipse transform="rotate(-30 338.397 531.82)" class="st16" cx="338.4" cy="531.8" rx="1.8" ry="3.1"/><ellipse transform="rotate(-30 338.68 531.61)" class="st74" cx="338.7" cy="531.6" rx="1.2" ry="2.2"/><ellipse transform="rotate(-30 333.27 528.86)" class="st16" cx="333.3" cy="528.9" rx="1.8" ry="3.1"/><ellipse transform="rotate(-30 333.555 528.65)" class="st74" cx="333.6" cy="528.6" rx="1.2" ry="2.2"/><path class="st75" d="M317.6 526.5l1.6-1.6-1.6-1zm0-5.3l1.6-1.7-1.6-.9zm0-5.4l1.6-1.6-1.6-1zm-4 8.3l1.6-1.7-1.6-1zm0-5.4l1.6-1.7-1.6-.9zm0-5.3l1.6-1.7-1.6-1zm-4.1 8.5l1.6-1.7-1.6-.9zm0-5.4l1.6-1.6-1.6-1zm0-5.3l1.6-1.7-1.6-.9zm-4.1 8.3l1.7-1.7-1.7-1zm0-5.4l1.7-1.6-1.7-1zm0-5.3l1.7-1.7-1.7-1zm-4 8.2l1.6-1.6-1.7-1zm-.1-5.3l1.7-1.7-1.7-.9zm0-5.4l1.7-1.6-1.7-1zm-3.9 8.4l1.6-1.7-1.7-1zm0-5.4l1.6-1.6-1.7-1zm0-5.3l1.6-1.7-1.7-1z"/><path class="st76" d="M370.1 535.5l31.1-18.2M370 528.6l31-18.2"/><path class="st77" d="M370.4 535l31.1-18.2m-31.2 11.3l31-18.2"/><path fill="#f2f2f2" d="M425.3 488.3l-17.1 10-1 .6-52.9 30.9-59.7-34.4 51.8-30.1 2.4-1.4 17.1-10z"/><path class="st78" d="M407.2 498.9l-1.3.7-59.5-34.3 2.4-1.4 59.4 34.4z"/><path class="st79" d="M408.2 520.1l-1.2.7v-22l-59.4-34.3 1.1-.7 59.5 34.4z"/><path class="st78" d="M413.2 495.3l-1.3.8-59.5-34.4 2.4-1.3 59.5 34.3z"/><path class="st79" d="M414.7 516.4l-1.2.7v-22L354 460.8l1.2-.7 59.5 34.4z"/><defs><path id="SVGID_17_" d="M342.1 196.1l4.4 2.6 1-.6-4.5-2.5z"/></defs><clipPath id="SVGID_18_"><use xlink:href="#SVGID_17_" overflow="visible"/></clipPath><g clip-path="url(#SVGID_18_)"><defs><path id="SVGID_19_" d="M-433.1-40.5H728v471.6H-433.1z"/></defs><clipPath id="SVGID_20_"><use xlink:href="#SVGID_19_" overflow="visible"/></clipPath><path clip-path="url(#SVGID_20_)" fill="#fff" d="M337.8 191.3h13.9v11.6h-13.9z"/></g><path class="st29" d="M339.2 200.5l-62 36.8 81.9 48.3 62.1-37.1z"/><path d="M339.2 199.2l4.1-2.5s1.3-1 2.9-.1c.1 0 .2.2.2.2l77.1 45.3s.8.3 1.4 1.5c0 .1.6 2.3-.3 3l-2.3 1.4-83.1-48.8z" fill-rule="evenodd" clip-rule="evenodd" fill="#4285f4"/><path d="M421.2 248.5v-1.3l-82-48v1.3zm0-1.3l3.2-1.9s.1 0 .1-.1c.2-.2.7-.6.6-1.2l.1.2c.2 1.2.3 3.3-.6 4-.1.1-.2.1-.2.1l-3.2 2v-3.1z" fill="#2a56c6" fill-rule="evenodd" clip-rule="evenodd"/><path class="st31" d="M421.2 248.5v1.9L359 287.3 276.9 239v-1.9l82.2 48.5z"/><path class="st85" d="M347.3 241.7l-28.4 16.7 20 11.7 28.4-16.7z"/><path class="st86" d="M347.3 241l-28.4 16.7 20 11.7 28.4-16.7z"/><path class="st85" d="M361.2 258.9l-20 11.8 20 11.7 20-11.7z"/><path class="st87" d="M361.2 257.5l-20 11.7 20 11.7 20-11.7z"/><path class="st86" d="M361.2 257.8l-20 11.7 20 11.8 20-11.8z"/><defs><path id="SVGID_21_" d="M350.5 271.5l10.3-6-3.2-1.8-10.5 5.8z"/></defs><clipPath id="SVGID_22_"><use xlink:href="#SVGID_21_" overflow="visible"/></clipPath><g clip-path="url(#SVGID_22_)"><defs><path id="SVGID_23_" d="M-113.9 59.3H573v279h-686.9z"/></defs><clipPath id="SVGID_24_"><use xlink:href="#SVGID_23_" overflow="visible"/></clipPath><path clip-path="url(#SVGID_24_)" fill="#dcedc8" d="M344.6 261.1h18.8V274h-18.8z"/></g><path class="st87" d="M318 233l-20 11.8 20 11.7 20-11.7z"/><path class="st86" d="M318 232.4l-20 11.7 20 11.7 20-11.7z"/><path class="st85" d="M340.6 219.7l-20 11.7 20 11.8 20-11.8z"/><path class="st86" d="M340.6 219.1l-20 11.7 20 11.7 20-11.7z"/><path class="st85" d="M352.6 212.4l-9.7 5.7 19.9 11.8 9.8-5.8z"/><path class="st86" d="M352.6 211.7l-9.7 5.8 19.9 11.7 9.8-5.8z"/><path class="st87" d="M375.8 228.4l-19.9 11.7 19.9 11.7 20-11.7z"/><defs><path id="SVGID_25_" d="M375.8 217.7l-19.9 11.8 19.9 11.7 20-11.8z"/></defs><clipPath id="SVGID_26_"><use xlink:href="#SVGID_25_" overflow="visible"/></clipPath><g clip-path="url(#SVGID_26_)"><defs><path id="SVGID_27_" d="M-113.9 58.3H573v279h-686.9z"/></defs><clipPath id="SVGID_28_"><use xlink:href="#SVGID_27_" overflow="visible"/></clipPath><path opacity=".12" clip-path="url(#SVGID_28_)" d="M353.3 215.2h45v28.5h-45z"/></g><path class="st86" d="M375.8 217.1l-19.9 11.7 19.9 11.7 20-11.7z"/><path class="st85" d="M397.1 237.7l-28.3 16.7 19.9 11.7 28.4-16.7z"/><path class="st87" d="M397.1 233.2l-28.3 16.7 19.9 11.7 28.4-16.7z"/><path class="st86" d="M397.1 232.4l-28.3 16.7 19.9 11.7 28.4-16.7z"/><path d="M325.2 212.6l3.7 2.3 2.1-1.3-3.8-2.2zm4.3-2.8l7.2 4.3 2.1-1.3-7.2-4.3z" fill="#d8dbdd" fill-rule="evenodd" clip-rule="evenodd"/><defs><path id="SVGID_29_" d="M334 206.9l10.2 6 2.2-1.2-10.3-6z"/></defs><use xlink:href="#SVGID_29_" overflow="visible" fill-rule="evenodd" clip-rule="evenodd" fill="#d8dbdd"/><clipPath id="SVGID_30_"><use xlink:href="#SVGID_29_" overflow="visible"/></clipPath><g clip-path="url(#SVGID_30_)"><defs><path id="SVGID_31_" d="M-113.9 58.3H573v279h-686.9z"/></defs><use xlink:href="#SVGID_31_" overflow="visible" fill="#d8dbdd"/><clipPath id="SVGID_32_"><use xlink:href="#SVGID_31_" overflow="visible"/></clipPath><path clip-path="url(#SVGID_32_)" fill="#d8dbdd" d="M331.5 203.1h17.4v12.3h-17.4z"/></g><defs><path id="SVGID_33_" d="M342.6 199.6l2.6 1.5.6-.3-2.7-1.5z"/></defs><clipPath id="SVGID_34_"><use xlink:href="#SVGID_33_" overflow="visible"/></clipPath><g clip-path="url(#SVGID_34_)"><defs><path id="SVGID_35_" d="M-113.9 58.3H573v279h-686.9z"/></defs><clipPath id="SVGID_36_"><use xlink:href="#SVGID_35_" overflow="visible"/></clipPath><path clip-path="url(#SVGID_36_)" fill="#fff" d="M340.1 196.8h8.2v6.9h-8.2z"/></g><defs><path id="SVGID_37_" d="M343.6 199l2.7 1.5.5-.3-2.6-1.5z"/></defs><clipPath id="SVGID_38_"><use xlink:href="#SVGID_37_" overflow="visible"/></clipPath><g clip-path="url(#SVGID_38_)"><defs><path id="SVGID_39_" d="M-113.9 58.3H573v279h-686.9z"/></defs><clipPath id="SVGID_40_"><use xlink:href="#SVGID_39_" overflow="visible"/></clipPath><path clip-path="url(#SVGID_40_)" fill="#fff" d="M341.1 196.1h8.2v6.9h-8.2z"/></g><defs><path id="SVGID_41_" d="M344.7 198.3l2.6 1.5.6-.3-2.7-1.5z"/></defs><clipPath id="SVGID_42_"><use xlink:href="#SVGID_41_" overflow="visible"/></clipPath><g clip-path="url(#SVGID_42_)"><defs><path id="SVGID_43_" d="M-113.9 58.3H573v279h-686.9z"/></defs><clipPath id="SVGID_44_"><use xlink:href="#SVGID_43_" overflow="visible"/></clipPath><path clip-path="url(#SVGID_44_)" fill="#fff" d="M342.1 195.5h8.2v6.9h-8.2z"/></g><defs><path id="SVGID_45_" d="M373.2 222.7c.7-.2 1.4.1 1.4.5l-.4.1.3-.1c.1.2-.1.7-.6 1l-.6.3-.4 5.5c.6-.1 1 .2 1.1.5l8.4-2.2c0-.4.5-1 1.4-1.2.7-.2 1.4.1 1.4.5l-.4.1.4-.1c.1.3-.1.7-.7 1.1l-.6.3-.4 2.6c.5 0 .9.2.9.5l-.4.1.4-.1v.2h.1l2.2-.4.3-.1v.4l-.3.1-2.2.4h-.2c-.1.2-.3.4-.6.5-.8.5-1.9.4-2.1-.1-.3-.5.3-1.2 1.3-1.4l.4-2.6c-.4 0-.7-.1-.8-.3l-8.5 2.3c-.1.2-.3.5-.7.7-.7.5-1.9.4-2-.2-.3-.4.2-1.1 1-1.3l.4-5.6c-.4 0-.7-.2-.9-.4l-5.4 1.4c0 .3-.2.6-.7.9-.7.5-1.8.3-2-.2-.3-.5.3-1.2 1.3-1.3.5-.1 1.1 0 1.3.3l5.4-1.4c.2-.6.7-1.1 1.5-1.3z"/></defs><clipPath id="SVGID_46_"><use xlink:href="#SVGID_45_" overflow="visible"/></clipPath><g clip-path="url(#SVGID_46_)"><defs><path id="SVGID_47_" d="M-113.9 58.3H573v279h-686.9z"/></defs><clipPath id="SVGID_48_"><use xlink:href="#SVGID_47_" overflow="visible"/></clipPath><path clip-path="url(#SVGID_48_)" fill="#b3e5fc" d="M361.3 220.1h28.4v15.7h-28.4z"/></g><path class="st103" d="M379.7 250.2l3.6 2.3 2.2-1.3-3.8-2.2zm3.7-2.1l10.2 6 2.2-1.2-10.4-6zm4.3-2.3l7.2 4.3 2.1-1.2-7.2-4.3zm3.8-2.2l10.2 6 2.2-1.2-10.4-6z"/><defs><path id="SVGID_49_" d="M375.9 248.2l1.8 1.1 2.1-1.3-1.9-1.1z"/></defs><clipPath id="SVGID_50_"><use xlink:href="#SVGID_49_" overflow="visible"/></clipPath><g clip-path="url(#SVGID_50_)"><defs><path id="SVGID_51_" d="M-113.9 58.3H573v279h-686.9z"/></defs><clipPath id="SVGID_52_"><use xlink:href="#SVGID_51_" overflow="visible"/></clipPath><path clip-path="url(#SVGID_52_)" fill="#a1c2fa" d="M373.4 244.4h8.9v7.4h-8.9z"/></g><defs><path id="SVGID_53_" d="M380 245.8l1.8 1.2 2.1-1.3-1.9-1.1z"/></defs><clipPath id="SVGID_54_"><use xlink:href="#SVGID_53_" overflow="visible"/></clipPath><g clip-path="url(#SVGID_54_)"><defs><path id="SVGID_55_" d="M-113.9 58.3H573v279h-686.9z"/></defs><clipPath id="SVGID_56_"><use xlink:href="#SVGID_55_" overflow="visible"/></clipPath><path clip-path="url(#SVGID_56_)" fill="#a1c2fa" d="M377.4 242.1h8.9v7.4h-8.9z"/></g><defs><path id="SVGID_57_" d="M384.1 243.6l1.8 1.2 2.1-1.3-1.9-1.1z"/></defs><clipPath id="SVGID_58_"><use xlink:href="#SVGID_57_" overflow="visible"/></clipPath><g clip-path="url(#SVGID_58_)"><defs><path id="SVGID_59_" d="M-113.9 58.3H573v279h-686.9z"/></defs><clipPath id="SVGID_60_"><use xlink:href="#SVGID_59_" overflow="visible"/></clipPath><path clip-path="url(#SVGID_60_)" fill="#a1c2fa" d="M381.6 239.8h8.9v7.4h-8.9z"/></g><defs><path id="SVGID_61_" d="M387.8 241.4l1.8 1.1 2.1-1.2-1.9-1.2z"/></defs><clipPath id="SVGID_62_"><use xlink:href="#SVGID_61_" overflow="visible"/></clipPath><g clip-path="url(#SVGID_62_)"><defs><path id="SVGID_63_" d="M-113.9 58.3H573v279h-686.9z"/></defs><clipPath id="SVGID_64_"><use xlink:href="#SVGID_63_" overflow="visible"/></clipPath><path clip-path="url(#SVGID_64_)" fill="#a1c2fa" d="M385.3 237.6h8.9v7.4h-8.9z"/></g><path class="st103" d="M393 237.9l10.2 6 2.2-1.2-10.4-6z"/><path d="M346 532.9c-.2-.1-.4-.2-.7-.3-.4.3-.8.7-1.1 1.1-.3.5-.5 1.1-.5 1.8 0 2 1.6 3.6 3.5 3.6h.3c.5 0 .9-.1 1.3-.3.1-.3.1-.4.1-.8 0-1.8-1.4-4.2-2.9-5.1zm0 24.2c-.2-.1-.4-.2-.7-.3-.4.3-.8.7-1.1 1.1-.3.5-.5 1.1-.5 1.8 0 2 1.6 3.6 3.5 3.6h.3c.5 0 .9-.1 1.3-.3.1-.3.1-.4.1-.8 0-1.8-1.4-4.2-2.9-5.1zm-.4 24.1c-.2-.1-.4-.2-.7-.3-.4.3-.8.7-1.1 1.1-.3.5-.5 1.1-.5 1.8 0 2 1.6 3.6 3.5 3.6h.3c.5 0 .9-.1 1.3-.3.1-.3.1-.4.1-.8.1-1.9-1.3-4.2-2.9-5.1z" fill="#82ceec"/><path d="M740.8 302.1l3.7-2.1c1.4-.8 3.3-.3 4.1 1.1.8 1.4.3 3.3-1.1 4.1l-3.2 1.8c-.1.1-2.1-.8-3.5-4.9z" fill="#4cc99f"/><path class="st9" d="M578 179.3c5.7 0 11.4-1.3 15.7-3.8l64-37V135l-65.4 38c-7.8 4.6-20.6 4.6-28.5 0l-66.2-38.1v3.5l64.7 37.2c4.3 2.5 10 3.7 15.7 3.7z"/><path class="st9" d="M563.7 185.7l-66.2-38.1v3.5l64.8 37.3c4.4 2.5 10.1 3.8 15.8 3.8s11.4-1.3 15.7-3.8l63.9-36.9V148l-65.4 37.8c-7.9 4.4-20.7 4.4-28.6-.1z"/><path class="st9" d="M578 166.7c5.7 0 11.4-1.3 15.7-3.8l64-37v-3.5l-65.5 37.9c-7.8 4.6-20.6 4.6-28.5 0l-66.2-38.1v3.5l64.7 37.2c4.4 2.5 10.1 3.8 15.8 3.8z"/><path class="st9" d="M578 179.3c5.7 0 11.4-1.3 15.7-3.8l64-37V135l-65.4 38c-7.8 4.6-20.6 4.6-28.5 0l-66.2-38.1v3.5l64.7 37.2c4.3 2.5 10 3.7 15.7 3.7z"/><path class="st9" d="M563.7 185.7l-66.2-38.1v3.5l64.8 37.3c4.4 2.5 10.1 3.8 15.8 3.8s11.4-1.3 15.7-3.8l63.9-36.9V148l-65.4 37.8c-7.9 4.4-20.7 4.4-28.6-.1z"/><path class="st9" d="M578 166.7c5.7 0 11.4-1.3 15.7-3.8l64-37v-3.5l-65.5 37.9c-7.8 4.6-20.6 4.6-28.5 0l-66.2-38.1v3.5l64.7 37.2c4.4 2.5 10.1 3.8 15.8 3.8z"/><path class="st115" d="M592.3 173c-7.8 4.6-20.6 4.6-28.5 0l-66.2-38.1v3.5-2.6l66.2 38.1c7.9 4.6 20.7 4.6 28.5 0l65.5-37.8v-.8L592.3 173z"/><path class="st115" d="M592.3 185.7c-7.8 4.6-20.6 4.6-28.5 0l-66.2-38.1v3.5-2.6l66.2 38.1c7.9 4.6 20.7 4.6 28.5 0l65.4-37.8v-.8l-65.4 37.7z"/><path class="st115" d="M563.7 161.1c7.9 4.6 20.7 4.6 28.5 0l65.5-37.9v-.8l-65.5 37.9c-7.8 4.6-20.6 4.6-28.5 0l-66.2-38.1v3.5-2.6l66.2 38z"/><path class="st116" d="M592.3 176c-7.8 4.6-20.6 4.6-28.5 0l-66.2-38.1v3.5-2.6l66.2 38.1c7.9 4.6 20.7 4.6 28.5 0l65.5-37.8v-.8L592.3 176z"/><path class="st116" d="M592.3 188.7c-7.8 4.6-20.6 4.6-28.5 0l-66.2-38.1v3.5-2.6l66.2 38.1c7.9 4.6 20.7 4.6 28.5 0l65.4-37.8v-.8l-65.4 37.7z"/><path class="st116" d="M563.7 164.1c7.9 4.6 20.7 4.6 28.5 0l65.5-37.9v-.8l-65.5 37.9c-7.8 4.6-20.6 4.6-28.5 0l-66.2-38.1v3.5-2.6l66.2 38z"/></svg>