<?xml version="1.0" standalone="yes"?>

<svg version="1.1" viewBox="0.0 0.0 801.0 269.0" fill="none" stroke="none" stroke-linecap="square" stroke-miterlimit="10" xmlns="http://www.w3.org/2000/svg" xmlns:xlink="http://www.w3.org/1999/xlink"><clipPath id="p.0"><path d="m0 0l801.0 0l0 269.0l-801.0 0l0 -269.0z" clip-rule="nonzero"></path></clipPath><g clip-path="url(#p.0)"><path fill="#000000" fill-opacity="0.0" d="m0 0l801.0 0l0 269.0l-801.0 0z" fill-rule="nonzero"></path><path fill="#000000" fill-opacity="0.0" d="m296.3727 2.5223098l502.61417 0l0 262.67715l-502.61417 0z" fill-rule="nonzero"></path><path stroke="#000000" stroke-width="2.0" stroke-linejoin="round" stroke-linecap="butt" stroke-dasharray="8.0,6.0" d="m296.3727 2.5223098l502.61417 0l0 262.67715l-502.61417 0z" fill-rule="nonzero"></path><path fill="#d9d9d9" d="m313.5853 100.40685l161.07086 0l0 65.25985l-161.07086 0z" fill-rule="nonzero"></path><path stroke="#000000" stroke-width="2.0" stroke-linejoin="round" stroke-linecap="butt" d="m313.5853 100.40685l161.07086 0l0 65.25985l-161.07086 0z" fill-rule="nonzero"></path><path fill="#000000" d="m332.86407 128.95677l0 -13.59375l1.84375 0l7.140625 10.671875l0 -10.671875l1.71875 0l0 13.59375l-1.84375 0l-7.140625 -10.6875l0 10.6875l-1.71875 0zm19.847961 -5.328125l0 -1.609375l5.765625 0l0 5.046875q-1.328125 1.0625 -2.75 1.59375q-1.40625 0.53125 -2.890625 0.53125q-2.0 0 -3.640625 -0.859375q-1.625 -0.859375 -2.46875 -2.484375q-0.828125 -1.625 -0.828125 -3.625q0 -1.984375 0.828125 -3.703125q0.828125 -1.71875 2.390625 -2.546875q1.5625 -0.84375 3.59375 -0.84375q1.46875 0 2.65625 0.484375q1.203125 0.46875 1.875 1.328125q0.671875 0.84375 1.03125 2.21875l-1.625 0.4375q-0.3125 -1.03125 -0.765625 -1.625q-0.453125 -0.59375 -1.296875 -0.953125q-0.84375 -0.359375 -1.875 -0.359375q-1.234375 0 -2.140625 0.375q-0.890625 0.375 -1.453125 1.0q-0.546875 0.609375 -0.84375 1.34375q-0.53125 1.25 -0.53125 2.734375q0 1.8125 0.625 3.046875q0.640625 1.21875 1.828125 1.8125q1.203125 0.59375 2.546875 0.59375q1.171875 0 2.28125 -0.453125q1.109375 -0.453125 1.6875 -0.953125l0 -2.53125l-4.0 0zm8.448914 5.328125l0 -13.59375l1.8125 0l0 13.59375l-1.8125 0zm4.870819 0l0 -13.59375l1.84375 0l7.140625 10.671875l0 -10.671875l1.71875 0l0 13.59375l-1.84375 0l-7.140625 -10.6875l0 10.6875l-1.71875 0zm12.097931 0l5.265625 -7.09375l-4.640625 -6.5l2.140625 0l2.46875 3.484375q0.78125 1.078125 1.09375 1.671875q0.453125 -0.75 1.078125 -1.546875l2.734375 -3.609375l1.96875 0l-4.78125 6.40625l5.140625 7.1875l-2.21875 0l-3.421875 -4.859375q-0.296875 -0.40625 -0.59375 -0.90625q-0.453125 0.75 -0.65625 1.03125l-3.40625 4.734375l-2.171875 0zm19.064392 0l0 -13.59375l1.8125 0l0 5.578125l7.0625 0l0 -5.578125l1.796875 0l0 13.59375l-1.796875 0l0 -6.40625l-7.0625 0l0 6.40625l-1.8125 0zm16.87918 0l0 -12.0l-4.46875 0l0 -1.59375l10.765625 0l0 1.59375l-4.5 0l0 12.0l-1.796875 0zm11.395996 0l0 -12.0l-4.46875 0l0 -1.59375l10.765625 0l0 1.59375l-4.5 0l0 12.0l-1.796875 0zm7.9428406 0l0 -13.59375l5.125 0q1.359375 0 2.078125 0.125q1.0 0.171875 1.671875 0.640625q0.671875 0.46875 1.078125 1.3125q0.421875 0.84375 0.421875 1.84375q0 1.734375 -1.109375 2.9375q-1.09375 1.203125 -3.984375 1.203125l-3.484375 0l0 5.53125l-1.796875 0zm1.796875 -7.140625l3.515625 0q1.75 0 2.46875 -0.640625q0.734375 -0.65625 0.734375 -1.828125q0 -0.859375 -0.4375 -1.46875q-0.421875 -0.609375 -1.125 -0.796875q-0.453125 -0.125 -1.671875 -0.125l-3.484375 0l0 4.859375zm10.037323 2.765625l1.6875 -0.140625q0.125 1.015625 0.5625 1.671875q0.4375 0.65625 1.359375 1.0625q0.9375 0.40625 2.09375 0.40625q1.03125 0 1.8125 -0.3125q0.796875 -0.3125 1.1875 -0.84375q0.390625 -0.53125 0.390625 -1.15625q0 -0.640625 -0.375 -1.109375q-0.375 -0.484375 -1.234375 -0.8125q-0.546875 -0.21875 -2.421875 -0.65625q-1.875 -0.453125 -2.625 -0.859375q-0.96875 -0.515625 -1.453125 -1.265625q-0.46875 -0.75 -0.46875 -1.6875q0 -1.03125 0.578125 -1.921875q0.59375 -0.90625 1.703125 -1.359375q1.125 -0.46875 2.5 -0.46875q1.515625 0 2.671875 0.484375q1.15625 0.484375 1.765625 1.4375q0.625 0.9375 0.671875 2.140625l-1.71875 0.125q-0.140625 -1.28125 -0.953125 -1.9375q-0.796875 -0.671875 -2.359375 -0.671875q-1.625 0 -2.375 0.609375q-0.75 0.59375 -0.75 1.4375q0 0.734375 0.53125 1.203125q0.515625 0.46875 2.703125 0.96875q2.203125 0.5 3.015625 0.875q1.1875 0.546875 1.75 1.390625q0.578125 0.828125 0.578125 1.921875q0 1.09375 -0.625 2.0625q-0.625 0.953125 -1.796875 1.484375q-1.15625 0.53125 -2.609375 0.53125q-1.84375 0 -3.09375 -0.53125q-1.25 -0.546875 -1.96875 -1.625q-0.703125 -1.078125 -0.734375 -2.453125z" fill-rule="nonzero"></path><path fill="#000000" d="m335.35223 150.95677l0 -13.59375l1.796875 0l0 11.984375l6.703125 0l0 1.609375l-8.5 0zm9.610107 -4.921875q0 -2.734375 1.53125 -4.0625q1.265625 -1.09375 3.09375 -1.09375q2.03125 0 3.3125 1.34375q1.296875 1.328125 1.296875 3.671875q0 1.90625 -0.578125 3.0q-0.5625 1.078125 -1.65625 1.6875q-1.078125 0.59375 -2.375 0.59375q-2.0625 0 -3.34375 -1.328125q-1.28125 -1.328125 -1.28125 -3.8125zm1.71875 0q0 1.890625 0.828125 2.828125q0.828125 0.9375 2.078125 0.9375q1.25 0 2.0625 -0.9375q0.828125 -0.953125 0.828125 -2.890625q0 -1.828125 -0.828125 -2.765625q-0.828125 -0.9375 -2.0625 -0.9375q-1.25 0 -2.078125 0.9375q-0.828125 0.9375 -0.828125 2.828125zm15.719452 3.703125q-0.9375 0.796875 -1.796875 1.125q-0.859375 0.3125 -1.84375 0.3125q-1.609375 0 -2.484375 -0.78125q-0.875 -0.796875 -0.875 -2.03125q0 -0.734375 0.328125 -1.328125q0.328125 -0.59375 0.859375 -0.953125q0.53125 -0.359375 1.203125 -0.546875q0.5 -0.140625 1.484375 -0.25q2.03125 -0.25 2.984375 -0.578125q0 -0.34375 0 -0.4375q0 -1.015625 -0.46875 -1.4375q-0.640625 -0.5625 -1.90625 -0.5625q-1.171875 0 -1.734375 0.40625q-0.5625 0.40625 -0.828125 1.46875l-1.640625 -0.234375q0.234375 -1.046875 0.734375 -1.6875q0.515625 -0.640625 1.46875 -0.984375q0.96875 -0.359375 2.25 -0.359375q1.265625 0 2.046875 0.296875q0.78125 0.296875 1.15625 0.75q0.375 0.453125 0.515625 1.140625q0.09375 0.421875 0.09375 1.53125l0 2.234375q0 2.328125 0.09375 2.953125q0.109375 0.609375 0.4375 1.171875l-1.75 0q-0.265625 -0.515625 -0.328125 -1.21875zm-0.140625 -3.71875q-0.90625 0.359375 -2.734375 0.625q-1.03125 0.140625 -1.453125 0.328125q-0.421875 0.1875 -0.65625 0.546875q-0.234375 0.359375 -0.234375 0.796875q0 0.671875 0.5 1.125q0.515625 0.4375 1.484375 0.4375q0.96875 0 1.71875 -0.421875q0.75 -0.4375 1.109375 -1.15625q0.265625 -0.578125 0.265625 -1.671875l0 -0.609375zm10.469482 4.9375l0 -1.25q-0.9375 1.46875 -2.75 1.46875q-1.171875 0 -2.171875 -0.640625q-0.984375 -0.65625 -1.53125 -1.8125q-0.53125 -1.171875 -0.53125 -2.6875q0 -1.46875 0.484375 -2.671875q0.5 -1.203125 1.46875 -1.84375q0.984375 -0.640625 2.203125 -0.640625q0.890625 0 1.578125 0.375q0.703125 0.375 1.140625 0.984375l0 -4.875l1.65625 0l0 13.59375l-1.546875 0zm-5.28125 -4.921875q0 1.890625 0.796875 2.828125q0.8125 0.9375 1.890625 0.9375q1.09375 0 1.859375 -0.890625q0.765625 -0.890625 0.765625 -2.734375q0 -2.015625 -0.78125 -2.953125q-0.78125 -0.953125 -1.921875 -0.953125q-1.109375 0 -1.859375 0.90625q-0.75 0.90625 -0.75 2.859375zm14.590271 4.921875l0 -13.59375l5.109375 0q1.546875 0 2.484375 0.40625q0.953125 0.40625 1.484375 1.265625q0.53125 0.859375 0.53125 1.796875q0 0.875 -0.46875 1.65625q-0.46875 0.765625 -1.4375 1.234375q1.234375 0.359375 1.890625 1.234375q0.671875 0.875 0.671875 2.0625q0 0.953125 -0.40625 1.78125q-0.390625 0.8125 -0.984375 1.265625q-0.59375 0.4375 -1.5 0.671875q-0.890625 0.21875 -2.1875 0.21875l-5.1875 0zm1.796875 -7.890625l2.9375 0q1.203125 0 1.71875 -0.15625q0.6875 -0.203125 1.03125 -0.671875q0.359375 -0.46875 0.359375 -1.1875q0 -0.671875 -0.328125 -1.1875q-0.328125 -0.515625 -0.9375 -0.703125q-0.59375 -0.203125 -2.0625 -0.203125l-2.71875 0l0 4.109375zm0 6.28125l3.390625 0q0.875 0 1.21875 -0.0625q0.625 -0.109375 1.046875 -0.359375q0.421875 -0.265625 0.6875 -0.765625q0.265625 -0.5 0.265625 -1.140625q0 -0.765625 -0.390625 -1.328125q-0.390625 -0.5625 -1.078125 -0.78125q-0.6875 -0.234375 -1.984375 -0.234375l-3.15625 0l0 4.671875zm16.943573 0.390625q-0.9375 0.796875 -1.796875 1.125q-0.859375 0.3125 -1.84375 0.3125q-1.609375 0 -2.484375 -0.78125q-0.875 -0.796875 -0.875 -2.03125q0 -0.734375 0.328125 -1.328125q0.328125 -0.59375 0.859375 -0.953125q0.53125 -0.359375 1.203125 -0.546875q0.5 -0.140625 1.484375 -0.25q2.03125 -0.25 2.984375 -0.578125q0 -0.34375 0 -0.4375q0 -1.015625 -0.46875 -1.4375q-0.640625 -0.5625 -1.90625 -0.5625q-1.171875 0 -1.734375 0.40625q-0.5625 0.40625 -0.828125 1.46875l-1.640625 -0.234375q0.234375 -1.046875 0.734375 -1.6875q0.515625 -0.640625 1.46875 -0.984375q0.96875 -0.359375 2.25 -0.359375q1.265625 0 2.046875 0.296875q0.78125 0.296875 1.15625 0.75q0.375 0.453125 0.515625 1.140625q0.09375 0.421875 0.09375 1.53125l0 2.234375q0 2.328125 0.09375 2.953125q0.109375 0.609375 0.4375 1.171875l-1.75 0q-0.265625 -0.515625 -0.328125 -1.21875zm-0.140625 -3.71875q-0.90625 0.359375 -2.734375 0.625q-1.03125 0.140625 -1.453125 0.328125q-0.421875 0.1875 -0.65625 0.546875q-0.234375 0.359375 -0.234375 0.796875q0 0.671875 0.5 1.125q0.515625 0.4375 1.484375 0.4375q0.96875 0 1.71875 -0.421875q0.75 -0.4375 1.109375 -1.15625q0.265625 -0.578125 0.265625 -1.671875l0 -0.609375zm4.047577 4.9375l0 -13.59375l1.671875 0l0 13.59375l-1.671875 0zm10.613586 -1.21875q-0.9375 0.796875 -1.796875 1.125q-0.859375 0.3125 -1.84375 0.3125q-1.609375 0 -2.484375 -0.78125q-0.875 -0.796875 -0.875 -2.03125q0 -0.734375 0.328125 -1.328125q0.328125 -0.59375 0.859375 -0.953125q0.53125 -0.359375 1.203125 -0.546875q0.5 -0.140625 1.484375 -0.25q2.03125 -0.25 2.984375 -0.578125q0 -0.34375 0 -0.4375q0 -1.015625 -0.46875 -1.4375q-0.640625 -0.5625 -1.90625 -0.5625q-1.171875 0 -1.734375 0.40625q-0.5625 0.40625 -0.828125 1.46875l-1.640625 -0.234375q0.234375 -1.046875 0.734375 -1.6875q0.515625 -0.640625 1.46875 -0.984375q0.96875 -0.359375 2.25 -0.359375q1.265625 0 2.046875 0.296875q0.78125 0.296875 1.15625 0.75q0.375 0.453125 0.515625 1.140625q0.09375 0.421875 0.09375 1.53125l0 2.234375q0 2.328125 0.09375 2.953125q0.109375 0.609375 0.4375 1.171875l-1.75 0q-0.265625 -0.515625 -0.328125 -1.21875zm-0.140625 -3.71875q-0.90625 0.359375 -2.734375 0.625q-1.03125 0.140625 -1.453125 0.328125q-0.421875 0.1875 -0.65625 0.546875q-0.234375 0.359375 -0.234375 0.796875q0 0.671875 0.5 1.125q0.515625 0.4375 1.484375 0.4375q0.96875 0 1.71875 -0.421875q0.75 -0.4375 1.109375 -1.15625q0.265625 -0.578125 0.265625 -1.671875l0 -0.609375zm4.078827 4.9375l0 -9.859375l1.5 0l0 1.40625q1.09375 -1.625 3.140625 -1.625q0.890625 0 1.640625 0.328125q0.75 0.3125 1.109375 0.84375q0.375 0.515625 0.53125 1.21875q0.09375 0.46875 0.09375 1.625l0 6.0625l-1.671875 0l0 -6.0q0 -1.015625 -0.203125 -1.515625q-0.1875 -0.515625 -0.6875 -0.8125q-0.5 -0.296875 -1.171875 -0.296875q-1.0625 0 -1.84375 0.671875q-0.765625 0.671875 -0.765625 2.578125l0 5.375l-1.671875 0zm16.813232 -3.609375l1.640625 0.21875q-0.265625 1.6875 -1.375 2.65625q-1.109375 0.953125 -2.734375 0.953125q-2.015625 0 -3.25 -1.3125q-1.21875 -1.328125 -1.21875 -3.796875q0 -1.59375 0.515625 -2.78125q0.53125 -1.203125 1.609375 -1.796875q1.09375 -0.609375 2.359375 -0.609375q1.609375 0 2.625 0.8125q1.015625 0.8125 1.3125 2.3125l-1.625 0.25q-0.234375 -1.0 -0.828125 -1.5q-0.59375 -0.5 -1.421875 -0.5q-1.265625 0 -2.0625 0.90625q-0.78125 0.90625 -0.78125 2.859375q0 1.984375 0.765625 2.890625q0.765625 0.890625 1.984375 0.890625q0.984375 0 1.640625 -0.59375q0.65625 -0.609375 0.84375 -1.859375zm9.640625 0.4375l1.71875 0.21875q-0.40625 1.5 -1.515625 2.34375q-1.09375 0.828125 -2.8125 0.828125q-2.15625 0 -3.421875 -1.328125q-1.265625 -1.328125 -1.265625 -3.734375q0 -2.484375 1.265625 -3.859375q1.28125 -1.375 3.328125 -1.375q1.984375 0 3.234375 1.34375q1.25 1.34375 1.25 3.796875q0 0.140625 -0.015625 0.4375l-7.34375 0q0.09375 1.625 0.921875 2.484375q0.828125 0.859375 2.0625 0.859375q0.90625 0 1.546875 -0.46875q0.65625 -0.484375 1.046875 -1.546875zm-5.484375 -2.703125l5.5 0q-0.109375 -1.234375 -0.625 -1.859375q-0.796875 -0.96875 -2.078125 -0.96875q-1.140625 0 -1.9375 0.78125q-0.78125 0.765625 -0.859375 2.046875zm9.094452 5.875l0 -9.859375l1.5 0l0 1.5q0.578125 -1.046875 1.0625 -1.375q0.484375 -0.34375 1.078125 -0.34375q0.84375 0 1.71875 0.546875l-0.578125 1.546875q-0.609375 -0.359375 -1.234375 -0.359375q-0.546875 0 -0.984375 0.328125q-0.421875 0.328125 -0.609375 0.90625q-0.28125 0.890625 -0.28125 1.953125l0 5.15625l-1.671875 0z" fill-rule="nonzero"></path><path fill="#d9d9d9" d="m624.0446 18.402248l161.07086 0l0 65.25984l-161.07086 0z" fill-rule="nonzero"></path><path stroke="#000000" stroke-width="2.0" stroke-linejoin="round" stroke-linecap="butt" d="m624.0446 18.402248l161.07086 0l0 65.25984l-161.07086 0z" fill-rule="nonzero"></path><path fill="#000000" d="m669.6693 46.952168l0 -13.59375l5.109375 0q1.546875 0 2.484375 0.40625q0.953125 0.40625 1.484375 1.265625q0.53125 0.859375 0.53125 1.796875q0 0.875 -0.46875 1.65625q-0.46875 0.765625 -1.4375 1.234375q1.234375 0.359375 1.890625 1.234375q0.671875 0.875 0.671875 2.0625q0 0.953125 -0.40625 1.78125q-0.390625 0.8125 -0.984375 1.265625q-0.59375 0.4375 -1.5 0.671875q-0.890625 0.21875 -2.1875 0.21875l-5.1875 0zm1.796875 -7.890625l2.9375 0q1.203125 0 1.71875 -0.15625q0.6875 -0.203125 1.03125 -0.671875q0.359375 -0.46875 0.359375 -1.1875q0 -0.671875 -0.328125 -1.1875q-0.328125 -0.515625 -0.9375 -0.703125q-0.59375 -0.203125 -2.0625 -0.203125l-2.71875 0l0 4.109375zm0 6.28125l3.390625 0q0.875 0 1.21875 -0.0625q0.625 -0.109375 1.046875 -0.359375q0.421875 -0.265625 0.6875 -0.765625q0.265625 -0.5 0.265625 -1.140625q0 -0.765625 -0.390625 -1.328125q-0.390625 -0.5625 -1.078125 -0.78125q-0.6875 -0.234375 -1.984375 -0.234375l-3.15625 0l0 4.671875zm16.943604 0.390625q-0.9375 0.796875 -1.796875 1.125q-0.859375 0.3125 -1.84375 0.3125q-1.609375 0 -2.484375 -0.78125q-0.875 -0.796875 -0.875 -2.03125q0 -0.734375 0.328125 -1.328125q0.328125 -0.59375 0.859375 -0.953125q0.53125 -0.359375 1.203125 -0.546875q0.5 -0.140625 1.484375 -0.25q2.03125 -0.25 2.984375 -0.578125q0 -0.34375 0 -0.4375q0 -1.015625 -0.46875 -1.4375q-0.640625 -0.5625 -1.90625 -0.5625q-1.171875 0 -1.734375 0.40625q-0.5625 0.40625 -0.828125 1.46875l-1.640625 -0.234375q0.234375 -1.046875 0.734375 -1.6875q0.515625 -0.640625 1.46875 -0.984375q0.96875 -0.359375 2.25 -0.359375q1.265625 0 2.046875 0.296875q0.78125 0.296875 1.15625 0.75q0.375 0.453125 0.515625 1.140625q0.09375 0.421875 0.09375 1.53125l0 2.234375q0 2.328125 0.09375 2.953125q0.109375 0.609375 0.4375 1.171875l-1.75 0q-0.265625 -0.515625 -0.328125 -1.21875zm-0.140625 -3.71875q-0.90625 0.359375 -2.734375 0.625q-1.03125 0.140625 -1.453125 0.328125q-0.421875 0.1875 -0.65625 0.546875q-0.234375 0.359375 -0.234375 0.796875q0 0.671875 0.5 1.125q0.515625 0.4375 1.484375 0.4375q0.96875 0 1.71875 -0.421875q0.75 -0.4375 1.109375 -1.15625q0.265625 -0.578125 0.265625 -1.671875l0 -0.609375zm10.516357 1.328125l1.640625 0.21875q-0.265625 1.6875 -1.375 2.65625q-1.109375 0.953125 -2.734375 0.953125q-2.015625 0 -3.25 -1.3125q-1.21875 -1.328125 -1.21875 -3.796875q0 -1.59375 0.515625 -2.78125q0.53125 -1.203125 1.609375 -1.796875q1.09375 -0.609375 2.359375 -0.609375q1.609375 0 2.625 0.8125q1.015625 0.8125 1.3125 2.3125l-1.625 0.25q-0.234375 -1.0 -0.828125 -1.5q-0.59375 -0.5 -1.421875 -0.5q-1.265625 0 -2.0625 0.90625q-0.78125 0.90625 -0.78125 2.859375q0 1.984375 0.765625 2.890625q0.765625 0.890625 1.984375 0.890625q0.984375 0 1.640625 -0.59375q0.65625 -0.609375 0.84375 -1.859375zm2.90625 3.609375l0 -13.59375l1.671875 0l0 7.75l3.953125 -4.015625l2.15625 0l-3.765625 3.65625l4.140625 6.203125l-2.0625 0l-3.25 -5.03125l-1.171875 1.125l0 3.90625l-1.671875 0zm16.0625 -3.171875l1.71875 0.21875q-0.40625 1.5 -1.515625 2.34375q-1.09375 0.828125 -2.8125 0.828125q-2.15625 0 -3.421875 -1.328125q-1.265625 -1.328125 -1.265625 -3.734375q0 -2.484375 1.265625 -3.859375q1.28125 -1.375 3.328125 -1.375q1.984375 0 3.234375 1.34375q1.25 1.34375 1.25 3.796875q0 0.140625 -0.015625 0.4375l-7.34375 0q0.09375 1.625 0.921875 2.484375q0.828125 0.859375 2.0625 0.859375q0.90625 0 1.546875 -0.46875q0.65625 -0.484375 1.046875 -1.546875zm-5.484375 -2.703125l5.5 0q-0.109375 -1.234375 -0.625 -1.859375q-0.796875 -0.96875 -2.078125 -0.96875q-1.140625 0 -1.9375 0.78125q-0.78125 0.765625 -0.859375 2.046875zm9.110046 5.875l0 -9.859375l1.5 0l0 1.40625q1.09375 -1.625 3.140625 -1.625q0.890625 0 1.640625 0.328125q0.75 0.3125 1.109375 0.84375q0.375 0.515625 0.53125 1.21875q0.09375 0.46875 0.09375 1.625l0 6.0625l-1.671875 0l0 -6.0q0 -1.015625 -0.203125 -1.515625q-0.1875 -0.515625 -0.6875 -0.8125q-0.5 -0.296875 -1.171875 -0.296875q-1.0625 0 -1.84375 0.671875q-0.765625 0.671875 -0.765625 2.578125l0 5.375l-1.671875 0zm16.766357 0l0 -1.25q-0.9375 1.46875 -2.75 1.46875q-1.171875 0 -2.171875 -0.640625q-0.984375 -0.65625 -1.53125 -1.8125q-0.53125 -1.171875 -0.53125 -2.6875q0 -1.46875 0.484375 -2.671875q0.5 -1.203125 1.46875 -1.84375q0.984375 -0.640625 2.203125 -0.640625q0.890625 0 1.578125 0.375q0.703125 0.375 1.140625 0.984375l0 -4.875l1.65625 0l0 13.59375l-1.546875 0zm-5.28125 -4.921875q0 1.890625 0.796875 2.828125q0.8125 0.9375 1.890625 0.9375q1.09375 0 1.859375 -0.890625q0.765625 -0.890625 0.765625 -2.734375q0 -2.015625 -0.78125 -2.953125q-0.78125 -0.953125 -1.921875 -0.953125q-1.109375 0 -1.859375 0.90625q-0.75 0.90625 -0.75 2.859375z" fill-rule="nonzero"></path><path fill="#000000" d="m671.0828 68.95216l0 -13.593746l1.8125 0l0 13.593746l-1.8125 0zm4.6676636 0l0 -9.859371l1.5 0l0 1.40625q1.09375 -1.625 3.140625 -1.625q0.890625 0 1.640625 0.328125q0.75 0.3125 1.109375 0.84375q0.375 0.515625 0.53125 1.21875q0.09375 0.46875 0.09375 1.625l0 6.062496l-1.671875 0l0 -5.999996q0 -1.015625 -0.203125 -1.515625q-0.1875 -0.515625 -0.6875 -0.8125q-0.5 -0.296875 -1.171875 -0.296875q-1.0625 0 -1.84375 0.671875q-0.765625 0.671875 -0.765625 2.578125l0 5.374996l-1.671875 0zm9.703857 -2.9375l1.65625 -0.265625q0.140625 1.0 0.765625 1.53125q0.640625 0.515625 1.78125 0.515625q1.15625 0 1.703125 -0.46875q0.5625 -0.46875 0.5625 -1.09375q0 -0.5625 -0.484375 -0.890625q-0.34375 -0.21875 -1.703125 -0.5625q-1.84375 -0.46875 -2.5625 -0.7968712q-0.703125 -0.34375 -1.078125 -0.9375q-0.359375 -0.609375 -0.359375 -1.328125q0 -0.65625 0.296875 -1.21875q0.3125 -0.5625 0.828125 -0.9375q0.390625 -0.28125 1.0625 -0.484375q0.671875 -0.203125 1.4375 -0.203125q1.171875 0 2.046875 0.34375q0.875 0.328125 1.28125 0.90625q0.421875 0.5625 0.578125 1.515625l-1.625 0.21875q-0.109375 -0.75 -0.65625 -1.171875q-0.53125 -0.4375 -1.5 -0.4375q-1.15625 0 -1.640625 0.390625q-0.484375 0.375 -0.484375 0.875q0 0.328125 0.203125 0.59375q0.203125 0.265625 0.640625 0.4375q0.25 0.09375 1.46875 0.4375q1.765625 0.46875 2.46875 0.765625q0.703125 0.2968712 1.09375 0.8749962q0.40625 0.578125 0.40625 1.4375q0 0.828125 -0.484375 1.578125q-0.484375 0.734375 -1.40625 1.140625q-0.921875 0.390625 -2.078125 0.390625q-1.921875 0 -2.9375 -0.796875q-1.0 -0.796875 -1.28125 -2.359375zm13.65625 1.4375l0.234375 1.484375q-0.703125 0.140625 -1.265625 0.140625q-0.90625 0 -1.40625 -0.28125q-0.5 -0.296875 -0.703125 -0.75q-0.203125 -0.46875 -0.203125 -1.984375l0 -5.656246l-1.234375 0l0 -1.3125l1.234375 0l0 -2.4375l1.65625 -1.0l0 3.4375l1.6875 0l0 1.3125l-1.6875 0l0 5.749996q0 0.71875 0.078125 0.921875q0.09375 0.203125 0.296875 0.328125q0.203125 0.125 0.578125 0.125q0.265625 0 0.734375 -0.078125zm7.9645386 0.28125q-0.9375 0.796875 -1.796875 1.125q-0.859375 0.3125 -1.84375 0.3125q-1.609375 0 -2.484375 -0.78125q-0.875 -0.796875 -0.875 -2.03125q0 -0.734375 0.328125 -1.328125q0.328125 -0.59375 0.859375 -0.953125q0.53125 -0.3593712 1.203125 -0.5468712q0.5 -0.140625 1.484375 -0.25q2.03125 -0.25 2.984375 -0.578125q0 -0.34375 0 -0.4375q0 -1.015625 -0.46875 -1.4375q-0.640625 -0.5625 -1.90625 -0.5625q-1.171875 0 -1.734375 0.40625q-0.5625 0.40625 -0.828125 1.46875l-1.640625 -0.234375q0.234375 -1.046875 0.734375 -1.6875q0.515625 -0.640625 1.46875 -0.984375q0.96875 -0.359375 2.25 -0.359375q1.265625 0 2.046875 0.296875q0.78125 0.296875 1.15625 0.75q0.375 0.453125 0.515625 1.140625q0.09375 0.421875 0.09375 1.53125l0 2.2343712q0 2.328125 0.09375 2.953125q0.109375 0.609375 0.4375 1.171875l-1.75 0q-0.265625 -0.515625 -0.328125 -1.21875zm-0.140625 -3.71875q-0.90625 0.359375 -2.734375 0.625q-1.03125 0.140625 -1.453125 0.328125q-0.421875 0.1875 -0.65625 0.546875q-0.234375 0.359375 -0.234375 0.796875q0 0.671875 0.5 1.125q0.515625 0.4375 1.484375 0.4375q0.96875 0 1.71875 -0.421875q0.75 -0.4375 1.109375 -1.15625q0.265625 -0.578125 0.265625 -1.671875l0 -0.609375zm4.0788574 4.9375l0 -9.859371l1.5 0l0 1.40625q1.09375 -1.625 3.140625 -1.625q0.890625 0 1.640625 0.328125q0.75 0.3125 1.109375 0.84375q0.375 0.515625 0.53125 1.21875q0.09375 0.46875 0.09375 1.625l0 6.062496l-1.671875 0l0 -5.999996q0 -1.015625 -0.203125 -1.515625q-0.1875 -0.515625 -0.6875 -0.8125q-0.5 -0.296875 -1.171875 -0.296875q-1.0625 0 -1.84375 0.671875q-0.765625 0.671875 -0.765625 2.578125l0 5.374996l-1.671875 0zm16.813232 -3.609375l1.640625 0.21875q-0.265625 1.6875 -1.375 2.65625q-1.109375 0.953125 -2.734375 0.953125q-2.015625 0 -3.25 -1.3125q-1.21875 -1.328125 -1.21875 -3.796875q0 -1.5937462 0.515625 -2.7812462q0.53125 -1.203125 1.609375 -1.796875q1.09375 -0.609375 2.359375 -0.609375q1.609375 0 2.625 0.8125q1.015625 0.8125 1.3125 2.3125l-1.625 0.25q-0.234375 -1.0 -0.828125 -1.5q-0.59375 -0.5 -1.421875 -0.5q-1.265625 0 -2.0625 0.90625q-0.78125 0.90625 -0.78125 2.8593712q0 1.984375 0.765625 2.890625q0.765625 0.890625 1.984375 0.890625q0.984375 0 1.640625 -0.59375q0.65625 -0.609375 0.84375 -1.859375zm9.640625 0.4375l1.71875 0.21875q-0.40625 1.5 -1.515625 2.34375q-1.09375 0.828125 -2.8125 0.828125q-2.15625 0 -3.421875 -1.328125q-1.265625 -1.328125 -1.265625 -3.734375q0 -2.4843712 1.265625 -3.8593712q1.28125 -1.375 3.328125 -1.375q1.984375 0 3.234375 1.34375q1.25 1.34375 1.25 3.7968712q0 0.140625 -0.015625 0.4375l-7.34375 0q0.09375 1.625 0.921875 2.484375q0.828125 0.859375 2.0625 0.859375q0.90625 0 1.546875 -0.46875q0.65625 -0.484375 1.046875 -1.546875zm-5.484375 -2.7031212l5.5 0q-0.109375 -1.234375 -0.625 -1.859375q-0.796875 -0.96875 -2.078125 -0.96875q-1.140625 0 -1.9375 0.78125q-0.78125 0.765625 -0.859375 2.046875z" fill-rule="nonzero"></path><path fill="#d9d9d9" d="m624.0446 100.396996l161.07086 0l0 65.25985l-161.07086 0z" fill-rule="nonzero"></path><path stroke="#000000" stroke-width="2.0" stroke-linejoin="round" stroke-linecap="butt" d="m624.0446 100.396996l161.07086 0l0 65.25985l-161.07086 0z" fill-rule="nonzero"></path><path fill="#000000" d="m669.6693 128.94691l0 -13.59375l5.109375 0q1.546875 0 2.484375 0.40625q0.953125 0.40625 1.484375 1.265625q0.53125 0.859375 0.53125 1.796875q0 0.875 -0.46875 1.65625q-0.46875 0.765625 -1.4375 1.234375q1.234375 0.359375 1.890625 1.234375q0.671875 0.875 0.671875 2.0625q0 0.953125 -0.40625 1.78125q-0.390625 0.8125 -0.984375 1.265625q-0.59375 0.4375 -1.5 0.671875q-0.890625 0.21875 -2.1875 0.21875l-5.1875 0zm1.796875 -7.890625l2.9375 0q1.203125 0 1.71875 -0.15625q0.6875 -0.203125 1.03125 -0.671875q0.359375 -0.46875 0.359375 -1.1875q0 -0.671875 -0.328125 -1.1875q-0.328125 -0.515625 -0.9375 -0.703125q-0.59375 -0.203125 -2.0625 -0.203125l-2.71875 0l0 4.109375zm0 6.28125l3.390625 0q0.875 0 1.21875 -0.0625q0.625 -0.109375 1.046875 -0.359375q0.421875 -0.265625 0.6875 -0.765625q0.265625 -0.5 0.265625 -1.140625q0 -0.765625 -0.390625 -1.328125q-0.390625 -0.5625 -1.078125 -0.78125q-0.6875 -0.234375 -1.984375 -0.234375l-3.15625 0l0 4.671875zm16.943604 0.390625q-0.9375 0.796875 -1.796875 1.125q-0.859375 0.3125 -1.84375 0.3125q-1.609375 0 -2.484375 -0.78125q-0.875 -0.796875 -0.875 -2.03125q0 -0.734375 0.328125 -1.328125q0.328125 -0.59375 0.859375 -0.953125q0.53125 -0.359375 1.203125 -0.546875q0.5 -0.140625 1.484375 -0.25q2.03125 -0.25 2.984375 -0.578125q0 -0.34375 0 -0.4375q0 -1.015625 -0.46875 -1.4375q-0.640625 -0.5625 -1.90625 -0.5625q-1.171875 0 -1.734375 0.40625q-0.5625 0.40625 -0.828125 1.46875l-1.640625 -0.234375q0.234375 -1.046875 0.734375 -1.6875q0.515625 -0.640625 1.46875 -0.984375q0.96875 -0.359375 2.25 -0.359375q1.265625 0 2.046875 0.296875q0.78125 0.296875 1.15625 0.75q0.375 0.453125 0.515625 1.140625q0.09375 0.421875 0.09375 1.53125l0 2.234375q0 2.328125 0.09375 2.953125q0.109375 0.609375 0.4375 1.171875l-1.75 0q-0.265625 -0.515625 -0.328125 -1.21875zm-0.140625 -3.71875q-0.90625 0.359375 -2.734375 0.625q-1.03125 0.140625 -1.453125 0.328125q-0.421875 0.1875 -0.65625 0.546875q-0.234375 0.359375 -0.234375 0.796875q0 0.671875 0.5 1.125q0.515625 0.4375 1.484375 0.4375q0.96875 0 1.71875 -0.421875q0.75 -0.4375 1.109375 -1.15625q0.265625 -0.578125 0.265625 -1.671875l0 -0.609375zm10.516357 1.328125l1.640625 0.21875q-0.265625 1.6875 -1.375 2.65625q-1.109375 0.953125 -2.734375 0.953125q-2.015625 0 -3.25 -1.3125q-1.21875 -1.328125 -1.21875 -3.796875q0 -1.59375 0.515625 -2.78125q0.53125 -1.203125 1.609375 -1.796875q1.09375 -0.609375 2.359375 -0.609375q1.609375 0 2.625 0.8125q1.015625 0.8125 1.3125 2.3125l-1.625 0.25q-0.234375 -1.0 -0.828125 -1.5q-0.59375 -0.5 -1.421875 -0.5q-1.265625 0 -2.0625 0.90625q-0.78125 0.90625 -0.78125 2.859375q0 1.984375 0.765625 2.890625q0.765625 0.890625 1.984375 0.890625q0.984375 0 1.640625 -0.59375q0.65625 -0.609375 0.84375 -1.859375zm2.90625 3.609375l0 -13.59375l1.671875 0l0 7.75l3.953125 -4.015625l2.15625 0l-3.765625 3.65625l4.140625 6.203125l-2.0625 0l-3.25 -5.03125l-1.171875 1.125l0 3.90625l-1.671875 0zm16.0625 -3.171875l1.71875 0.21875q-0.40625 1.5 -1.515625 2.34375q-1.09375 0.828125 -2.8125 0.828125q-2.15625 0 -3.421875 -1.328125q-1.265625 -1.328125 -1.265625 -3.734375q0 -2.484375 1.265625 -3.859375q1.28125 -1.375 3.328125 -1.375q1.984375 0 3.234375 1.34375q1.25 1.34375 1.25 3.796875q0 0.140625 -0.015625 0.4375l-7.34375 0q0.09375 1.625 0.921875 2.484375q0.828125 0.859375 2.0625 0.859375q0.90625 0 1.546875 -0.46875q0.65625 -0.484375 1.046875 -1.546875zm-5.484375 -2.703125l5.5 0q-0.109375 -1.234375 -0.625 -1.859375q-0.796875 -0.96875 -2.078125 -0.96875q-1.140625 0 -1.9375 0.78125q-0.78125 0.765625 -0.859375 2.046875zm9.110046 5.875l0 -9.859375l1.5 0l0 1.40625q1.09375 -1.625 3.140625 -1.625q0.890625 0 1.640625 0.328125q0.75 0.3125 1.109375 0.84375q0.375 0.515625 0.53125 1.21875q0.09375 0.46875 0.09375 1.625l0 6.0625l-1.671875 0l0 -6.0q0 -1.015625 -0.203125 -1.515625q-0.1875 -0.515625 -0.6875 -0.8125q-0.5 -0.296875 -1.171875 -0.296875q-1.0625 0 -1.84375 0.671875q-0.765625 0.671875 -0.765625 2.578125l0 5.375l-1.671875 0zm16.766357 0l0 -1.25q-0.9375 1.46875 -2.75 1.46875q-1.171875 0 -2.171875 -0.640625q-0.984375 -0.65625 -1.53125 -1.8125q-0.53125 -1.171875 -0.53125 -2.6875q0 -1.46875 0.484375 -2.671875q0.5 -1.203125 1.46875 -1.84375q0.984375 -0.640625 2.203125 -0.640625q0.890625 0 1.578125 0.375q0.703125 0.375 1.140625 0.984375l0 -4.875l1.65625 0l0 13.59375l-1.546875 0zm-5.28125 -4.921875q0 1.890625 0.796875 2.828125q0.8125 0.9375 1.890625 0.9375q1.09375 0 1.859375 -0.890625q0.765625 -0.890625 0.765625 -2.734375q0 -2.015625 -0.78125 -2.953125q-0.78125 -0.953125 -1.921875 -0.953125q-1.109375 0 -1.859375 0.90625q-0.75 0.90625 -0.75 2.859375z" fill-rule="nonzero"></path><path fill="#000000" d="m671.0828 150.94691l0 -13.59375l1.8125 0l0 13.59375l-1.8125 0zm4.6676636 0l0 -9.859375l1.5 0l0 1.40625q1.09375 -1.625 3.140625 -1.625q0.890625 0 1.640625 0.328125q0.75 0.3125 1.109375 0.84375q0.375 0.515625 0.53125 1.21875q0.09375 0.46875 0.09375 1.625l0 6.0625l-1.671875 0l0 -6.0q0 -1.015625 -0.203125 -1.515625q-0.1875 -0.515625 -0.6875 -0.8125q-0.5 -0.296875 -1.171875 -0.296875q-1.0625 0 -1.84375 0.671875q-0.765625 0.671875 -0.765625 2.578125l0 5.375l-1.671875 0zm9.703857 -2.9375l1.65625 -0.265625q0.140625 1.0 0.765625 1.53125q0.640625 0.515625 1.78125 0.515625q1.15625 0 1.703125 -0.46875q0.5625 -0.46875 0.5625 -1.09375q0 -0.5625 -0.484375 -0.890625q-0.34375 -0.21875 -1.703125 -0.5625q-1.84375 -0.46875 -2.5625 -0.796875q-0.703125 -0.34375 -1.078125 -0.9375q-0.359375 -0.609375 -0.359375 -1.328125q0 -0.65625 0.296875 -1.21875q0.3125 -0.5625 0.828125 -0.9375q0.390625 -0.28125 1.0625 -0.484375q0.671875 -0.203125 1.4375 -0.203125q1.171875 0 2.046875 0.34375q0.875 0.328125 1.28125 0.90625q0.421875 0.5625 0.578125 1.515625l-1.625 0.21875q-0.109375 -0.75 -0.65625 -1.171875q-0.53125 -0.4375 -1.5 -0.4375q-1.15625 0 -1.640625 0.390625q-0.484375 0.375 -0.484375 0.875q0 0.328125 0.203125 0.59375q0.203125 0.265625 0.640625 0.4375q0.25 0.09375 1.46875 0.4375q1.765625 0.46875 2.46875 0.765625q0.703125 0.296875 1.09375 0.875q0.40625 0.578125 0.40625 1.4375q0 0.828125 -0.484375 1.578125q-0.484375 0.734375 -1.40625 1.140625q-0.921875 0.390625 -2.078125 0.390625q-1.921875 0 -2.9375 -0.796875q-1.0 -0.796875 -1.28125 -2.359375zm13.65625 1.4375l0.234375 1.484375q-0.703125 0.140625 -1.265625 0.140625q-0.90625 0 -1.40625 -0.28125q-0.5 -0.296875 -0.703125 -0.75q-0.203125 -0.46875 -0.203125 -1.984375l0 -5.65625l-1.234375 0l0 -1.3125l1.234375 0l0 -2.4375l1.65625 -1.0l0 3.4375l1.6875 0l0 1.3125l-1.6875 0l0 5.75q0 0.71875 0.078125 0.921875q0.09375 0.203125 0.296875 0.328125q0.203125 0.125 0.578125 0.125q0.265625 0 0.734375 -0.078125zm7.9645386 0.28125q-0.9375 0.796875 -1.796875 1.125q-0.859375 0.3125 -1.84375 0.3125q-1.609375 0 -2.484375 -0.78125q-0.875 -0.796875 -0.875 -2.03125q0 -0.734375 0.328125 -1.328125q0.328125 -0.59375 0.859375 -0.953125q0.53125 -0.359375 1.203125 -0.546875q0.5 -0.140625 1.484375 -0.25q2.03125 -0.25 2.984375 -0.578125q0 -0.34375 0 -0.4375q0 -1.015625 -0.46875 -1.4375q-0.640625 -0.5625 -1.90625 -0.5625q-1.171875 0 -1.734375 0.40625q-0.5625 0.40625 -0.828125 1.46875l-1.640625 -0.234375q0.234375 -1.046875 0.734375 -1.6875q0.515625 -0.640625 1.46875 -0.984375q0.96875 -0.359375 2.25 -0.359375q1.265625 0 2.046875 0.296875q0.78125 0.296875 1.15625 0.75q0.375 0.453125 0.515625 1.140625q0.09375 0.421875 0.09375 1.53125l0 2.234375q0 2.328125 0.09375 2.953125q0.109375 0.609375 0.4375 1.171875l-1.75 0q-0.265625 -0.515625 -0.328125 -1.21875zm-0.140625 -3.71875q-0.90625 0.359375 -2.734375 0.625q-1.03125 0.140625 -1.453125 0.328125q-0.421875 0.1875 -0.65625 0.546875q-0.234375 0.359375 -0.234375 0.796875q0 0.671875 0.5 1.125q0.515625 0.4375 1.484375 0.4375q0.96875 0 1.71875 -0.421875q0.75 -0.4375 1.109375 -1.15625q0.265625 -0.578125 0.265625 -1.671875l0 -0.609375zm4.0788574 4.9375l0 -9.859375l1.5 0l0 1.40625q1.09375 -1.625 3.140625 -1.625q0.890625 0 1.640625 0.328125q0.75 0.3125 1.109375 0.84375q0.375 0.515625 0.53125 1.21875q0.09375 0.46875 0.09375 1.625l0 6.0625l-1.671875 0l0 -6.0q0 -1.015625 -0.203125 -1.515625q-0.1875 -0.515625 -0.6875 -0.8125q-0.5 -0.296875 -1.171875 -0.296875q-1.0625 0 -1.84375 0.671875q-0.765625 0.671875 -0.765625 2.578125l0 5.375l-1.671875 0zm16.813232 -3.609375l1.640625 0.21875q-0.265625 1.6875 -1.375 2.65625q-1.109375 0.953125 -2.734375 0.953125q-2.015625 0 -3.25 -1.3125q-1.21875 -1.328125 -1.21875 -3.796875q0 -1.59375 0.515625 -2.78125q0.53125 -1.203125 1.609375 -1.796875q1.09375 -0.609375 2.359375 -0.609375q1.609375 0 2.625 0.8125q1.015625 0.8125 1.3125 2.3125l-1.625 0.25q-0.234375 -1.0 -0.828125 -1.5q-0.59375 -0.5 -1.421875 -0.5q-1.265625 0 -2.0625 0.90625q-0.78125 0.90625 -0.78125 2.859375q0 1.984375 0.765625 2.890625q0.765625 0.890625 1.984375 0.890625q0.984375 0 1.640625 -0.59375q0.65625 -0.609375 0.84375 -1.859375zm9.640625 0.4375l1.71875 0.21875q-0.40625 1.5 -1.515625 2.34375q-1.09375 0.828125 -2.8125 0.828125q-2.15625 0 -3.421875 -1.328125q-1.265625 -1.328125 -1.265625 -3.734375q0 -2.484375 1.265625 -3.859375q1.28125 -1.375 3.328125 -1.375q1.984375 0 3.234375 1.34375q1.25 1.34375 1.25 3.796875q0 0.140625 -0.015625 0.4375l-7.34375 0q0.09375 1.625 0.921875 2.484375q0.828125 0.859375 2.0625 0.859375q0.90625 0 1.546875 -0.46875q0.65625 -0.484375 1.046875 -1.546875zm-5.484375 -2.703125l5.5 0q-0.109375 -1.234375 -0.625 -1.859375q-0.796875 -0.96875 -2.078125 -0.96875q-1.140625 0 -1.9375 0.78125q-0.78125 0.765625 -0.859375 2.046875z" fill-rule="nonzero"></path><path fill="#d9d9d9" d="m624.042 182.39175l161.07086 0l0 65.25984l-161.07086 0z" fill-rule="nonzero"></path><path stroke="#000000" stroke-width="2.0" stroke-linejoin="round" stroke-linecap="butt" d="m624.042 182.39175l161.07086 0l0 65.25984l-161.07086 0z" fill-rule="nonzero"></path><path fill="#000000" d="m669.6667 210.94167l0 -13.59375l5.109375 0q1.546875 0 2.484375 0.40625q0.953125 0.40625 1.484375 1.265625q0.53125 0.859375 0.53125 1.796875q0 0.875 -0.46875 1.65625q-0.46875 0.765625 -1.4375 1.234375q1.234375 0.359375 1.890625 1.234375q0.671875 0.875 0.671875 2.0625q0 0.953125 -0.40625 1.78125q-0.390625 0.8125 -0.984375 1.265625q-0.59375 0.4375 -1.5 0.671875q-0.890625 0.21875 -2.1875 0.21875l-5.1875 0zm1.796875 -7.890625l2.9375 0q1.203125 0 1.71875 -0.15625q0.6875 -0.203125 1.03125 -0.671875q0.359375 -0.46875 0.359375 -1.1875q0 -0.671875 -0.328125 -1.1875q-0.328125 -0.515625 -0.9375 -0.703125q-0.59375 -0.203125 -2.0625 -0.203125l-2.71875 0l0 4.109375zm0 6.28125l3.390625 0q0.875 0 1.21875 -0.0625q0.625 -0.109375 1.046875 -0.359375q0.421875 -0.265625 0.6875 -0.765625q0.265625 -0.5 0.265625 -1.140625q0 -0.765625 -0.390625 -1.328125q-0.390625 -0.5625 -1.078125 -0.78125q-0.6875 -0.234375 -1.984375 -0.234375l-3.15625 0l0 4.671875zm16.943604 0.390625q-0.9375 0.796875 -1.796875 1.125q-0.859375 0.3125 -1.84375 0.3125q-1.609375 0 -2.484375 -0.78125q-0.875 -0.796875 -0.875 -2.03125q0 -0.734375 0.328125 -1.328125q0.328125 -0.59375 0.859375 -0.953125q0.53125 -0.359375 1.203125 -0.546875q0.5 -0.140625 1.484375 -0.25q2.03125 -0.25 2.984375 -0.578125q0 -0.34375 0 -0.4375q0 -1.015625 -0.46875 -1.4375q-0.640625 -0.5625 -1.90625 -0.5625q-1.171875 0 -1.734375 0.40625q-0.5625 0.40625 -0.828125 1.46875l-1.640625 -0.234375q0.234375 -1.046875 0.734375 -1.6875q0.515625 -0.640625 1.46875 -0.984375q0.96875 -0.359375 2.25 -0.359375q1.265625 0 2.046875 0.296875q0.78125 0.296875 1.15625 0.75q0.375 0.453125 0.515625 1.140625q0.09375 0.421875 0.09375 1.53125l0 2.234375q0 2.328125 0.09375 2.953125q0.109375 0.609375 0.4375 1.171875l-1.75 0q-0.265625 -0.515625 -0.328125 -1.21875zm-0.140625 -3.71875q-0.90625 0.359375 -2.734375 0.625q-1.03125 0.140625 -1.453125 0.328125q-0.421875 0.1875 -0.65625 0.546875q-0.234375 0.359375 -0.234375 0.796875q0 0.671875 0.5 1.125q0.515625 0.4375 1.484375 0.4375q0.96875 0 1.71875 -0.421875q0.75 -0.4375 1.109375 -1.15625q0.265625 -0.578125 0.265625 -1.671875l0 -0.609375zm10.516357 1.328125l1.640625 0.21875q-0.265625 1.6875 -1.375 2.65625q-1.109375 0.953125 -2.734375 0.953125q-2.015625 0 -3.25 -1.3125q-1.21875 -1.328125 -1.21875 -3.796875q0 -1.59375 0.515625 -2.78125q0.53125 -1.203125 1.609375 -1.796875q1.09375 -0.609375 2.359375 -0.609375q1.609375 0 2.625 0.8125q1.015625 0.8125 1.3125 2.3125l-1.625 0.25q-0.234375 -1.0 -0.828125 -1.5q-0.59375 -0.5 -1.421875 -0.5q-1.265625 0 -2.0625 0.90625q-0.78125 0.90625 -0.78125 2.859375q0 1.984375 0.765625 2.890625q0.765625 0.890625 1.984375 0.890625q0.984375 0 1.640625 -0.59375q0.65625 -0.609375 0.84375 -1.859375zm2.90625 3.609375l0 -13.59375l1.671875 0l0 7.75l3.953125 -4.015625l2.15625 0l-3.765625 3.65625l4.140625 6.203125l-2.0625 0l-3.25 -5.03125l-1.171875 1.125l0 3.90625l-1.671875 0zm16.0625 -3.171875l1.71875 0.21875q-0.40625 1.5 -1.515625 2.34375q-1.09375 0.828125 -2.8125 0.828125q-2.15625 0 -3.421875 -1.328125q-1.265625 -1.328125 -1.265625 -3.734375q0 -2.484375 1.265625 -3.859375q1.28125 -1.375 3.328125 -1.375q1.984375 0 3.234375 1.34375q1.25 1.34375 1.25 3.796875q0 0.140625 -0.015625 0.4375l-7.34375 0q0.09375 1.625 0.921875 2.484375q0.828125 0.859375 2.0625 0.859375q0.90625 0 1.546875 -0.46875q0.65625 -0.484375 1.046875 -1.546875zm-5.484375 -2.703125l5.5 0q-0.109375 -1.234375 -0.625 -1.859375q-0.796875 -0.96875 -2.078125 -0.96875q-1.140625 0 -1.9375 0.78125q-0.78125 0.765625 -0.859375 2.046875zm9.110046 5.875l0 -9.859375l1.5 0l0 1.40625q1.09375 -1.625 3.140625 -1.625q0.890625 0 1.640625 0.328125q0.75 0.3125 1.109375 0.84375q0.375 0.515625 0.53125 1.21875q0.09375 0.46875 0.09375 1.625l0 6.0625l-1.671875 0l0 -6.0q0 -1.015625 -0.203125 -1.515625q-0.1875 -0.515625 -0.6875 -0.8125q-0.5 -0.296875 -1.171875 -0.296875q-1.0625 0 -1.84375 0.671875q-0.765625 0.671875 -0.765625 2.578125l0 5.375l-1.671875 0zm16.766357 0l0 -1.25q-0.9375 1.46875 -2.75 1.46875q-1.171875 0 -2.171875 -0.640625q-0.984375 -0.65625 -1.53125 -1.8125q-0.53125 -1.171875 -0.53125 -2.6875q0 -1.46875 0.484375 -2.671875q0.5 -1.203125 1.46875 -1.84375q0.984375 -0.640625 2.203125 -0.640625q0.890625 0 1.578125 0.375q0.703125 0.375 1.140625 0.984375l0 -4.875l1.65625 0l0 13.59375l-1.546875 0zm-5.28125 -4.921875q0 1.890625 0.796875 2.828125q0.8125 0.9375 1.890625 0.9375q1.09375 0 1.859375 -0.890625q0.765625 -0.890625 0.765625 -2.734375q0 -2.015625 -0.78125 -2.953125q-0.78125 -0.953125 -1.921875 -0.953125q-1.109375 0 -1.859375 0.90625q-0.75 0.90625 -0.75 2.859375z" fill-rule="nonzero"></path><path fill="#000000" d="m671.0802 232.94167l0 -13.59375l1.8125 0l0 13.59375l-1.8125 0zm4.6676636 0l0 -9.859375l1.5 0l0 1.40625q1.09375 -1.625 3.140625 -1.625q0.890625 0 1.640625 0.328125q0.75 0.3125 1.109375 0.84375q0.375 0.515625 0.53125 1.21875q0.09375 0.46875 0.09375 1.625l0 6.0625l-1.671875 0l0 -6.0q0 -1.015625 -0.203125 -1.515625q-0.1875 -0.515625 -0.6875 -0.8125q-0.5 -0.296875 -1.171875 -0.296875q-1.0625 0 -1.84375 0.671875q-0.765625 0.671875 -0.765625 2.578125l0 5.375l-1.671875 0zm9.703857 -2.9375l1.65625 -0.265625q0.140625 1.0 0.765625 1.53125q0.640625 0.515625 1.78125 0.515625q1.15625 0 1.703125 -0.46875q0.5625 -0.46875 0.5625 -1.09375q0 -0.5625 -0.484375 -0.890625q-0.34375 -0.21875 -1.703125 -0.5625q-1.84375 -0.46875 -2.5625 -0.796875q-0.703125 -0.34375 -1.078125 -0.9375q-0.359375 -0.609375 -0.359375 -1.328125q0 -0.65625 0.296875 -1.21875q0.3125 -0.5625 0.828125 -0.9375q0.390625 -0.28125 1.0625 -0.484375q0.671875 -0.203125 1.4375 -0.203125q1.171875 0 2.046875 0.34375q0.875 0.328125 1.28125 0.90625q0.421875 0.5625 0.578125 1.515625l-1.625 0.21875q-0.109375 -0.75 -0.65625 -1.171875q-0.53125 -0.4375 -1.5 -0.4375q-1.15625 0 -1.640625 0.390625q-0.484375 0.375 -0.484375 0.875q0 0.328125 0.203125 0.59375q0.203125 0.265625 0.640625 0.4375q0.25 0.09375 1.46875 0.4375q1.765625 0.46875 2.46875 0.765625q0.703125 0.296875 1.09375 0.875q0.40625 0.578125 0.40625 1.4375q0 0.828125 -0.484375 1.578125q-0.484375 0.734375 -1.40625 1.140625q-0.921875 0.390625 -2.078125 0.390625q-1.921875 0 -2.9375 -0.796875q-1.0 -0.796875 -1.28125 -2.359375zm13.65625 1.4375l0.234375 1.484375q-0.703125 0.140625 -1.265625 0.140625q-0.90625 0 -1.40625 -0.28125q-0.5 -0.296875 -0.703125 -0.75q-0.203125 -0.46875 -0.203125 -1.984375l0 -5.65625l-1.234375 0l0 -1.3125l1.234375 0l0 -2.4375l1.65625 -1.0l0 3.4375l1.6875 0l0 1.3125l-1.6875 0l0 5.75q0 0.71875 0.078125 0.921875q0.09375 0.203125 0.296875 0.328125q0.203125 0.125 0.578125 0.125q0.265625 0 0.734375 -0.078125zm7.9645386 0.28125q-0.9375 0.796875 -1.796875 1.125q-0.859375 0.3125 -1.84375 0.3125q-1.609375 0 -2.484375 -0.78125q-0.875 -0.796875 -0.875 -2.03125q0 -0.734375 0.328125 -1.328125q0.328125 -0.59375 0.859375 -0.953125q0.53125 -0.359375 1.203125 -0.546875q0.5 -0.140625 1.484375 -0.25q2.03125 -0.25 2.984375 -0.578125q0 -0.34375 0 -0.4375q0 -1.015625 -0.46875 -1.4375q-0.640625 -0.5625 -1.90625 -0.5625q-1.171875 0 -1.734375 0.40625q-0.5625 0.40625 -0.828125 1.46875l-1.640625 -0.234375q0.234375 -1.046875 0.734375 -1.6875q0.515625 -0.640625 1.46875 -0.984375q0.96875 -0.359375 2.25 -0.359375q1.265625 0 2.046875 0.296875q0.78125 0.296875 1.15625 0.75q0.375 0.453125 0.515625 1.140625q0.09375 0.421875 0.09375 1.53125l0 2.234375q0 2.328125 0.09375 2.953125q0.109375 0.609375 0.4375 1.171875l-1.75 0q-0.265625 -0.515625 -0.328125 -1.21875zm-0.140625 -3.71875q-0.90625 0.359375 -2.734375 0.625q-1.03125 0.140625 -1.453125 0.328125q-0.421875 0.1875 -0.65625 0.546875q-0.234375 0.359375 -0.234375 0.796875q0 0.671875 0.5 1.125q0.515625 0.4375 1.484375 0.4375q0.96875 0 1.71875 -0.421875q0.75 -0.4375 1.109375 -1.15625q0.265625 -0.578125 0.265625 -1.671875l0 -0.609375zm4.0788574 4.9375l0 -9.859375l1.5 0l0 1.40625q1.09375 -1.625 3.140625 -1.625q0.890625 0 1.640625 0.328125q0.75 0.3125 1.109375 0.84375q0.375 0.515625 0.53125 1.21875q0.09375 0.46875 0.09375 1.625l0 6.0625l-1.671875 0l0 -6.0q0 -1.015625 -0.203125 -1.515625q-0.1875 -0.515625 -0.6875 -0.8125q-0.5 -0.296875 -1.171875 -0.296875q-1.0625 0 -1.84375 0.671875q-0.765625 0.671875 -0.765625 2.578125l0 5.375l-1.671875 0zm16.813232 -3.609375l1.640625 0.21875q-0.265625 1.6875 -1.375 2.65625q-1.109375 0.953125 -2.734375 0.953125q-2.015625 0 -3.25 -1.3125q-1.21875 -1.328125 -1.21875 -3.796875q0 -1.59375 0.515625 -2.78125q0.53125 -1.203125 1.609375 -1.796875q1.09375 -0.609375 2.359375 -0.609375q1.609375 0 2.625 0.8125q1.015625 0.8125 1.3125 2.3125l-1.625 0.25q-0.234375 -1.0 -0.828125 -1.5q-0.59375 -0.5 -1.421875 -0.5q-1.265625 0 -2.0625 0.90625q-0.78125 0.90625 -0.78125 2.859375q0 1.984375 0.765625 2.890625q0.765625 0.890625 1.984375 0.890625q0.984375 0 1.640625 -0.59375q0.65625 -0.609375 0.84375 -1.859375zm9.640625 0.4375l1.71875 0.21875q-0.40625 1.5 -1.515625 2.34375q-1.09375 0.828125 -2.8125 0.828125q-2.15625 0 -3.421875 -1.328125q-1.265625 -1.328125 -1.265625 -3.734375q0 -2.484375 1.265625 -3.859375q1.28125 -1.375 3.328125 -1.375q1.984375 0 3.234375 1.34375q1.25 1.34375 1.25 3.796875q0 0.140625 -0.015625 0.4375l-7.34375 0q0.09375 1.625 0.921875 2.484375q0.828125 0.859375 2.0625 0.859375q0.90625 0 1.546875 -0.46875q0.65625 -0.484375 1.046875 -1.546875zm-5.484375 -2.703125l5.5 0q-0.109375 -1.234375 -0.625 -1.859375q-0.796875 -0.96875 -2.078125 -0.96875q-1.140625 0 -1.9375 0.78125q-0.78125 0.765625 -0.859375 2.046875z" fill-rule="nonzero"></path><path fill="#f3f3f3" d="m17.66231 116.49646l0 0c-1.2987194 -7.964569 2.9652348 -15.849014 10.9825115 -20.307663c8.017277 -4.4586563 18.38182 -4.709572 26.695568 -0.6462784l0 0c2.9449844 -4.630928 8.335163 -7.82827 14.540112 -8.624886c6.204956 -0.796608 12.49588 0.90106964 16.969902 4.579521l0 0c2.5087433 -4.1987 7.4347153 -7.0196915 13.029915 -7.461937c5.595207 -0.44224548 11.06778 1.556839 14.475769 5.28788l0 0c4.532425 -4.4506073 11.743614 -6.324501 18.513252 -4.810829c6.7696533 1.5136719 11.881851 6.143036 13.124542 11.884941l0 0c5.5529785 1.2639923 10.178497 4.477234 12.6814575 8.809517c2.5029755 4.332283 2.637848 9.358627 0.36979675 13.78038l0 0c5.4680634 5.938904 6.7471924 13.852417 3.3600159 20.787369c-3.3871765 6.9349365 -10.931763 11.849426 -19.818253 12.909439c-0.06263733 6.5086975 -4.3401184 12.480988 -11.183731 15.614914c-6.8436203 3.1339264 -15.184708 2.9400787 -21.808243 -0.50679016c-2.8212738 7.795288 -10.762222 13.530991 -20.39206 14.729065c-9.629837 1.1980743 -19.222229 -2.356247 -24.632904 -9.12738c-6.632351 3.3375092 -14.590626 4.29895 -22.07959 2.6674194c-7.488968 -1.6315308 -13.877794 -5.718582 -17.725288 -11.339218l0 0c-6.7774334 0.66185 -13.330276 -2.2684174 -16.406372 -7.3365173c-3.076098 -5.068115 -2.0206242 -11.19516 2.6425924 -15.340332l0 0c-6.0456457 -2.9694061 -9.130499 -8.861694 -7.6459293 -14.604263c1.4845698 -5.742569 7.202153 -10.034134 14.171255 -10.636818z" fill-rule="nonzero"></path><path fill="#000000" fill-opacity="0.0" d="m11.003015 142.0445l0 0c2.8529587 1.4012756 6.148795 2.0369263 9.444989 1.8216095m4.3173065 20.855759c1.4174843 -0.13841248 2.8068886 -0.43154907 4.1323814 -0.8718109m35.670517 9.543243c-0.9969635 -1.2476349 -1.8316765 -2.5808563 -2.4899101 -3.9769135m47.516598 -1.625l0 0c0.5143585 -1.4212036 0.8476181 -2.8839111 0.9942169 -4.3637543m31.996506 -10.74382c0.06669617 -6.9295197 -4.6496735 -13.274246 -12.1232605 -16.308945m28.581345 -17.38713c-1.2103271 2.3596268 -3.058014 4.45282 -5.3982086 6.1154556m-7.6519165 -28.705978l0 0c0.20622253 0.95287323 0.30166626 1.9200668 0.2849884 2.888176m-31.922241 -9.961998l0 0c-1.1306152 1.1102066 -2.062088 2.350853 -2.7654266 3.6832962m-24.740517 -1.5097198l0 0c-0.6025238 1.0083923 -1.0524445 2.0754395 -1.3394089 3.1765747m-30.171066 0.8688736l0 0c1.759182 0.859787 3.3866653 1.8946381 4.8466988 3.0818176m-42.524292 17.87223l0 0c0.17899704 1.0977249 0.4618225 2.181923 0.8458271 3.2424316" fill-rule="nonzero"></path><path stroke="#000000" stroke-width="2.0" stroke-linejoin="round" stroke-linecap="butt" d="m17.66231 116.49646l0 0c-1.2987194 -7.964569 2.9652348 -15.849014 10.9825115 -20.307663c8.017277 -4.4586563 18.38182 -4.709572 26.695568 -0.6462784l0 0c2.9449844 -4.630928 8.335163 -7.82827 14.540112 -8.624886c6.204956 -0.796608 12.49588 0.90106964 16.969902 4.579521l0 0c2.5087433 -4.1987 7.4347153 -7.0196915 13.029915 -7.461937c5.595207 -0.44224548 11.06778 1.556839 14.475769 5.28788l0 0c4.532425 -4.4506073 11.743614 -6.324501 18.513252 -4.810829c6.7696533 1.5136719 11.881851 6.143036 13.124542 11.884941l0 0c5.5529785 1.2639923 10.178497 4.477234 12.6814575 8.809517c2.5029755 4.332283 2.637848 9.358627 0.36979675 13.78038l0 0c5.4680634 5.938904 6.7471924 13.852417 3.3600159 20.787369c-3.3871765 6.9349365 -10.931763 11.849426 -19.818253 12.909439c-0.06263733 6.5086975 -4.3401184 12.480988 -11.183731 15.614914c-6.8436203 3.1339264 -15.184708 2.9400787 -21.808243 -0.50679016c-2.8212738 7.795288 -10.762222 13.530991 -20.39206 14.729065c-9.629837 1.1980743 -19.222229 -2.356247 -24.632904 -9.12738c-6.632351 3.3375092 -14.590626 4.29895 -22.07959 2.6674194c-7.488968 -1.6315308 -13.877794 -5.718582 -17.725288 -11.339218l0 0c-6.7774334 0.66185 -13.330276 -2.2684174 -16.406372 -7.3365173c-3.076098 -5.068115 -2.0206242 -11.19516 2.6425924 -15.340332l0 0c-6.0456457 -2.9694061 -9.130499 -8.861694 -7.6459293 -14.604263c1.4845698 -5.742569 7.202153 -10.034134 14.171255 -10.636818z" fill-rule="nonzero"></path><path stroke="#000000" stroke-width="2.0" stroke-linejoin="round" stroke-linecap="butt" d="m11.003015 142.0445l0 0c2.8529587 1.4012756 6.148795 2.0369263 9.444989 1.8216095m4.3173065 20.855759c1.4174843 -0.13841248 2.8068886 -0.43154907 4.1323814 -0.8718109m35.670517 9.543243c-0.9969635 -1.2476349 -1.8316765 -2.5808563 -2.4899101 -3.9769135m47.516598 -1.625l0 0c0.5143585 -1.4212036 0.8476181 -2.8839111 0.9942169 -4.3637543m31.996506 -10.74382c0.06669617 -6.9295197 -4.6496735 -13.274246 -12.1232605 -16.308945m28.581345 -17.38713c-1.2103271 2.3596268 -3.058014 4.45282 -5.3982086 6.1154556m-7.6519165 -28.705978l0 0c0.20622253 0.95287323 0.30166626 1.9200668 0.2849884 2.888176m-31.922241 -9.961998l0 0c-1.1306152 1.1102066 -2.062088 2.350853 -2.7654266 3.6832962m-24.740517 -1.5097198l0 0c-0.6025238 1.0083923 -1.0524445 2.0754395 -1.3394089 3.1765747m-30.171066 0.8688736l0 0c1.759182 0.859787 3.3866653 1.8946381 4.8466988 3.0818176m-42.524292 17.87223l0 0c0.17899704 1.0977249 0.4618225 2.181923 0.8458271 3.2424316" fill-rule="nonzero"></path><path fill="#000000" d="m65.25475 132.88762l1.796875 0.453125q-0.5625 2.21875 -2.03125 3.390625q-1.4687462 1.15625 -3.5937462 1.15625q-2.203125 0 -3.578125 -0.890625q-1.375 -0.90625 -2.09375 -2.59375q-0.71875 -1.703125 -0.71875 -3.65625q0 -2.125 0.796875 -3.703125q0.8125 -1.578125 2.3125 -2.390625q1.5 -0.828125 3.296875 -0.828125q2.046875 0 3.4374962 1.046875q1.390625 1.03125 1.9375 2.90625l-1.765625 0.421875q-0.46875 -1.484375 -1.3749962 -2.15625q-0.90625 -0.6875 -2.265625 -0.6875q-1.5625 0 -2.625 0.75q-1.046875 0.75 -1.484375 2.03125q-0.421875 1.265625 -0.421875 2.609375q0 1.734375 0.5 3.03125q0.515625 1.28125 1.578125 1.921875q1.078125 0.640625 2.3125 0.640625q1.515625 0 2.5625 -0.859375q1.0468712 -0.875 1.4218712 -2.59375zm3.5198212 4.765625l0 -13.59375l1.671875 0l0 13.59375l-1.671875 0zm4.191696 -11.6875l0 -1.90625l1.671875 0l0 1.90625l-1.671875 0zm0 11.6875l0 -9.859375l1.671875 0l0 9.859375l-1.671875 0zm10.879196 -3.171875l1.71875 0.21875q-0.40625 1.5 -1.515625 2.34375q-1.09375 0.828125 -2.8125 0.828125q-2.15625 0 -3.421875 -1.328125q-1.265625 -1.328125 -1.265625 -3.734375q0 -2.484375 1.265625 -3.859375q1.28125 -1.375 3.328125 -1.375q1.984375 0 3.234375 1.34375q1.25 1.34375 1.25 3.796875q0 0.140625 -0.015625 0.4375l-7.34375 0q0.09375 1.625 0.921875 2.484375q0.828125 0.859375 2.0625 0.859375q0.90625 0 1.546875 -0.46875q0.65625 -0.484375 1.046875 -1.546875zm-5.484375 -2.703125l5.5 0q-0.109375 -1.234375 -0.625 -1.859375q-0.796875 -0.96875 -2.078125 -0.96875q-1.140625 0 -1.9375 0.78125q-0.78125 0.765625 -0.859375 2.046875zm9.110092 5.875l0 -9.859375l1.5 0l0 1.40625q1.09375 -1.625 3.140625 -1.625q0.890625 0 1.640625 0.328125q0.75 0.3125 1.109375 0.84375q0.375 0.515625 0.53125 1.21875q0.09375 0.46875 0.09375 1.625l0 6.0625l-1.671875 0l0 -6.0q0 -1.015625 -0.203125 -1.515625q-0.1875 -0.515625 -0.6875 -0.8125q-0.5 -0.296875 -1.171875 -0.296875q-1.0625 0 -1.84375 0.671875q-0.765625 0.671875 -0.765625 2.578125l0 5.375l-1.671875 0zm14.031967 -1.5l0.234375 1.484375q-0.703125 0.140625 -1.265625 0.140625q-0.90625 0 -1.40625 -0.28125q-0.5 -0.296875 -0.703125 -0.75q-0.203125 -0.46875 -0.203125 -1.984375l0 -5.65625l-1.234375 0l0 -1.3125l1.234375 0l0 -2.4375l1.65625 -1.0l0 3.4375l1.6875 0l0 1.3125l-1.6875 0l0 5.75q0 0.71875 0.078125 0.921875q0.09375 0.203125 0.296875 0.328125q0.203125 0.125 0.578125 0.125q0.265625 0 0.734375 -0.078125z" fill-rule="nonzero"></path><path fill="#000000" fill-opacity="0.0" d="m164.06241 133.02109l149.51181 0" fill-rule="nonzero"></path><path stroke="#000000" stroke-width="2.0" stroke-linejoin="round" stroke-linecap="butt" d="m164.06241 133.02109l137.51181 0" fill-rule="evenodd"></path><path fill="#000000" stroke="#000000" stroke-width="2.0" stroke-linecap="butt" d="m301.57422 136.32455l9.076202 -3.3034668l-9.076202 -3.3034668z" fill-rule="evenodd"></path><path fill="#000000" fill-opacity="0.0" d="m474.65616 133.03677l149.38583 0" fill-rule="nonzero"></path><path stroke="#000000" stroke-width="2.0" stroke-linejoin="round" stroke-linecap="butt" d="m474.65616 133.03677l137.38583 0" fill-rule="evenodd"></path><path fill="#000000" stroke="#000000" stroke-width="2.0" stroke-linecap="butt" d="m612.042 136.34024l9.076172 -3.3034668l-9.076172 -3.3034668z" fill-rule="evenodd"></path><path fill="#000000" fill-opacity="0.0" d="m474.65616 133.03677l149.38583 -82.01575" fill-rule="nonzero"></path><path stroke="#000000" stroke-width="2.0" stroke-linejoin="round" stroke-linecap="butt" d="m474.65616 133.03677l138.86691 -76.24065" fill-rule="evenodd"></path><path fill="#000000" stroke="#000000" stroke-width="2.0" stroke-linecap="butt" d="m615.11285 59.69188l6.366211 -7.2637444l-9.545837 1.4722519z" fill-rule="evenodd"></path><path fill="#000000" fill-opacity="0.0" d="m474.65616 133.03677l149.38583 81.98425" fill-rule="nonzero"></path><path stroke="#000000" stroke-width="2.0" stroke-linejoin="round" stroke-linecap="butt" d="m474.65616 133.03677l138.86594 76.21086" fill-rule="evenodd"></path><path fill="#000000" stroke="#000000" stroke-width="2.0" stroke-linecap="butt" d="m611.93274 212.14365l9.546082 1.4707031l-6.3673706 -7.2627106z" fill-rule="evenodd"></path><path fill="#000000" fill-opacity="0.0" d="m167.5853 129.0l128.78741 0l0 32.944885l-128.78741 0z" fill-rule="nonzero"></path><path fill="#000000" d="m177.16342 147.81563l1.171875 -0.109375q0.078125 0.703125 0.375 1.15625q0.3125 0.4375 0.9375 0.71875q0.640625 0.265625 1.4375 0.265625q0.703125 0 1.234375 -0.203125q0.546875 -0.203125 0.8125 -0.5625q0.265625 -0.375 0.265625 -0.8125q0 -0.4375 -0.265625 -0.765625q-0.25 -0.328125 -0.828125 -0.546875q-0.375 -0.140625 -1.65625 -0.453125q-1.28125 -0.3125 -1.796875 -0.578125q-0.671875 -0.34375 -1.0 -0.859375q-0.328125 -0.53125 -0.328125 -1.171875q0 -0.703125 0.390625 -1.3125q0.40625 -0.609375 1.171875 -0.921875q0.78125 -0.328125 1.71875 -0.328125q1.03125 0 1.8125 0.34375q0.796875 0.328125 1.21875 0.984375q0.4375 0.640625 0.46875 1.453125l-1.1875 0.09375q-0.09375 -0.890625 -0.640625 -1.328125q-0.546875 -0.453125 -1.625 -0.453125q-1.109375 0 -1.625 0.40625q-0.515625 0.40625 -0.515625 0.984375q0 0.5 0.359375 0.828125q0.359375 0.328125 1.859375 0.671875q1.5 0.328125 2.0625 0.578125q0.8125 0.375 1.1875 0.953125q0.390625 0.578125 0.390625 1.328125q0 0.734375 -0.421875 1.390625q-0.421875 0.65625 -1.21875 1.03125q-0.796875 0.359375 -1.796875 0.359375q-1.265625 0 -2.125 -0.359375q-0.84375 -0.375 -1.328125 -1.109375q-0.484375 -0.75 -0.515625 -1.671875zm8.889755 0l1.171875 -0.109375q0.078125 0.703125 0.375 1.15625q0.3125 0.4375 0.9375 0.71875q0.640625 0.265625 1.4375 0.265625q0.703125 0 1.234375 -0.203125q0.546875 -0.203125 0.8125 -0.5625q0.265625 -0.375 0.265625 -0.8125q0 -0.4375 -0.265625 -0.765625q-0.25 -0.328125 -0.828125 -0.546875q-0.375 -0.140625 -1.65625 -0.453125q-1.28125 -0.3125 -1.796875 -0.578125q-0.671875 -0.34375 -1.0 -0.859375q-0.328125 -0.53125 -0.328125 -1.171875q0 -0.703125 0.390625 -1.3125q0.40625 -0.609375 1.171875 -0.921875q0.78125 -0.328125 1.71875 -0.328125q1.03125 0 1.8125 0.34375q0.796875 0.328125 1.21875 0.984375q0.4375 0.640625 0.46875 1.453125l-1.1875 0.09375q-0.09375 -0.890625 -0.640625 -1.328125q-0.546875 -0.453125 -1.625 -0.453125q-1.109375 0 -1.625 0.40625q-0.515625 0.40625 -0.515625 0.984375q0 0.5 0.359375 0.828125q0.359375 0.328125 1.859375 0.671875q1.5 0.328125 2.0625 0.578125q0.8125 0.375 1.1875 0.953125q0.390625 0.578125 0.390625 1.328125q0 0.734375 -0.421875 1.390625q-0.421875 0.65625 -1.21875 1.03125q-0.796875 0.359375 -1.796875 0.359375q-1.265625 0 -2.125 -0.359375q-0.84375 -0.375 -1.328125 -1.109375q-0.484375 -0.75 -0.515625 -1.671875zm9.264755 2.984375l0 -9.3125l1.234375 0l0 8.21875l4.578125 0l0 1.09375l-5.8125 0zm6.4593506 0.15625l2.703125 -9.625l0.90625 0l-2.6875 9.625l-0.921875 0zm7.0779877 -0.15625l0 -8.203125l-3.0625 0l0 -1.109375l7.375 0l0 1.109375l-3.078125 0l0 8.203125l-1.234375 0zm5.7194824 0l0 -9.3125l1.234375 0l0 8.21875l4.578125 0l0 1.09375l-5.8125 0zm7.0374756 -2.984375l1.171875 -0.109375q0.078125 0.703125 0.375 1.15625q0.3125 0.4375 0.9375 0.71875q0.640625 0.265625 1.4375 0.265625q0.703125 0 1.234375 -0.203125q0.546875 -0.203125 0.8125 -0.5625q0.265625 -0.375 0.265625 -0.8125q0 -0.4375 -0.265625 -0.765625q-0.25 -0.328125 -0.828125 -0.546875q-0.375 -0.140625 -1.65625 -0.453125q-1.28125 -0.3125 -1.796875 -0.578125q-0.671875 -0.34375 -1.0 -0.859375q-0.328125 -0.53125 -0.328125 -1.171875q0 -0.703125 0.390625 -1.3125q0.40625 -0.609375 1.171875 -0.921875q0.78125 -0.328125 1.71875 -0.328125q1.03125 0 1.8125 0.34375q0.796875 0.328125 1.21875 0.984375q0.4375 0.640625 0.46875 1.453125l-1.1875 0.09375q-0.09375 -0.890625 -0.640625 -1.328125q-0.546875 -0.453125 -1.625 -0.453125q-1.109375 0 -1.625 0.40625q-0.515625 0.40625 -0.515625 0.984375q0 0.5 0.359375 0.828125q0.359375 0.328125 1.859375 0.671875q1.5 0.328125 2.0625 0.578125q0.8125 0.375 1.1875 0.953125q0.390625 0.578125 0.390625 1.328125q0 0.734375 -0.421875 1.390625q-0.421875 0.65625 -1.21875 1.03125q-0.796875 0.359375 -1.796875 0.359375q-1.265625 0 -2.125 -0.359375q-0.84375 -0.375 -1.328125 -1.109375q-0.484375 -0.75 -0.515625 -1.671875zm8.71788 0.1875l0 -1.140625l3.515625 0l0 1.140625l-3.515625 0zm4.4383698 0.78125l1.125 -0.171875q0.09375 0.671875 0.53125 1.046875q0.4375 0.359375 1.21875 0.359375q0.78125 0 1.15625 -0.3125q0.390625 -0.328125 0.390625 -0.765625q0 -0.390625 -0.34375 -0.609375q-0.234375 -0.15625 -1.171875 -0.390625q-1.25 -0.3125 -1.734375 -0.546875q-0.484375 -0.234375 -0.734375 -0.640625q-0.25 -0.40625 -0.25 -0.90625q0 -0.453125 0.203125 -0.828125q0.203125 -0.390625 0.5625 -0.640625q0.265625 -0.203125 0.71875 -0.328125q0.46875 -0.140625 1.0 -0.140625q0.78125 0 1.375 0.234375q0.609375 0.21875 0.890625 0.609375q0.296875 0.390625 0.40625 1.046875l-1.125 0.15625q-0.078125 -0.53125 -0.4375 -0.8125q-0.359375 -0.296875 -1.03125 -0.296875q-0.78125 0 -1.125 0.265625q-0.34375 0.25 -0.34375 0.609375q0 0.21875 0.140625 0.390625q0.140625 0.1875 0.4375 0.3125q0.171875 0.0625 1.015625 0.28125q1.21875 0.328125 1.6875 0.53125q0.484375 0.203125 0.75 0.609375q0.28125 0.390625 0.28125 0.96875q0 0.578125 -0.34375 1.078125q-0.328125 0.5 -0.953125 0.78125q-0.625 0.28125 -1.421875 0.28125q-1.3125 0 -2.0 -0.546875q-0.6875 -0.546875 -0.875 -1.625zm11.7265625 -0.15625l1.1875 0.140625q-0.28125 1.046875 -1.046875 1.625q-0.75 0.5625 -1.921875 0.5625q-1.484375 0 -2.359375 -0.90625q-0.859375 -0.921875 -0.859375 -2.5625q0 -1.703125 0.875 -2.640625q0.890625 -0.9375 2.28125 -0.9375q1.359375 0 2.203125 0.921875q0.859375 0.921875 0.859375 2.578125q0 0.109375 0 0.3125l-5.03125 0q0.0625 1.109375 0.625 1.703125q0.5625 0.59375 1.40625 0.59375q0.640625 0 1.078125 -0.328125q0.453125 -0.34375 0.703125 -1.0625zm-3.75 -1.84375l3.765625 0q-0.078125 -0.859375 -0.4375 -1.28125q-0.546875 -0.65625 -1.40625 -0.65625q-0.796875 0 -1.328125 0.53125q-0.53125 0.515625 -0.59375 1.40625zm10.943726 1.546875l1.125 0.140625q-0.171875 1.171875 -0.9375 1.828125q-0.765625 0.65625 -1.859375 0.65625q-1.390625 0 -2.234375 -0.90625q-0.828125 -0.90625 -0.828125 -2.59375q0 -1.09375 0.359375 -1.90625q0.359375 -0.828125 1.09375 -1.234375q0.734375 -0.40625 1.609375 -0.40625q1.09375 0 1.796875 0.5625q0.703125 0.546875 0.890625 1.5625l-1.109375 0.171875q-0.15625 -0.671875 -0.5625 -1.015625q-0.390625 -0.34375 -0.96875 -0.34375q-0.859375 0 -1.40625 0.625q-0.53125 0.609375 -0.53125 1.953125q0 1.359375 0.515625 1.984375q0.515625 0.609375 1.359375 0.609375q0.671875 0 1.125 -0.40625q0.453125 -0.421875 0.5625 -1.28125zm6.6953278 2.46875l0 -0.984375q-0.796875 1.140625 -2.140625 1.140625q-0.59375 0 -1.125 -0.234375q-0.515625 -0.234375 -0.765625 -0.578125q-0.25 -0.34375 -0.34375 -0.84375q-0.07814026 -0.328125 -0.07814026 -1.0625l0 -4.171875l1.1406403 0l0 3.734375q0 0.890625 0.078125 1.203125q0.109375 0.453125 0.453125 0.71875q0.34375 0.25 0.859375 0.25q0.515625 0 0.96875 -0.265625q0.453125 -0.265625 0.640625 -0.71875q0.1875 -0.453125 0.1875 -1.3125l0 -3.609375l1.140625 0l0 6.734375l-1.015625 0zm2.9749756 0l0 -6.734375l1.03125 0l0 1.015625q0.390625 -0.71875 0.71875 -0.9375q0.34375 -0.234375 0.734375 -0.234375q0.578125 0 1.171875 0.359375l-0.390625 1.0625q-0.421875 -0.25 -0.828125 -0.25q-0.375 0 -0.6875 0.234375q-0.296875 0.21875 -0.421875 0.625q-0.1875 0.609375 -0.1875 1.328125l0 3.53125l-1.140625 0zm9.0633545 -2.171875l1.1875 0.140625q-0.28125 1.046875 -1.046875 1.625q-0.75 0.5625 -1.921875 0.5625q-1.484375 0 -2.359375 -0.90625q-0.859375 -0.921875 -0.859375 -2.5625q0 -1.703125 0.875 -2.640625q0.890625 -0.9375 2.28125 -0.9375q1.359375 0 2.203125 0.921875q0.859375 0.921875 0.859375 2.578125q0 0.109375 0 0.3125l-5.03125 0q0.0625 1.109375 0.625 1.703125q0.5625 0.59375 1.40625 0.59375q0.640625 0 1.078125 -0.328125q0.453125 -0.34375 0.703125 -1.0625zm-3.75 -1.84375l3.765625 0q-0.078125 -0.859375 -0.4375 -1.28125q-0.546875 -0.65625 -1.40625 -0.65625q-0.796875 0 -1.328125 0.53125q-0.53125 0.515625 -0.59375 1.40625zm10.928101 4.015625l0 -0.84375q-0.640625 1.0 -1.890625 1.0q-0.796875 0 -1.484375 -0.4375q-0.671875 -0.453125 -1.046875 -1.25q-0.375 -0.796875 -0.375 -1.828125q0 -1.015625 0.34375 -1.828125q0.34375 -0.828125 1.015625 -1.265625q0.671875 -0.4375 1.5 -0.4375q0.609375 0 1.078125 0.265625q0.484375 0.25 0.78125 0.65625l0 -3.34375l1.140625 0l0 9.3125l-1.0625 0zm-3.609375 -3.359375q0 1.296875 0.53125 1.9375q0.546875 0.640625 1.296875 0.640625q0.75 0 1.265625 -0.609375q0.53125 -0.625 0.53125 -1.875q0 -1.390625 -0.53125 -2.03125q-0.53125 -0.65625 -1.3125 -0.65625q-0.765625 0 -1.28125 0.625q-0.5 0.625 -0.5 1.96875z" fill-rule="nonzero"></path><path fill="#000000" fill-opacity="0.0" d="m502.40158 129.0l128.78738 0l0 32.944885l-128.78738 0z" fill-rule="nonzero"></path><path fill="#000000" d="m511.9797 147.81563l1.1718445 -0.109375q0.078125 0.703125 0.375 1.15625q0.3125 0.4375 0.9375 0.71875q0.640625 0.265625 1.4375 0.265625q0.703125 0 1.234375 -0.203125q0.546875 -0.203125 0.8125 -0.5625q0.265625 -0.375 0.265625 -0.8125q0 -0.4375 -0.265625 -0.765625q-0.25 -0.328125 -0.828125 -0.546875q-0.375 -0.140625 -1.65625 -0.453125q-1.28125 -0.3125 -1.796875 -0.578125q-0.671875 -0.34375 -1.0 -0.859375q-0.328125 -0.53125 -0.328125 -1.171875q0 -0.703125 0.390625 -1.3125q0.40625 -0.609375 1.171875 -0.921875q0.78125 -0.328125 1.71875 -0.328125q1.03125 0 1.8125 0.34375q0.796875 0.328125 1.21875 0.984375q0.4375 0.640625 0.46875 1.453125l-1.1875 0.09375q-0.09375 -0.890625 -0.640625 -1.328125q-0.546875 -0.453125 -1.625 -0.453125q-1.109375 0 -1.625 0.40625q-0.515625 0.40625 -0.515625 0.984375q0 0.5 0.359375 0.828125q0.359375 0.328125 1.859375 0.671875q1.5 0.328125 2.0625 0.578125q0.8125 0.375 1.1875 0.953125q0.390625 0.578125 0.390625 1.328125q0 0.734375 -0.421875 1.390625q-0.421875 0.65625 -1.21875 1.03125q-0.796875 0.359375 -1.796875 0.359375q-1.265625 0 -2.125 -0.359375q-0.84375 -0.375 -1.328125 -1.109375q-0.484375 -0.75 -0.5155945 -1.671875zm8.88974 0l1.171875 -0.109375q0.078125 0.703125 0.375 1.15625q0.3125 0.4375 0.9375 0.71875q0.640625 0.265625 1.4375 0.265625q0.703125 0 1.234375 -0.203125q0.546875 -0.203125 0.8125 -0.5625q0.265625 -0.375 0.265625 -0.8125q0 -0.4375 -0.265625 -0.765625q-0.25 -0.328125 -0.828125 -0.546875q-0.375 -0.140625 -1.65625 -0.453125q-1.28125 -0.3125 -1.796875 -0.578125q-0.671875 -0.34375 -1.0 -0.859375q-0.328125 -0.53125 -0.328125 -1.171875q0 -0.703125 0.390625 -1.3125q0.40625 -0.609375 1.171875 -0.921875q0.78125 -0.328125 1.71875 -0.328125q1.03125 0 1.8125 0.34375q0.796875 0.328125 1.21875 0.984375q0.4375 0.640625 0.46875 1.453125l-1.1875 0.09375q-0.09375 -0.890625 -0.640625 -1.328125q-0.546875 -0.453125 -1.625 -0.453125q-1.109375 0 -1.625 0.40625q-0.515625 0.40625 -0.515625 0.984375q0 0.5 0.359375 0.828125q0.359375 0.328125 1.859375 0.671875q1.5 0.328125 2.0625 0.578125q0.8125 0.375 1.1875 0.953125q0.390625 0.578125 0.390625 1.328125q0 0.734375 -0.421875 1.390625q-0.421875 0.65625 -1.21875 1.03125q-0.796875 0.359375 -1.796875 0.359375q-1.265625 0 -2.125 -0.359375q-0.84375 -0.375 -1.328125 -1.109375q-0.484375 -0.75 -0.515625 -1.671875zm9.2647705 2.984375l0 -9.3125l1.234375 0l0 8.21875l4.578125 0l0 1.09375l-5.8125 0zm6.4593506 0.15625l2.703125 -9.625l0.90625 0l-2.6875 9.625l-0.921875 0zm7.078003 -0.15625l0 -8.203125l-3.0625 0l0 -1.109375l7.375 0l0 1.109375l-3.078125 0l0 8.203125l-1.234375 0zm5.7194824 0l0 -9.3125l1.234375 0l0 8.21875l4.578125 0l0 1.09375l-5.8125 0zm7.0374756 -2.984375l1.171875 -0.109375q0.078125 0.703125 0.375 1.15625q0.3125 0.4375 0.9375 0.71875q0.640625 0.265625 1.4375 0.265625q0.703125 0 1.234375 -0.203125q0.546875 -0.203125 0.8125 -0.5625q0.265625 -0.375 0.265625 -0.8125q0 -0.4375 -0.265625 -0.765625q-0.25 -0.328125 -0.828125 -0.546875q-0.375 -0.140625 -1.65625 -0.453125q-1.28125 -0.3125 -1.796875 -0.578125q-0.671875 -0.34375 -1.0 -0.859375q-0.328125 -0.53125 -0.328125 -1.171875q0 -0.703125 0.390625 -1.3125q0.40625 -0.609375 1.171875 -0.921875q0.78125 -0.328125 1.71875 -0.328125q1.03125 0 1.8125 0.34375q0.796875 0.328125 1.21875 0.984375q0.4375 0.640625 0.46875 1.453125l-1.1875 0.09375q-0.09375 -0.890625 -0.640625 -1.328125q-0.546875 -0.453125 -1.625 -0.453125q-1.109375 0 -1.625 0.40625q-0.515625 0.40625 -0.515625 0.984375q0 0.5 0.359375 0.828125q0.359375 0.328125 1.859375 0.671875q1.5 0.328125 2.0625 0.578125q0.8125 0.375 1.1875 0.953125q0.390625 0.578125 0.390625 1.328125q0 0.734375 -0.421875 1.390625q-0.421875 0.65625 -1.21875 1.03125q-0.796875 0.359375 -1.796875 0.359375q-1.265625 0 -2.125 -0.359375q-0.84375 -0.375 -1.328125 -1.109375q-0.484375 -0.75 -0.515625 -1.671875zm8.717834 0.1875l0 -1.140625l3.515625 0l0 1.140625l-3.515625 0zm4.4384155 0.78125l1.125 -0.171875q0.09375 0.671875 0.53125 1.046875q0.4375 0.359375 1.21875 0.359375q0.78125 0 1.15625 -0.3125q0.390625 -0.328125 0.390625 -0.765625q0 -0.390625 -0.34375 -0.609375q-0.234375 -0.15625 -1.171875 -0.390625q-1.25 -0.3125 -1.734375 -0.546875q-0.484375 -0.234375 -0.734375 -0.640625q-0.25 -0.40625 -0.25 -0.90625q0 -0.453125 0.203125 -0.828125q0.203125 -0.390625 0.5625 -0.640625q0.265625 -0.203125 0.71875 -0.328125q0.46875 -0.140625 1.0 -0.140625q0.78125 0 1.375 0.234375q0.609375 0.21875 0.890625 0.609375q0.296875 0.390625 0.40625 1.046875l-1.125 0.15625q-0.078125 -0.53125 -0.4375 -0.8125q-0.359375 -0.296875 -1.03125 -0.296875q-0.78125 0 -1.125 0.265625q-0.34375 0.25 -0.34375 0.609375q0 0.21875 0.140625 0.390625q0.140625 0.1875 0.4375 0.3125q0.171875 0.0625 1.015625 0.28125q1.21875 0.328125 1.6875 0.53125q0.484375 0.203125 0.75 0.609375q0.28125 0.390625 0.28125 0.96875q0 0.578125 -0.34375 1.078125q-0.328125 0.5 -0.953125 0.78125q-0.625 0.28125 -1.421875 0.28125q-1.3125 0 -2.0 -0.546875q-0.6875 -0.546875 -0.875 -1.625zm11.7265625 -0.15625l1.1875 0.140625q-0.28125 1.046875 -1.046875 1.625q-0.75 0.5625 -1.921875 0.5625q-1.484375 0 -2.359375 -0.90625q-0.859375 -0.921875 -0.859375 -2.5625q0 -1.703125 0.875 -2.640625q0.890625 -0.9375 2.28125 -0.9375q1.359375 0 2.203125 0.921875q0.859375 0.921875 0.859375 2.578125q0 0.109375 0 0.3125l-5.03125 0q0.0625 1.109375 0.625 1.703125q0.5625 0.59375 1.40625 0.59375q0.640625 0 1.078125 -0.328125q0.453125 -0.34375 0.703125 -1.0625zm-3.75 -1.84375l3.765625 0q-0.078125 -0.859375 -0.4375 -1.28125q-0.546875 -0.65625 -1.40625 -0.65625q-0.796875 0 -1.328125 0.53125q-0.53125 0.515625 -0.59375 1.40625zm10.943726 1.546875l1.125 0.140625q-0.171875 1.171875 -0.9375 1.828125q-0.765625 0.65625 -1.859375 0.65625q-1.390625 0 -2.234375 -0.90625q-0.828125 -0.90625 -0.828125 -2.59375q0 -1.09375 0.359375 -1.90625q0.359375 -0.828125 1.09375 -1.234375q0.734375 -0.40625 1.609375 -0.40625q1.09375 0 1.796875 0.5625q0.703125 0.546875 0.890625 1.5625l-1.109375 0.171875q-0.15625 -0.671875 -0.5625 -1.015625q-0.390625 -0.34375 -0.96875 -0.34375q-0.859375 0 -1.40625 0.625q-0.53125 0.609375 -0.53125 1.953125q0 1.359375 0.515625 1.984375q0.515625 0.609375 1.359375 0.609375q0.671875 0 1.125 -0.40625q0.453125 -0.421875 0.5625 -1.28125zm6.6953125 2.46875l0 -0.984375q-0.796875 1.140625 -2.140625 1.140625q-0.59375 0 -1.125 -0.234375q-0.515625 -0.234375 -0.765625 -0.578125q-0.25 -0.34375 -0.34375 -0.84375q-0.078125 -0.328125 -0.078125 -1.0625l0 -4.171875l1.140625 0l0 3.734375q0 0.890625 0.078125 1.203125q0.109375 0.453125 0.453125 0.71875q0.34375 0.25 0.859375 0.25q0.515625 0 0.96875 -0.265625q0.453125 -0.265625 0.640625 -0.71875q0.1875 -0.453125 0.1875 -1.3125l0 -3.609375l1.140625 0l0 6.734375l-1.015625 0zm2.9749756 0l0 -6.734375l1.03125 0l0 1.015625q0.390625 -0.71875 0.71875 -0.9375q0.34375 -0.234375 0.734375 -0.234375q0.578125 0 1.171875 0.359375l-0.390625 1.0625q-0.421875 -0.25 -0.828125 -0.25q-0.375 0 -0.6875 0.234375q-0.296875 0.21875 -0.421875 0.625q-0.1875 0.609375 -0.1875 1.328125l0 3.53125l-1.140625 0zm9.0633545 -2.171875l1.1875 0.140625q-0.28125 1.046875 -1.046875 1.625q-0.75 0.5625 -1.921875 0.5625q-1.484375 0 -2.359375 -0.90625q-0.859375 -0.921875 -0.859375 -2.5625q0 -1.703125 0.875 -2.640625q0.890625 -0.9375 2.28125 -0.9375q1.359375 0 2.203125 0.921875q0.859375 0.921875 0.859375 2.578125q0 0.109375 0 0.3125l-5.03125 0q0.0625 1.109375 0.625 1.703125q0.5625 0.59375 1.40625 0.59375q0.640625 0 1.078125 -0.328125q0.453125 -0.34375 0.703125 -1.0625zm-3.75 -1.84375l3.765625 0q-0.078125 -0.859375 -0.4375 -1.28125q-0.546875 -0.65625 -1.40625 -0.65625q-0.796875 0 -1.328125 0.53125q-0.53125 0.515625 -0.59375 1.40625zm10.928101 4.015625l0 -0.84375q-0.640625 1.0 -1.890625 1.0q-0.796875 0 -1.484375 -0.4375q-0.671875 -0.453125 -1.046875 -1.25q-0.375 -0.796875 -0.375 -1.828125q0 -1.015625 0.34375 -1.828125q0.34375 -0.828125 1.015625 -1.265625q0.671875 -0.4375 1.5 -0.4375q0.609375 0 1.078125 0.265625q0.484375 0.25 0.78125 0.65625l0 -3.34375l1.140625 0l0 9.3125l-1.0625 0zm-3.609375 -3.359375q0 1.296875 0.53125 1.9375q0.546875 0.640625 1.296875 0.640625q0.75 0 1.265625 -0.609375q0.53125 -0.625 0.53125 -1.875q0 -1.390625 -0.53125 -2.03125q-0.53125 -0.65625 -1.3125 -0.65625q-0.765625 0 -1.28125 0.625q-0.5 0.625 -0.5 1.96875z" fill-rule="nonzero"></path><path fill="#000000" fill-opacity="0.0" d="m494.83994 114.66168l112.81894 -62.58268l15.968445 28.818893l-112.81888 62.58268z" fill-rule="nonzero"></path><path fill="#000000" d="m512.3351 126.47348l0.9717407 -0.66413116q0.40905762 0.57712555 0.88830566 0.8294678q0.48529053 0.23109436 1.1681519 0.17391968q0.68896484 -0.07841492 1.3858032 -0.46496582q0.61486816 -0.34107208 0.98095703 -0.7764435q0.37982178 -0.44295502 0.43792725 -0.88614655q0.050476074 -0.4568634 -0.16156006 -0.8395462q-0.21203613 -0.38267517 -0.6033325 -0.54084015q-0.3776245 -0.16574097 -0.9891968 -0.07663727q-0.39611816 0.058898926 -1.6679688 0.40706635q-1.2718506 0.34817505 -1.8515015 0.36595154q-0.7541504 0.025238037 -1.2909851 -0.2666092q-0.5444336 -0.3055191 -0.85491943 -0.8658676q-0.3407898 -0.61502075 -0.29452515 -1.3375244q0.059906006 -0.7300873 0.5779419 -1.3748245q0.5241699 -0.6659775 1.3439941 -1.1207428q0.90179443 -0.50024414 1.7515259 -0.578537q0.855896 -0.09954071 1.5429077 0.26983643q0.6930542 0.34812927 1.1141357 1.043663l-0.99298096 0.6580353q-0.51361084 -0.733551 -1.2039185 -0.85095215q-0.69781494 -0.13106537 -1.640625 0.39191437q-0.9700928 0.53813934 -1.2240906 1.1436081q-0.2539978 0.60546875 0.0262146 1.1111526q0.24230957 0.4373474 0.7156372 0.55003357q0.4732666 0.11267853 1.9515991 -0.31427002q1.4707031 -0.4406128 2.0837402 -0.49479675q0.89227295 -0.06611633 1.5004272 0.2576599q0.62176514 0.31620026 0.9852905 0.9722214q0.355896 0.6423569 0.3050537 1.4210205q-0.050842285 0.77866364 -0.56591797 1.4932327q-0.5227051 0.7008896 -1.3971558 1.1859741q-1.1067505 0.6139374 -2.0324097 0.71645355q-0.9196167 0.08128357 -1.6990967 -0.32611084q-0.78704834 -0.42106628 -1.2611694 -1.212265zm7.7738037 -4.312271l0.9717407 -0.66413116q0.40911865 0.57712555 0.88830566 0.8294678q0.48535156 0.23109436 1.1681519 0.17391968q0.68896484 -0.07841492 1.3858032 -0.46496582q0.61486816 -0.34107208 0.98095703 -0.7764435q0.37982178 -0.44295502 0.43792725 -0.88614655q0.05053711 -0.4568634 -0.16156006 -0.8395462q-0.21203613 -0.38267517 -0.6033325 -0.54084015q-0.3776245 -0.16574097 -0.9891968 -0.07663727q-0.39611816 0.058898926 -1.6679688 0.40706635q-1.2718506 0.34817505 -1.8515015 0.36595154q-0.7541504 0.025238037 -1.2910156 -0.2666092q-0.54437256 -0.3055191 -0.8548584 -0.8658676q-0.3408203 -0.61502075 -0.29455566 -1.3375244q0.05987549 -0.7300873 0.5779419 -1.3748245q0.5241699 -0.6659775 1.3439941 -1.1207428q0.90179443 -0.50024414 1.7515869 -0.578537q0.85583496 -0.09954071 1.5428467 0.26983643q0.6930542 0.34812927 1.1141968 1.043663l-0.993042 0.6580353q-0.51361084 -0.733551 -1.2038574 -0.85095215q-0.697876 -0.13106537 -1.640625 0.39191437q-0.9701538 0.53813934 -1.2241211 1.1436081q-0.25402832 0.60546875 0.026184082 1.1111526q0.24230957 0.4373474 0.7156372 0.55003357q0.4732666 0.11267853 1.9515991 -0.31427002q1.4707031 -0.4406128 2.0838013 -0.49479675q0.8922119 -0.06611633 1.5003662 0.2576599q0.62176514 0.31620026 0.9852905 0.9722214q0.355896 0.6423569 0.3050537 1.4210205q-0.050842285 0.77867126 -0.56591797 1.4932327q-0.5227051 0.7008896 -1.3971558 1.1859741q-1.1067505 0.6139374 -2.0324097 0.7164612q-0.9196167 0.08127594 -1.6990967 -0.32611847q-0.78704834 -0.42105865 -1.2611694 -1.212265zm9.548157 -1.8837509l-4.513489 -8.145622l1.0794067 -0.5987778l3.9833984 7.1889267l4.003418 -2.2207718l0.53009033 0.95669556l-5.0828247 2.8195496zm5.724182 -2.9966507l-2.3010864 -9.730209l0.79248047 -0.4396057l2.3147583 9.722626l-0.80615234 0.44718933zm6.1137695 -3.5700836l-3.975769 -7.175255l-2.6781006 1.4855652l-0.5376587 -0.97036743l6.4492188 -3.5774918l0.5376587 0.97036743l-2.6917114 1.4931488l3.975769 7.175255l-1.0794067 0.5987778zm5.001526 -2.7744217l-4.513489 -8.14563l1.0794067 -0.59877014l3.9833984 7.188919l4.003418 -2.2207718l0.53009033 0.9567032l-5.0828247 2.8195496zm4.7075806 -6.024193l0.9717407 -0.66412354q0.40911865 0.57712555 0.8883667 0.82946014q0.48529053 0.23109436 1.1681519 0.1739273q0.68896484 -0.07841492 1.3858032 -0.46496582q0.61486816 -0.3410797 0.98095703 -0.7764511q0.37976074 -0.44295502 0.4378662 -0.88614655q0.05053711 -0.4568634 -0.16149902 -0.8395386q-0.21203613 -0.3826828 -0.6033325 -0.54084015q-0.37768555 -0.16574097 -0.9892578 -0.0766449q-0.39605713 0.058898926 -1.6679077 0.40707397q-1.2719116 0.34816742 -1.8515625 0.3659439q-0.75408936 0.025238037 -1.2909546 -0.2666092q-0.5444336 -0.30551147 -0.85491943 -0.8658676q-0.34075928 -0.61502075 -0.29455566 -1.3375244q0.059936523 -0.7300873 0.5780029 -1.3748169q0.5241089 -0.6659851 1.3439331 -1.1207504q0.90179443 -0.50024414 1.7515869 -0.578537q0.855896 -0.09954071 1.5428467 0.26983643q0.69311523 0.34812927 1.1141968 1.043663l-0.99298096 0.6580429q-0.5136719 -0.73355865 -1.2039185 -0.85095215q-0.69781494 -0.131073 -1.640625 0.39190674q-0.9700928 0.53813934 -1.2241211 1.1436081q-0.2539673 0.60546875 0.026184082 1.1111526q0.2423706 0.4373474 0.7156372 0.55003357q0.47332764 0.11267853 1.9515991 -0.3142624q1.4707642 -0.44062042 2.0838013 -0.49480438q0.89227295 -0.06611633 1.5003662 0.2576599q0.6218262 0.31620026 0.9852905 0.972229q0.35595703 0.64234924 0.30511475 1.4210205q-0.050842285 0.77866364 -0.565979 1.4932251q-0.52264404 0.7008972 -1.3970947 1.1859741q-1.1067505 0.6139374 -2.0324097 0.7164612q-0.9196167 0.08127594 -1.6990967 -0.32611847q-0.7871094 -0.42105865 -1.2612305 -1.212265zm7.7144165 -4.064888l-0.55285645 -0.99770355l3.0743408 -1.705368l0.5527954 0.9976959l-3.0742798 1.7053757zm4.2598267 -1.4696198l0.9005127 -0.6960602q0.40759277 0.54221344 0.9719238 0.65799713q0.5567627 0.102119446 1.2399292 -0.27684784q0.6831665 -0.3789749 0.8596802 -0.8342209q0.18255615 -0.47649384 -0.029541016 -0.85917664q-0.18927002 -0.34168243 -0.59594727 -0.36627197q-0.28063965 -0.022979736 -1.2140503 0.22677612q-1.2445679 0.33301544 -1.7817383 0.36296844q-0.5371704 0.029953003 -0.9526367 -0.20412445q-0.41552734 -0.23406982 -0.65789795 -0.67141724q-0.21960449 -0.39635468 -0.22369385 -0.82289886q-0.01171875 -0.44020844 0.18139648 -0.8332062q0.13378906 -0.30652618 0.46948242 -0.6356659q0.34173584 -0.35038757 0.8062744 -0.60808563q0.68322754 -0.3789749 1.31604 -0.46198273q0.638855 -0.104255676 1.0741577 0.100990295q0.44891357 0.19766998 0.86260986 0.71863556l-0.90802 0.6823883q-0.32580566 -0.42678833 -0.7763672 -0.4984665q-0.45819092 -0.08535004 -1.0457153 0.24056244q-0.6831665 0.3789749 -0.8550415 0.7780609q-0.17938232 0.38542175 -0.0052490234 0.69976807q0.10601807 0.19133759 0.3123169 0.2734604q0.21386719 0.09579468 0.5340576 0.06111908q0.18054199 -0.028701782 1.0244141 -0.2466507q1.2247925 -0.30418396 1.7331543 -0.3538971q0.5220337 -0.057289124 0.9511719 0.16921234q0.43530273 0.20524597 0.71551514 0.7109299q0.28015137 0.5056839 0.22192383 1.1097794q-0.0446167 0.5965195 -0.45483398 1.1457062q-0.4102173 0.5491867 -1.1070557 0.9357376q-1.1477661 0.636673 -2.014038 0.49181366q-0.86621094 -0.14485168 -1.5527344 -0.996933zm10.178772 -5.825035l1.1066284 -0.45302582q0.26141357 1.052124 -0.12786865 1.9291992q-0.38323975 0.85583496 -1.40802 1.4242935q-1.2980347 0.72003937 -2.5024414 0.35179138q-1.1983032 -0.38948822 -1.9934692 -1.8245392q-0.82543945 -1.4897232 -0.51464844 -2.7341995q0.3244629 -1.2520599 1.5405273 -1.9266281q1.1887207 -0.65940857 2.373352 -0.26233673q1.1983032 0.38949585 2.0010376 1.838211q0.052978516 0.09567261 0.15142822 0.27334595l-4.399658 2.4405746q0.5923462 0.9400482 1.3720093 1.1865463q0.7796631 0.24649048 1.517456 -0.16279602q0.5602417 -0.3107605 0.78375244 -0.8099899q0.2296753 -0.5204849 0.09991455 -1.2704468zm-4.1728516 0.20633698l3.2929077 -1.8266373q-0.48480225 -0.7137985 -1.00354 -0.9084854q-0.7963257 -0.3087387 -1.5477905 0.10813141q-0.6968384 0.3865509 -0.90393066 1.1089325q-0.21466064 0.70871735 0.16235352 1.5180588zm10.319641 -3.9555664l1.0519409 -0.42271423q0.41766357 1.1084137 0.066223145 2.0538254q-0.35144043 0.9454117 -1.3078613 1.4759674q-1.2160645 0.6745682 -2.3931274 0.2911682q-1.1633911 -0.3909912 -1.9813232 -1.8670425q-0.53009033 -0.95669556 -0.60961914 -1.8417206q-0.08709717 -0.89868164 0.35821533 -1.61026q0.44525146 -0.71157837 1.2104492 -1.1360321q0.9564209 -0.5305557 1.8439331 -0.37961578q0.8798828 0.1372757 1.5360718 0.9346924l-0.8867798 0.68847656q-0.46228027 -0.5118942 -0.98413086 -0.61550903q-0.5081787 -0.111190796 -1.0137329 0.16925049q-0.7515259 0.41687012 -0.92681885 1.228836q-0.16918945 0.7907181 0.48205566 1.966095q0.6588745 1.1890411 1.4126587 1.4856033q0.74627686 0.28289795 1.4840698 -0.12638855q0.5875244 -0.32591248 0.78686523 -0.901062q0.19177246 -0.5888214 -0.12908936 -1.39357zm7.0513916 -1.0883713l-0.47711182 -0.8610306q-0.14398193 1.3842545 -1.3190918 2.0360794q-0.5192261 0.2880249 -1.0973511 0.3407135q-0.56451416 0.04511261 -0.94970703 -0.1342926q-0.3852539 -0.17940521 -0.7095337 -0.57128143q-0.22735596 -0.24910736 -0.583313 -0.89146423l-2.0219727 -3.6491318l0.9974365 -0.55329895l1.8099365 3.266449q0.43170166 0.77902985 0.6514282 1.014473q0.31530762 0.34329224 0.7446289 0.40888977q0.42175293 0.05192566 0.87268066 -0.19819641q0.4508667 -0.25012207 0.7183838 -0.7022629q0.2675171 -0.45214844 0.21185303 -0.9394455q-0.055664062 -0.4873047 -0.47216797 -1.2389984l-1.7493286 -3.1571121l0.9974365 -0.55329895l3.263916 5.8905487l-0.88812256 0.49266052zm2.6015015 -1.4431076l-3.263916 -5.8905487l0.90179443 -0.50024414l0.49224854 0.8883667q-0.0067749023 -0.81817627 0.1741333 -1.1686783q0.18701172 -0.3717575 0.52856445 -0.56124115q0.5055542 -0.28044128 1.1989746 -0.25411224l0.17333984 1.1188507q-0.49005127 -0.014030457 -0.8453369 0.1830368q-0.32788086 0.18190002 -0.48754883 0.5384979q-0.15362549 0.33535004 -0.06604004 0.75133514q0.13140869 0.62397003 0.47973633 1.252655l1.7114868 3.0887833l-0.9974365 0.55329895zm6.872986 -6.2962265l1.1066284 -0.45303345q0.26141357 1.0521317 -0.12792969 1.9292068q-0.3831787 0.85582733 -1.407959 1.4242859q-1.2980347 0.720047 -2.5024414 0.351799q-1.1983032 -0.38949585 -1.9934692 -1.8245468q-0.82543945 -1.4897156 -0.51464844 -2.734192q0.3244629 -1.2520599 1.5405273 -1.9266281q1.1887207 -0.65940857 2.373352 -0.26233673q1.1983032 0.38949585 2.0010376 1.838211q0.052978516 0.09567261 0.15142822 0.27334595l-4.399658 2.4405746q0.5923462 0.9400482 1.3720093 1.1865387q0.7796631 0.24649811 1.517456 -0.16279602q0.5602417 -0.31075287 0.78375244 -0.8099899q0.2296753 -0.5204773 0.09991455 -1.2704391zm-4.1728516 0.20633698l3.2929077 -1.8266373q-0.48480225 -0.7137985 -1.00354 -0.9084854q-0.7963257 -0.3087387 -1.5477905 0.10812378q-0.6968384 0.3865509 -0.90393066 1.1089401q-0.21466064 0.70871735 0.16235352 1.5180588zm11.502502 -1.7885818l-0.40893555 -0.73802185q-0.07550049 1.1854553 -1.1685791 1.7918091q-0.6968384 0.3865509 -1.5101318 0.3373642q-0.8071289 -0.07043457 -1.5212402 -0.5855484q-0.71417236 -0.51512146 -1.2139893 -1.4171524q-0.49224854 -0.8883667 -0.5854492 -1.7658081q-0.10076904 -0.89110565 0.27471924 -1.5997009q0.37548828 -0.7085953 1.0996704 -1.1103058q0.53289795 -0.29559326 1.0715332 -0.29063416q0.54473877 -0.016288757 1.0012207 0.19504547l-1.6206055 -2.9247742l0.9974365 -0.5532913l4.513489 8.145622l-0.9291382 0.5153961zm-4.784424 -1.1875916q0.62854004 1.1343765 1.4035645 1.437027q0.7887573 0.29507446 1.4445801 -0.068733215q0.6558838 -0.3638153 0.81140137 -1.1469574q0.16168213 -0.8043823 -0.44415283 -1.8977585q-0.67401123 -1.2163773 -1.4490967 -1.5190277q-0.7825928 -0.31632233 -1.4657593 0.06265259q-0.66955566 0.3713913 -0.8175049 1.1681976q-0.13433838 0.78923035 0.5169678 1.9645996z" fill-rule="nonzero"></path><path fill="#000000" fill-opacity="0.0" d="m512.5697 147.2651l113.700806 61.85826l-15.748047 28.913391l-113.700775 -61.858276z" fill-rule="nonzero"></path><path fill="#000000" d="m511.98346 168.36612l1.0817261 0.46398926q-0.2677002 0.6548004 -0.22363281 1.1946106q0.06524658 0.5335541 0.4796753 1.0792236q0.43572998 0.5394287 1.1356812 0.9202423q0.6176758 0.33602905 1.1814575 0.41152954q0.5775757 0.082962036 0.9827881 -0.10569763q0.4126587 -0.20237732 0.62194824 -0.58657837q0.20928955 -0.3842163 0.13287354 -0.79930115q-0.06262207 -0.40763855 -0.4658203 -0.87602234q-0.262146 -0.30270386 -1.2381592 -1.1894531q-0.9760132 -0.886734 -1.3018799 -1.3664246q-0.42578125 -0.6229553 -0.4673462 -1.2325897q-0.034118652 -0.6233368 0.27227783 -1.1859283q0.3363037 -0.6174774 0.97088623 -0.9659424q0.64837646 -0.34100342 1.470398 -0.24954224q0.8432007 0.08520508 1.666687 0.53323364q0.9058838 0.49282837 1.4277344 1.1680603q0.5430298 0.66897583 0.59973145 1.4468994q0.07788086 0.7716675 -0.2833252 1.5001373l-1.0879517 -0.48518372q0.34362793 -0.8269348 0.072509766 -1.4724884q-0.26361084 -0.6592865 -1.2106934 -1.1745148q-0.9744873 -0.5301666 -1.6217041 -0.41981506q-0.64727783 0.11035156 -0.9237671 0.618042q-0.23919678 0.43910217 -0.080444336 0.8990021q0.15875244 0.4598999 1.3119507 1.4786224q1.1606445 1.0050049 1.5352173 1.4933624q0.53430176 0.71762085 0.58721924 1.4045258q0.066589355 0.6943817 -0.2921753 1.3530273q-0.35125732 0.6449127 -1.0357056 1.0196075q-0.6845093 0.37471008 -1.5638428 0.3231964q-0.8718872 -0.065216064 -1.7503052 -0.54312134q-1.1117554 -0.60484314 -1.6947632 -1.331131q-0.5617676 -0.73254395 -0.6359863 -1.6089478q-0.06674194 -0.89012146 0.34674072 -1.7146301zm7.808899 4.2483826l1.0817261 0.46398926q-0.2677002 0.6548157 -0.22363281 1.1946106q0.06524658 0.5335541 0.4796753 1.0792236q0.43572998 0.5394287 1.1356812 0.92025757q0.6176758 0.3360138 1.1814575 0.41151428q0.5775757 0.082977295 0.9827881 -0.10568237q0.4126587 -0.20237732 0.62194824 -0.5865936q0.20928955 -0.38420105 0.13287354 -0.79930115q-0.06262207 -0.4076233 -0.4658203 -0.87602234q-0.262146 -0.30270386 -1.2381592 -1.1894379q-0.9760132 -0.88674927 -1.3018799 -1.3664246q-0.42578125 -0.6229706 -0.4673462 -1.2325897q-0.034118652 -0.62335205 0.27227783 -1.1859436q0.3363037 -0.6174774 0.97094727 -0.9659424q0.6483154 -0.34100342 1.4703369 -0.24954224q0.8432007 0.08520508 1.666687 0.53323364q0.9058838 0.49282837 1.4277344 1.1680603q0.5430298 0.6689911 0.59973145 1.4469147q0.07788086 0.7716675 -0.2833252 1.5001221l-1.0879517 -0.48516846q0.34362793 -0.8269348 0.072509766 -1.4725037q-0.26361084 -0.65927124 -1.2106934 -1.1744995q-0.9744873 -0.5301819 -1.6217041 -0.41983032q-0.64727783 0.11035156 -0.9237671 0.61805725q-0.23919678 0.4390869 -0.080444336 0.8989868q0.15875244 0.4598999 1.3119507 1.4786224q1.1606445 1.0050049 1.5352173 1.4933624q0.53430176 0.71762085 0.58721924 1.4045258q0.066589355 0.6943817 -0.2921753 1.3530273q-0.35125732 0.644928 -1.0357056 1.0196228q-0.6845093 0.37469482 -1.5638428 0.3231964q-0.8718872 -0.06523132 -1.7503052 -0.54312134q-1.1117554 -0.60484314 -1.6947632 -1.331131q-0.5617676 -0.7325592 -0.6359863 -1.6089478q-0.06677246 -0.89012146 0.34674072 -1.7146454zm6.7108154 7.0484467l4.4543457 -8.178131l1.0842896 0.5899048l-3.9311523 7.2176056l4.0214844 2.1878815l-0.5231323 0.96051025l-5.105835 -2.777771zm5.599304 3.224121l6.9782715 -7.160736l0.7960205 0.4330902l-6.9645386 7.168213l-0.8097534 -0.44056702zm6.2921143 3.2453308l3.923706 -7.203888l-2.6901245 -1.463562l0.53063965 -0.9742279l6.4782715 3.5244904l-0.53063965 0.97424316l-2.7038574 -1.4710388l-3.923706 7.203888l-1.0842896 -0.5899048zm5.024109 2.7333221l4.4542847 -8.178116l1.0843506 0.5899048l-3.9312134 7.2176056l4.0215454 2.1878662l-0.52319336 0.9605255l-5.105774 -2.7777863zm7.609314 0.74235535l1.0817261 0.463974q-0.2677002 0.6548157 -0.22369385 1.1946259q0.06524658 0.5335541 0.47973633 1.0792236q0.43566895 0.53941345 1.1356812 0.9202423q0.61761475 0.33602905 1.1814575 0.41152954q0.57751465 0.082962036 0.98272705 -0.10569763q0.41271973 -0.20237732 0.6220093 -0.58657837q0.20922852 -0.3842163 0.13287354 -0.79930115q-0.062683105 -0.40763855 -0.46588135 -0.87602234q-0.262146 -0.30270386 -1.2381592 -1.1894531q-0.97595215 -0.886734 -1.3018188 -1.3664246q-0.42578125 -0.6229553 -0.46740723 -1.2325897q-0.034118652 -0.6233368 0.27233887 -1.1859283q0.3363037 -0.6174774 0.97088623 -0.9659424q0.6483154 -0.34100342 1.4703369 -0.24954224q0.8432007 0.08518982 1.666748 0.5332184q0.9058838 0.49284363 1.4276733 1.1680756q0.5430908 0.66897583 0.59973145 1.4468994q0.07788086 0.7716675 -0.28326416 1.5001373l-1.0879517 -0.48518372q0.34362793 -0.8269348 0.072509766 -1.4724884q-0.26367188 -0.6592865 -1.2106934 -1.1745148q-0.9744873 -0.5301666 -1.6217651 -0.41981506q-0.6472168 0.11035156 -0.9237671 0.618042q-0.23913574 0.43910217 -0.0803833 0.8990021q0.1586914 0.4598999 1.3118896 1.4786224q1.1607056 1.0050049 1.5352173 1.4933624q0.5343628 0.7176056 0.58721924 1.4045258q0.066589355 0.6943817 -0.29211426 1.3530273q-0.35125732 0.6449127 -1.0357666 1.0196075q-0.68444824 0.37471008 -1.5637817 0.3231964q-0.8718872 -0.065216064 -1.7503052 -0.54312134q-1.1117554 -0.60484314 -1.6947632 -1.331131q-0.5617676 -0.73254395 -0.6359863 -1.6089478q-0.06677246 -0.89012146 0.34674072 -1.7146301zm7.5682373 4.330902l0.54559326 -1.0016785l3.0881348 1.6800995l-0.5455322 1.0016937l-3.0881958 -1.6801147zm3.5250244 2.8071747l1.0704346 0.38668823q-0.23901367 0.6348419 -0.034057617 1.1732483q0.21240234 0.52467346 0.89868164 0.8980255q0.68621826 0.3733673 1.1651001 0.2781372q0.5001221 -0.10147095 0.7093506 -0.48568726q0.18682861 -0.34303284 -0.010498047 -0.6994171q-0.13110352 -0.2492218 -0.8425293 -0.9030762q-0.94854736 -0.8718109 -1.2619019 -1.3091125q-0.31341553 -0.43730164 -0.33868408 -0.9135437q-0.025268555 -0.47624207 0.21386719 -0.915329q0.21673584 -0.39793396 0.5745239 -0.630188q0.3652954 -0.24597168 0.8005371 -0.2937622q0.33050537 -0.051452637 0.7883301 0.05532837q0.4790039 0.1005249 0.9456787 0.35440063q0.6862793 0.37335205 1.0957031 0.8629303q0.43066406 0.48332214 0.49084473 0.9607849q0.07397461 0.48490906 -0.14385986 1.1134949l-1.0629272 -0.40042114q0.1854248 -0.50387573 0.004272461 -0.9226074q-0.17364502 -0.43244934 -0.763855 -0.75354004q-0.68621826 -0.3733673 -1.1152344 -0.30436707q-0.42156982 0.055267334 -0.5934448 0.37086487q-0.10461426 0.19210815 -0.06329346 0.4102478q0.033813477 0.23187256 0.23480225 0.4835205q0.12109375 0.13702393 0.7576294 0.7323456q0.91363525 0.8705902 1.2282104 1.272995q0.3283081 0.40986633 0.36730957 0.89356995q0.0602417 0.4774475 -0.2163086 0.9851532q-0.27648926 0.5076904 -0.81762695 0.7825165q-0.5274048 0.2822876 -1.2109375 0.23059082q-0.6835327 -0.051696777 -1.3834839 -0.43252563q-1.1529541 -0.62724304 -1.4952393 -1.4360504q-0.3423462 -0.8088074 0.008605957 -1.8452148zm10.375549 5.466873l0.9758301 0.69099426q-0.7477417 0.7849426 -1.6968384 0.9267578q-0.92785645 0.13555908 -1.9572754 -0.424469q-1.303894 -0.7093811 -1.6390381 -1.9234009q-0.3139038 -1.2202759 0.4708252 -2.6610565q0.81463623 -1.4956665 2.0316772 -1.9008026q1.2307739 -0.39767456 2.4522705 0.26690674q1.1940918 0.64964294 1.4943237 1.862442q0.31396484 1.2202759 -0.47827148 2.6747742q-0.05230713 0.09605408 -0.1494751 0.27442932l-4.4194946 -2.404419q-0.47576904 1.0041046 -0.265625 1.7943573q0.21008301 0.7902374 0.9512329 1.1934662q0.56274414 0.30615234 1.1040039 0.22706604q0.56243896 -0.08532715 1.1258545 -0.5970459zm-2.4121704 -3.4112701l3.3078003 1.7995758q0.34240723 -0.7920227 0.22851562 -1.334259q-0.1665039 -0.83766174 -0.9213867 -1.248352q-0.6999512 -0.38082886 -1.4207153 -0.16816711q-0.7133179 0.19892883 -1.1942139 0.9512024zm8.87323 6.5884247l0.9209595 0.66111755q-0.7114868 0.94699097 -1.697937 1.1574097q-0.98638916 0.2104187 -1.9472046 -0.31227112q-1.2214966 -0.6645813 -1.5292358 -1.8636627q-0.2939453 -1.1916199 0.5132446 -2.6735535q0.5231323 -0.9605255 1.227417 -1.5023041q0.711792 -0.5555115 1.5512085 -0.5613098q0.8394165 -0.0058135986 1.6080322 0.41233826q0.9607544 0.5227051 1.3093262 1.3527069q0.3560791 0.8162842 0.034973145 1.7978058l-1.0567017 -0.37924194q0.18414307 -0.66470337 -0.008300781 -1.1607208q-0.17871094 -0.4885559 -0.68652344 -0.7648468q-0.75494385 -0.4106903 -1.5342407 -0.123168945q-0.7581177 0.28126526 -1.4008789 1.4613342q-0.6502075 1.1937866 -0.49621582 1.9890594q0.16143799 0.78157043 0.9025879 1.1847992q0.59020996 0.32107544 1.1825562 0.18086243q0.5998535 -0.15393066 1.1069336 -0.85635376zm4.7004395 5.367691l0.4708252 -0.86447144q-1.2455444 0.62086487 -2.4259033 -0.021316528q-0.5215454 -0.28375244 -0.87609863 -0.743454q-0.3408203 -0.45224 -0.39605713 -0.8735962q-0.05517578 -0.42134094 0.101623535 -0.9052429q0.08831787 -0.32548523 0.43963623 -0.9704132l1.9954224 -3.6636963l1.0019531 0.545105l-1.7861938 3.27948q-0.4260254 0.78215027 -0.50683594 1.0939178q-0.120666504 0.4501953 0.05419922 0.84773254q0.18243408 0.38383484 0.63531494 0.630249q0.4529419 0.24641418 0.97802734 0.22969055q0.52508545 -0.016723633 0.9065552 -0.32504272q0.3814087 -0.3083191 0.79248047 -1.0630188l1.7264404 -3.1697083l1.0018921 0.545105l-3.2211304 5.9140472l-0.8921509 -0.48536682zm2.6132812 1.4217377l3.2211304 -5.9140472l0.9058838 0.49282837l-0.4857788 0.89190674q0.68688965 -0.44451904 1.079773 -0.47981262q0.4140625 -0.041549683 0.75720215 0.14512634q0.5078125 0.2762909 0.8574829 0.87564087l-0.85131836 0.7463989q-0.2510376 -0.42115784 -0.6078491 -0.61531067q-0.32940674 -0.17921448 -0.71606445 -0.12272644q-0.36541748 0.050231934 -0.6694946 0.34725952q-0.45617676 0.44552612 -0.7999878 1.0767365l-1.6890259 3.1010895l-1.0019531 -0.5450897zm9.000244 2.4240417l0.9758301 0.69099426q-0.7477417 0.7849426 -1.6968384 0.9267578q-0.92785645 0.13555908 -1.9572754 -0.42448425q-1.303894 -0.70936584 -1.6390381 -1.9233856q-0.3139038 -1.2202759 0.4708252 -2.6610565q0.81463623 -1.4956665 2.0316772 -1.9008026q1.2307739 -0.39767456 2.4522705 0.26690674q1.1940918 0.64964294 1.4943237 1.862442q0.31396484 1.2202759 -0.47827148 2.6747742q-0.05230713 0.09605408 -0.1494751 0.27442932l-4.4194946 -2.404419q-0.47576904 1.0041046 -0.265625 1.794342q0.21008301 0.7902527 0.9512329 1.1934662q0.56274414 0.3061676 1.1040039 0.2270813q0.56243896 -0.08532715 1.1258545 -0.5970459zm-2.4121704 -3.4112701l3.3078003 1.7995758q0.34240723 -0.7920227 0.22851562 -1.334259q-0.1665039 -0.83766174 -0.9213867 -1.248352q-0.6999512 -0.38082886 -1.4207153 -0.16816711q-0.7133179 0.19892883 -1.1942139 0.9512024zm7.678711 8.748978l0.40356445 -0.7409668q-1.0410767 0.5720215 -2.1390991 -0.025344849q-0.6999512 -0.38082886 -1.0946045 -1.0935822q-0.37347412 -0.71902466 -0.3217163 -1.5980377q0.051757812 -0.87901306 0.54504395 -1.7846527q0.4857788 -0.89190674 1.1763306 -1.4411621q0.6980591 -0.56295776 1.4975586 -0.6260834q0.7994385 -0.06312561 1.5268555 0.3326416q0.5352783 0.291214 0.8200073 0.7484894q0.3059082 0.45103455 0.3723755 0.9496765l1.5993652 -2.9364471l1.0019531 0.545105l-4.4543457 8.178131l-0.9332886 -0.5077667zm-1.5637207 -4.6750793q-0.6203003 1.1389008 -0.460083 1.955368q0.1739502 0.8239441 0.8327637 1.182373q0.6588135 0.3584137 1.4032593 0.06968689q0.76556396 -0.2949829 1.3634644 -1.3927155q0.66516113 -1.2212372 0.50494385 -2.0377045q-0.152771 -0.8302002 -0.8390503 -1.2035522q-0.6725464 -0.3658905 -1.4243774 -0.063430786q-0.7381592 0.309906 -1.3809204 1.489975z" fill-rule="nonzero"></path></g></svg>

