<svg id="Layer_1" data-name="Layer 1" xmlns="http://www.w3.org/2000/svg" width="128" height="128" viewBox="0 0 128 128">
  <title>Compute Engine</title>
  <path d="M126.47,58.12l-26.3-45.74A11.56,11.56,0,0,0,90.31,6.5H37.7a11.55,11.55,0,0,0-9.86,5.88L1.53,58a11.48,11.48,0,0,0,0,11.44l26.3,46a11.77,11.77,0,0,0,9.86,6.09H90.3a11.73,11.73,0,0,0,9.87-6.06l26.3-45.74A11.73,11.73,0,0,0,126.47,58.12Z" style="fill: #4285f4"/>
  <path d="M118.92,82.82,75.64,39.53l-3.1,6.72L65.78,39.5l-3.12,6.69L56,39.52,54.34,47.6l-5.94,1-1.23,5.28-7.68,1.84,6.88,6.88-6.81,3,6.81,6.81L39.52,75.4l46.1,46.1H90.3a11.73,11.73,0,0,0,9.87-6.06Z" style="opacity: 0.070000000298023;isolation: isolate"/>
  <path d="M69.83,57.1H58.42a1.22,1.22,0,0,0-1.21,1.21V69.72a1.22,1.22,0,0,0,1.21,1.22H69.83A1.22,1.22,0,0,0,71,69.72V58.31a1.22,1.22,0,0,0-1.21-1.21" style="fill: #fff"/>
  <path d="M87.89,56.18A1.09,1.09,0,0,0,89,55.09V53.31a1.09,1.09,0,0,0-1.09-1.09H82.34V47a1.22,1.22,0,0,0-1.21-1.21H75.92V40.25a1.09,1.09,0,0,0-1.09-1.09H73.05A1.09,1.09,0,0,0,72,40.25v5.57H66.1V40.25A1.09,1.09,0,0,0,65,39.16H63.24a1.09,1.09,0,0,0-1.09,1.09v5.57H56.29V40.25a1.09,1.09,0,0,0-1.09-1.09H53.42a1.09,1.09,0,0,0-1.09,1.09v5.57H47.13A1.22,1.22,0,0,0,45.91,47v5.19H40.36a1.09,1.09,0,0,0-1.09,1.09v1.78a1.09,1.09,0,0,0,1.09,1.09h5.55V62H40.36a1.09,1.09,0,0,0-1.09,1.09V64.9A1.09,1.09,0,0,0,40.36,66h5.55v5.86H40.36a1.09,1.09,0,0,0-1.09,1.09v1.78a1.09,1.09,0,0,0,1.09,1.09h5.55V81a1.22,1.22,0,0,0,1.21,1.21h5.21v5.57a1.09,1.09,0,0,0,1.09,1.09H55.2a1.09,1.09,0,0,0,1.09-1.09V82.21h5.86v5.57a1.09,1.09,0,0,0,1.09,1.09H65a1.09,1.09,0,0,0,1.09-1.09V82.21H72v5.57a1.09,1.09,0,0,0,1.09,1.09h1.78a1.09,1.09,0,0,0,1.09-1.09V82.21h5.21A1.22,1.22,0,0,0,82.34,81V75.81h5.55A1.09,1.09,0,0,0,89,74.72V72.94a1.09,1.09,0,0,0-1.09-1.09H82.34V66h5.55A1.09,1.09,0,0,0,89,64.9V63.13A1.09,1.09,0,0,0,87.89,62H82.34V56.18h5.55Zm-9.65,22H50V49.9H78.24Z" style="fill: #fff"/>
</svg>
