<svg xmlns="http://www.w3.org/2000/svg" width="128" height="128" viewBox="0 0 128 128"><title>GPU</title><path d="M126.4738,58.12,100.1694,12.3782A11.5551,11.5551,0,0,0,90.3056,6.5H37.6969a11.5486,11.5486,0,0,0-9.865,5.8757L1.5275,58.0261a11.4753,11.4753,0,0,0-.0023,11.4366L27.83,115.4133A11.7726,11.7726,0,0,0,37.6938,121.5H90.3021a11.7264,11.7264,0,0,0,9.8661-6.06l26.3031-45.7447A11.728,11.728,0,0,0,126.4738,58.12Z" fill="#4285f4"/><path d="M79.1429,37.5l-5.6606,6.394L67.0883,37.5l-5.0992,6.8223L55.1667,37.5,48.75,48.0832,37.5,55.1667l7.4943,7.4943L37.5,67.1548l6.5476,6.5476L37.5,79.1429,79.8571,121.5h10.445a11.7263,11.7263,0,0,0,9.8661-6.06l20.7782-36.136Z" opacity="0.07" style="isolation:isolate"/><path d="M72.8333,37.5v6.31H67.0883V37.5H60.9053v6.31H55.1667V37.5h-6.31v6.31A5.4282,5.4282,0,0,0,43.81,48.8572H37.5v6.31h6.31v5.6786H37.5v6.31h6.31v5.6786H37.5v6.31h6.31a5.4282,5.4282,0,0,0,5.0476,5.0476V90.5h6.31v-6.31h5.7387V90.5h6.1829v-6.31h5.7451V90.5h6.31v-6.31A5.4282,5.4282,0,0,0,84.19,79.1429H90.5v-6.31H84.19V67.1548H90.5v-6.31H84.19V55.1667H90.5v-6.31H84.19A5.4282,5.4282,0,0,0,79.1429,43.81V37.5Zm4.0521,40.381H51.1146a.9956.9956,0,0,1-.9956-.9956V51.1146a.9956.9956,0,0,1,.9956-.9956H76.8854a.9956.9956,0,0,1,.9956.9956V76.8855A.9956.9956,0,0,1,76.8854,77.881Z" fill="#fff"/><polygon points="66.189 52.17 66.189 61.66 71.389 61.66 62.12 74.539 62.12 64.939 56.64 64.939 66.189 52.17" fill="#fff"/></svg>