<svg xmlns="http://www.w3.org/2000/svg" width="128" height="128" viewBox="0 0 128 128"><title>Network Service Tiers_Premium</title><path d="M126.4738,58.12,100.1694,12.3782A11.5551,11.5551,0,0,0,90.3056,6.5H37.6969a11.5486,11.5486,0,0,0-9.865,5.8757L1.5275,58.0261a11.4753,11.4753,0,0,0-.0023,11.4366L27.83,115.4133A11.7726,11.7726,0,0,0,37.6938,121.5H90.3021a11.7264,11.7264,0,0,0,9.8661-6.06l26.3031-45.7447A11.728,11.728,0,0,0,126.4738,58.12Z" fill="#4285f4"/><path d="M87.9131,44.24l-19.159-5.7271-26.37,7.9585L28.63,71.6333,78.45,121.5H90.3021a11.7263,11.7263,0,0,0,9.8661-6.06l21.5235-37.4324Z" opacity="0.07" style="isolation:isolate"/><path d="M87.9131,44.24a35.365,35.365,0,0,0-22.8074-8.3875c-17.9277,0-33.26,13.5942-37.2842,33.0591a3,3,0,1,0,5.875,1.2148C37.1389,53.4787,50.055,41.8522,65.1057,41.8522a29.1535,29.1535,0,0,1,16.5179,5.1556Z" fill="#fff"/><path d="M89.5282,49.0045,67.7465,58.7437c-.0217.01-.04.0228-.0619.0328a7.397,7.397,0,1,0,4.6268,7.8754c.0639-.0463.1307-.085.1929-.1351l18.587-14.9736C93.2712,49.7872,92.0854,47.8612,89.5282,49.0045Z" fill="#fff"/><circle cx="94.6189" cy="58.1086" r="3.125" fill="#fff"/><circle cx="98.7638" cy="69.4222" r="3.125" fill="#fff"/></svg>