<svg id="Layer_1" data-name="Layer 1" xmlns="http://www.w3.org/2000/svg" width="128" height="128" viewBox="0 0 128 128">
  <title>Cloud DNS</title>
  <g>
    <path d="M126.47,58.12l-26.3-45.74A11.56,11.56,0,0,0,90.31,6.5H37.7a11.55,11.55,0,0,0-9.86,5.88L1.53,58a11.48,11.48,0,0,0,0,11.44l26.3,46a11.77,11.77,0,0,0,9.86,6.09H90.3a11.73,11.73,0,0,0,9.87-6.06l26.3-45.74A11.73,11.73,0,0,0,126.47,58.12Z" style="fill: #4285f4"/>
    <path d="M85.77,42.29l-6.93-4.45L64.52,23.54,61,37.74l3.53,12.54,9.36,9.36L72,61.51,69.44,59,66.71,62.3,46.36,41.95,40.8,47.47,52.67,59.34,49,62.2l-9-9-5.53,5.56L64,88.26l-.89,1L40,66.16,34.48,71.7,46.69,83.91l-3.28,1.25L79.79,121.5H90.3a11.73,11.73,0,0,0,9.87-6.06l21.45-37.3Z" style="opacity: 0.070000000298023;isolation: isolate"/>
    <path d="M38.77,79.28A30.13,30.13,0,1,0,64.52,33.54v-10L51,36.52h0L64.52,50.28v-10a23.43,23.43,0,1,1-20,35.63Z" style="fill: #fff"/>
    <path d="M48.2,71.19V59h3.92a5.77,5.77,0,0,1,2.9.73,5.15,5.15,0,0,1,2,2.07,6.25,6.25,0,0,1,.73,3v.56a6.27,6.27,0,0,1-.71,3,5.17,5.17,0,0,1-2,2.07,5.65,5.65,0,0,1-2.86.76Zm2.94-9.91V69h1a2.28,2.28,0,0,0,1.94-.9,4.4,4.4,0,0,0,.68-2.67v-.53a4.37,4.37,0,0,0-.68-2.66,2.32,2.32,0,0,0-2-.9Z" style="fill: #fff"/>
    <path d="M69.43,71.19H66.51l-4.32-7.58v7.58H59.26V59H62.2l4.31,7.58V59h2.93Z" style="fill: #fff"/>
    <path d="M77.57,68a1.2,1.2,0,0,0-.46-1,5.64,5.64,0,0,0-1.6-.74,15.36,15.36,0,0,1-1.87-.75q-2.37-1.16-2.37-3.19a2.86,2.86,0,0,1,.59-1.79,3.82,3.82,0,0,1,1.67-1.2A6.5,6.5,0,0,1,76,58.86a5.68,5.68,0,0,1,2.35.47A3.73,3.73,0,0,1,80,60.66a3.48,3.48,0,0,1,.58,2h-3a1.47,1.47,0,0,0-.46-1.15,1.77,1.77,0,0,0-1.23-.41,2,2,0,0,0-1.24.35,1,1,0,0,0,0,1.73,6.33,6.33,0,0,0,1.76.79,10.84,10.84,0,0,1,2.07.87,3.48,3.48,0,0,1,2,3.14,3,3,0,0,1-1.2,2.51,5.36,5.36,0,0,1-3.3.91,6.55,6.55,0,0,1-2.68-.53,4,4,0,0,1-1.81-1.46,3.79,3.79,0,0,1-.61-2.13h2.94a1.87,1.87,0,0,0,.51,1.44,2.39,2.39,0,0,0,1.64.46,1.89,1.89,0,0,0,1.15-.31A1,1,0,0,0,77.57,68Z" style="fill: #fff"/>
    <circle cx="37.3" cy="56.02" r="3.92" style="fill: #fff"/>
    <circle cx="43.63" cy="44.76" r="3.92" style="fill: #fff"/>
    <circle cx="37.26" cy="68.93" r="3.92" style="fill: #fff"/>
  </g>
</svg>
