<svg width="39px" height="40px" viewBox="0 0 39 40" version="1.1" xmlns="http://www.w3.org/2000/svg" xmlns:xlink="http://www.w3.org/1999/xlink" class="svg replaced-svg">
    <!-- Generator: Sketch 48.2 (47327) - http://www.bohemiancoding.com/sketch -->
    <title>openvpn-mark</title>
    <desc>Created with Sketch.</desc>
    <defs></defs>
    <g id="Contact-Page" stroke="none" stroke-width="1" fill="none" fill-rule="evenodd" transform="translate(-71.000000, -1880.000000)">
        <g id="Footer" transform="translate(0.000000, 1862.000000)">
            <g id="openvpn-mark" transform="translate(71.000000, 18.000000)">
                <g id="Group">
                    <path d="M0.00862784138,19.0243902 C0.00862784138,20.9268293 -0.0970632155,21.9837398 0.431392069,23.9918699 C0.74846524,25.4715447 1.27692052,27.3739837 2.01675792,28.7479675 C2.12244898,28.9593496 2.12244898,29.0650407 2.22814004,29.2764228 C2.33383109,29.4878049 2.43952215,29.5934959 2.54521321,29.804878 L3.81350589,31.8130081 C4.65903435,32.9756098 5.82163597,34.2439024 6.87854654,35.0894309 C7.19561971,35.300813 7.40700183,35.6178862 7.724075,35.8292683 L9.62651402,37.097561 C9.62651402,36.1463415 10.3663514,31.9186992 10.5777335,30.5447154 C10.8948067,27.3739837 11.1061888,29.3821138 9.62651402,26.9512195 C8.88667662,25.6829268 8.46391239,24.9430894 8.04114817,23.4634146 C7.30131077,20.398374 7.61838394,17.7560976 9.09805874,15.0081301 L9.83789613,13.7398374 C10.3663514,13 11.8460262,11.5203252 12.5858636,10.9918699 C13.5370831,10.3577236 13.0086278,10.5691057 14.2769205,9.93495935 C16.6021238,8.77235772 17.8704165,8.77235772 20.1956197,8.77235772 C21.2525303,8.77235772 23.1549693,9.30081301 24.2118799,9.72357724 C25.0574083,10.0406504 25.7972457,10.5691057 26.4313921,10.9918699 C26.9598474,11.3089431 28.22814,12.4715447 28.6509043,13.1056911 C29.0736685,13.7398374 29.2850506,13.8455285 29.8135059,14.796748 C30.9761075,16.804878 31.5045628,19.4471545 31.1874896,21.7723577 C30.9761075,23.5691057 30.4476522,25.1544715 29.4964327,26.7398374 L28.4395222,28.2195122 C27.9110669,28.7479675 28.122449,28.5365854 28.3338311,30.2276423 L29.2850506,37.097561 C30.024888,36.7804878 32.2444002,34.9837398 32.8785465,34.3495935 C35.0980587,32.1300813 36.7891156,29.699187 37.8460262,26.6341463 C39.22001,22.4065041 39.325701,19.0243902 38.2687904,14.5853659 C38.0574083,13.7398374 37.423262,11.8373984 37.0004978,11.097561 L35.7322051,8.87804878 C35.520823,8.56097561 35.4151319,8.45528455 35.2037498,8.13821138 C34.8866766,7.6097561 33.5126929,6.1300813 32.9842376,5.60162602 C31.6102539,4.33333333 30.4476522,3.48780488 28.8622864,2.53658537 C28.6509043,2.43089431 28.3338311,2.2195122 28.122449,2.11382114 C27.4883026,1.79674797 26.22001,1.26829268 25.5858636,1.05691057 C23.8948067,0.422764228 21.3582213,0 19.4557823,0 C17.3419612,0 15.3338311,0.422764228 13.4313921,1.05691057 C12.7972457,1.26829268 12.3744815,1.4796748 11.7403352,1.79674797 C11.2118799,2.00813008 10.6834246,2.32520325 10.1549693,2.64227642 C8.67529451,3.48780488 8.67529451,3.48780488 7.30131077,4.6504065 C6.56147337,5.28455285 6.13870914,5.70731707 5.5045628,6.34146341 C4.44765223,7.39837398 2.54521321,10.1463415 2.01675792,11.3089431 L1.27692052,12.8943089 C0.642774183,14.4796748 0.00862784138,17.1219512 0.00862784138,18.9186992 L0.00862784138,19.0243902 Z" id="_2_O" fill="#ED7F22"></path>
                    <path d="M13.325701,19.6585366 C13.325701,20.8211382 13.325701,21.4552846 13.7484652,22.6178862 C14.0655384,23.3577236 14.0655384,23.3577236 14.5939937,24.097561 C15.3338311,25.0487805 16.0736685,25.4715447 17.2362701,26 L14.8053758,39.1056911 L24.1061888,39.1056911 L21.6752945,25.8943089 C21.9923677,25.6829268 22.626514,25.4715447 23.2606604,25.0487805 C25.1630994,23.5691057 26.0086278,21.4552846 25.5858636,18.9186992 C25.4801726,18.495935 25.3744815,18.2845528 25.1630994,17.8617886 C24.423262,15.9593496 22.0980587,14.2682927 19.7728555,14.2682927 C17.8704165,14.2682927 16.8135059,14.4796748 15.22814,15.7479675 C14.9110669,16.0650407 14.0655384,17.0162602 13.9598474,17.4390244 C13.6427742,18.0731707 13.22001,18.8130081 13.22001,19.7642276 L13.325701,19.6585366 Z" id="_1_Sleutelgat" fill="#1A3867"></path>
                </g>
            </g>
        </g>
    </g>
</svg>